<?xml version="1.0" encoding="utf-8"?>
<!-- Generator: Adobe Illustrator 18.1.0, SVG Export Plug-In . SVG Version: 6.00 Build 0)  -->
<!DOCTYPE svg PUBLIC "-//W3C//DTD SVG 1.1//EN" "http://www.w3.org/Graphics/SVG/1.1/DTD/svg11.dtd">
<svg version="1.1" id="Layer_1" xmlns="http://www.w3.org/2000/svg" xmlns:xlink="http://www.w3.org/1999/xlink" x="0px" y="0px"
	 viewBox="438 -27.5 1199.9 343.5" enable-background="new 438 -27.5 1199.9 343.5" xml:space="preserve">
<g>
	<path fill="#010101" d="M856.7,194.8l6,4c0,0-17,1.3-26.7,6c1.6,5.2,5.7,8.3,11.3,7.3c5.7-1,6.2-4.7,7-10.7l3.7-0.3
		c-0.3,7.7-1.7,12.7-10.7,14c-9,1.3-11-5-13.3-9.7c-0.9-0.2-0.8-2.3,0-3C834.1,202.5,840.1,198.8,856.7,194.8"/>
	<path fill="#010101" d="M831.1,205.5c0,0-1.7,13.6-12.3,11.9c-10.7-1.7-9.3-7.1-9.7-11.9h3.3c-0.4,4.4,0.2,7.3,6,8.8
		c5.8,1.5,10.7-2.3,11-8.8c0,0-12.7-2.4-24-1.4l3.3-4.7c0,0,18.3,1.7,23.3,3C832.4,203.6,832.3,204.7,831.1,205.5"/>
	<path fill="#010101" d="M827.7,206.6c-0.2,2.2-3.1,3.7-6.4,3.3c-3.3-0.3-5.8-2.4-5.6-4.5c0.2-2.2,3.1-3.7,6.4-3.3
		C825.4,202.4,827.9,204.5,827.7,206.6"/>
	<path fill="#010101" d="M850.1,203.3c0.4,2.1-1.9,4.4-5.2,5c-3.3,0.6-6.2-0.6-6.6-2.8c-0.4-2.1,1.9-4.4,5.2-5
		C846.8,199.9,849.7,201.2,850.1,203.3"/>
	<path fill="#010101" d="M818.2,229c4.5-5.5,9.2-8.3,15.8-8.7c6.7-0.3,11,3.8,14.3,6.2C838.1,224.5,829.6,222.8,818.2,229"/>
	<path fill="#010101" d="M833.3,242.4c-19.9,0-36.1-16.2-36.1-36.1c0-19.9,16.2-36.1,36.1-36.1s36.1,16.2,36.1,36.1
		S853.2,242.4,833.3,242.4L833.3,242.4z M833.3,174.2c-17.7,0-32.1,14.4-32.1,32.1c0,17.7,14.4,32.1,32.1,32.1
		c17.7,0,32.1-14.4,32.1-32.1C865.4,188.6,851,174.2,833.3,174.2L833.3,174.2z"/>
</g>
<g>
	<path fill="#010101" d="M1221.5,242.4c-19.9,0-36.1-16.2-36.1-36.1c0-19.9,16.2-36.1,36.1-36.1s36.1,16.2,36.1,36.1
		S1241.4,242.4,1221.5,242.4L1221.5,242.4z M1221.5,174.2c-17.7,0-32.1,14.4-32.1,32.1c0,17.7,14.4,32.1,32.1,32.1
		c17.7,0,32.1-14.4,32.1-32.1C1253.6,188.6,1239.2,174.2,1221.5,174.2L1221.5,174.2z"/>
	<path fill="#231F20" d="M1237.2,220.2c-1.2-4.9-2.1-5.5-4.7-6.2c-9.3-2.3-17,0.6-19.1,0.9c-2.1,0.3-9.1,6.9-9.3,13.1
		c-0.2,6.2,6.6,4,12.3,2.9c5.7-1.2,11.9-0.3,14.6,0c2.8,0.3,3.6-1,6.2-3.5C1239.8,224.8,1237.7,221.9,1237.2,220.2 M1232,222.9
		c0,0,1.1,2.3,1.1,2.9c0,0.6,0.4,1.7-4.5,1.3c-4.9-0.4-14.5,1.1-18.5,1.7c-4,0.6-3.6,0.3-2.3-3.1c5.3-0.6,10.1-2.5,10.1-2.5
		s-3.9-0.2-7.3,0l1-2c1.9-4.7,16.8-4.5,20.2-3.8c3.4,0.6,1.5-1.1,3,2.1l-9.2,3.5H1232z"/>
	<path fill="#231F20" d="M1195.9,195.1c4.6,3.1,16.7,5.6,23.9,6.4c0,1,0.4,4.2-0.6,5.4c-2.5,2.9-9.5,6.7-13.3,6.1
		c-4.9-0.7-8.8-4.8-10.8-8.7l2.1-1.3c7.2,10.3,15.4,6.2,21.3,2.1c-12.1-1-16.6-2-25.2-5.1C1193.5,198.5,1195.9,195.1,1195.9,195.1"
		/>
	<path fill="#231F20" d="M1211.9,205.2c0,1.5-1.7,2.7-3.7,2.7c-2,0-3.7-1.2-3.7-2.7s1.7-2.7,3.7-2.7
		C1210.3,202.4,1211.9,203.7,1211.9,205.2"/>
	<path fill="#231F20" d="M1246.4,195.1c-4.6,3.1-16.7,5.6-23.9,6.4c0,1.1-0.3,4.5,0.9,5.7c2.6,2.8,9.3,6.3,13,5.8
		c4.9-0.7,8.8-4.8,10.8-8.7l-2.1-1.3c-7.2,10.3-15.4,6.2-21.3,2.1c12.1-1,16.6-2,25.2-5.1C1248.8,198.5,1246.4,195.1,1246.4,195.1"
		/>
	<path fill="#231F20" d="M1231.4,205.2c0,1.5,1.7,2.7,3.7,2.7c2,0,3.7-1.2,3.7-2.7s-1.7-2.7-3.7-2.7
		C1233.1,202.4,1231.4,203.7,1231.4,205.2"/>
</g>
<g>
	<path fill="#010101" d="M1026.8,88.9c-0.4,1.4-4.5,2.7-8,1.7c-3.5-1.1-5.2-4.1-4.8-5.5c0.4-1.4,3.5,0.3,7,1.3
		C1024.5,87.4,1027.2,87.5,1026.8,88.9"/>
	<g>
		<path fill="#010101" d="M1025.5,101.2c-19.9,0-36.1-16.2-36.1-36.1c0-19.9,16.2-36.1,36.1-36.1c19.9,0,36.1,16.2,36.1,36.1
			S1045.4,101.2,1025.5,101.2L1025.5,101.2z M1025.5,33c-17.7,0-32.1,14.4-32.1,32.1c0,17.7,14.4,32.1,32.1,32.1
			c17.7,0,32.1-14.4,32.1-32.1C1057.6,47.4,1043.2,33,1025.5,33L1025.5,33z"/>
	</g>
	<path fill="#010101" d="M1053.1,59.2c0-0.1-0.1-0.2-0.2-0.3c-6.7-1.6-13.6-1.8-19.9-0.6c-0.9,0.2-1.8,0.4-2.7,0.6
		c-1.3,0.4-2.6,0.7-3.8,0.8c-2.4,0.2-4.2-0.3-6.1-0.8c-0.8-0.2-1.6-0.4-2.4-0.6c-3-0.6-6.3-0.9-9.6-0.9c-3.8,0-7.5,0.4-10.6,1.3
		c-0.1,0-0.2,0.2-0.2,0.3c0,1.3,0.1,2.4,0.3,3.4c0.1,0.4,0.5,0.6,0.7,0.7c0.1,0,0.2,0.1,0.2,0.1c0.8,0.6,1.1,2.3,1.3,3.8
		c0.1,0.6,0.2,1.2,0.3,1.7c0.8,3.3,2.1,5.3,4,6.4c1.2,0.7,3.1,1.1,5.2,1.1c4.4,0,9.6-1.8,11.5-5.8c1-1.3,2-4.3,3.1-5.5
		c0.1-0.1,0.5-0.3,1.1-0.3c0.6,0,1,0.1,1.2,0.2c0.7,1,1.1,1.9,1.5,2.8c0.5,1.1,1,2.1,1.9,3.3c3.4,4.4,7.7,5.4,10.7,5.4h0
		c1,0,4.5-0.1,6.4-1.3c2.2-1.4,2.8-4.3,3.3-7c0.3-1.5,0.6-3.1,1.2-4.5c0-0.1,0.2-0.1,0.4-0.2c0.3-0.1,0.7-0.2,0.9-0.7
		C1053,62,1053.3,60.2,1053.1,59.2 M1003.9,63.1c-1.2,2.6-1,6.1-0.5,8.7c-0.7-2-1.2-4.6-1.2-6.3c0.1-3.7,1.6-4.8,4.6-5.4
		C1005.6,60.8,1004.5,61.7,1003.9,63.1 M1032.3,62.2c-1,1.2-1.7,2.4-2,3.7c-0.2-1.6-0.2-3.2,0.8-4.1c0.6-0.6,2.1-1.1,3.9-1.6
		C1033.9,60.9,1032.9,61.6,1032.3,62.2"/>
</g>
<g>
	<path fill="#010101" d="M642.8,88.9c-0.4,1.4-4.5,2.7-8,1.7c-3.5-1.1-5.2-4.1-4.8-5.5c0.4-1.4,3.5,0.3,7,1.3
		C640.6,87.4,643.2,87.5,642.8,88.9"/>
	<g>
		<path fill="#010101" d="M642,101.2c-19.9,0-36.1-16.2-36.1-36.1c0-19.9,16.2-36.1,36.1-36.1s36.1,16.2,36.1,36.1
			S661.9,101.2,642,101.2L642,101.2z M642,33c-17.7,0-32.1,14.4-32.1,32.1c0,17.7,14.4,32.1,32.1,32.1c17.7,0,32.1-14.4,32.1-32.1
			C674.1,47.4,659.7,33,642,33L642,33z"/>
	</g>
	<path fill="#010101" d="M669.6,59.2c0-0.1-0.1-0.2-0.2-0.3c-6.7-1.6-13.6-1.8-19.9-0.6c-0.9,0.2-1.8,0.4-2.7,0.6
		c-1.3,0.4-2.6,0.7-3.8,0.8c-2.4,0.2-4.2-0.3-6.1-0.8c-0.8-0.2-1.6-0.4-2.4-0.6c-3-0.6-6.3-0.9-9.6-0.9c-3.8,0-7.5,0.4-10.6,1.3
		c-0.1,0-0.2,0.2-0.2,0.3c0,1.3,0.1,2.4,0.3,3.4c0.1,0.4,0.5,0.6,0.7,0.7c0.1,0,0.2,0.1,0.2,0.1c0.8,0.6,1.1,2.3,1.3,3.8
		c0.1,0.6,0.2,1.2,0.3,1.7c0.8,3.3,2.1,5.3,4,6.4c1.2,0.7,3.1,1.1,5.2,1.1c4.4,0,9.6-1.8,11.5-5.8c1-1.3,2-4.3,3.1-5.5
		c0.1-0.1,0.5-0.3,1.1-0.3c0.6,0,1,0.1,1.2,0.2c0.7,1,1.1,1.9,1.5,2.8c0.5,1.1,1,2.1,1.9,3.3c3.4,4.4,7.7,5.4,10.7,5.4h0
		c1,0,4.5-0.1,6.4-1.3c2.2-1.4,2.8-4.3,3.3-7c0.3-1.5,0.6-3.1,1.2-4.5c0-0.1,0.2-0.1,0.4-0.2c0.3-0.1,0.7-0.2,0.9-0.7
		C669.5,62,669.8,60.2,669.6,59.2 M620.4,63.1c-1.2,2.6-1,6.1-0.5,8.7c-0.7-2-1.2-4.6-1.2-6.3c0.1-3.7,1.6-4.8,4.6-5.4
		C622.1,60.8,621,61.7,620.4,63.1 M648.8,62.2c-1,1.2-1.7,2.4-2,3.7c-0.2-1.6-0.2-3.2,0.8-4.1c0.6-0.6,2.1-1.1,3.9-1.6
		C650.4,60.9,649.4,61.6,648.8,62.2"/>
</g>
<g>
	<path fill="#010101" d="M1423,88.9c-0.4,1.4-4.5,2.7-8,1.7c-3.5-1.1-5.2-4.1-4.8-5.5c0.4-1.4,3.5,0.3,7,1.3
		C1420.8,87.4,1423.5,87.5,1423,88.9"/>
	<g>
		<path fill="#010101" d="M1423.2,101.2c-19.9,0-36.1-16.2-36.1-36.1c0-19.9,16.2-36.1,36.1-36.1s36.1,16.2,36.1,36.1
			S1443.1,101.2,1423.2,101.2L1423.2,101.2z M1423.2,33c-17.7,0-32.1,14.4-32.1,32.1c0,17.7,14.4,32.1,32.1,32.1
			c17.7,0,32.1-14.4,32.1-32.1C1455.3,47.4,1440.9,33,1423.2,33L1423.2,33z"/>
	</g>
	<path fill="#010101" d="M1450.8,59.2c0-0.1-0.1-0.2-0.2-0.3c-6.7-1.6-13.6-1.8-19.9-0.6c-0.9,0.2-1.8,0.4-2.7,0.6
		c-1.3,0.4-2.6,0.7-3.8,0.8c-2.4,0.2-4.2-0.3-6.1-0.8c-0.8-0.2-1.6-0.4-2.4-0.6c-3-0.6-6.3-0.9-9.6-0.9c-3.8,0-7.5,0.4-10.6,1.3
		c-0.1,0-0.2,0.2-0.2,0.3c0,1.3,0.1,2.4,0.3,3.4c0.1,0.4,0.5,0.6,0.7,0.7c0.1,0,0.2,0.1,0.2,0.1c0.8,0.6,1.1,2.3,1.3,3.8
		c0.1,0.6,0.2,1.2,0.3,1.7c0.8,3.3,2.1,5.3,4,6.4c1.2,0.7,3.1,1.1,5.2,1.1c4.4,0,9.6-1.8,11.5-5.8c1-1.3,2-4.3,3.1-5.5
		c0.1-0.1,0.5-0.3,1.1-0.3c0.6,0,1,0.1,1.2,0.2c0.7,1,1.1,1.9,1.5,2.8c0.5,1.1,1,2.1,1.9,3.3c3.4,4.4,7.7,5.4,10.7,5.4h0
		c1,0,4.5-0.1,6.4-1.3c2.2-1.4,2.8-4.3,3.3-7c0.3-1.5,0.6-3.1,1.2-4.5c0-0.1,0.2-0.1,0.4-0.2c0.3-0.1,0.7-0.2,0.9-0.7
		C1450.7,62,1451,60.2,1450.8,59.2 M1401.6,63.1c-1.2,2.6-1,6.1-0.5,8.7c-0.7-2-1.2-4.6-1.2-6.3c0.1-3.7,1.6-4.8,4.6-5.4
		C1403.3,60.8,1402.2,61.7,1401.6,63.1 M1430,62.2c-1,1.2-1.7,2.4-2,3.7c-0.2-1.6-0.2-3.2,0.8-4.1c0.6-0.6,2.1-1.1,3.9-1.6
		C1431.6,60.9,1430.6,61.6,1430,62.2"/>
</g>
<g>
	<path fill="#010101" d="M595.2-24.3h2.5v14.7h-2.5V-24.3z"/>
	<path fill="#010101" d="M601.3-21.9c-0.4-0.2-0.6-0.6-0.6-1s0.1-0.8,0.4-1c0.3-0.2,0.6-0.4,0.9-0.4c0.4,0,0.7,0.1,1,0.4
		c0.3,0.2,0.4,0.5,0.4,0.9c0,0.4-0.1,0.8-0.4,1.1l-1.2,1.8h-1.3L601.3-21.9z"/>
	<path fill="#010101" d="M608.4-15.7v6H606v-11.2h2.4v2c0.3-0.7,0.8-1.2,1.5-1.6c0.7-0.4,1.4-0.6,2.2-0.6c1.8,0,3,0.7,3.6,2.2
		c1.1-1.5,2.5-2.2,4.1-2.2c1.3,0,2.3,0.4,3.1,1.2c0.8,0.8,1.2,1.9,1.2,3.3v6.8h-2.4v-6.1c0-2.1-0.9-3.1-2.6-3.1
		c-0.8,0-1.5,0.3-2.1,0.8c-0.6,0.5-0.9,1.3-0.9,2.2v6.2h-2.4v-6.1c0-1.1-0.2-1.8-0.6-2.3c-0.4-0.5-1-0.7-1.8-0.7s-1.5,0.3-2.1,0.8
		C608.7-17.5,608.4-16.7,608.4-15.7z"/>
	<path fill="#010101" d="M643.4-20.8v9.7c0,2-0.5,3.5-1.6,4.4c-1.1,1-2.4,1.5-4.1,1.5c-1.7,0-3.2-0.5-4.6-1.6l1.1-1.8
		c1.1,0.8,2.2,1.2,3.3,1.2c1.1,0,2-0.3,2.6-0.9s1-1.5,1-2.8v-1.4c-0.3,0.7-0.9,1.2-1.5,1.6c-0.7,0.4-1.4,0.6-2.2,0.6
		c-1.5,0-2.7-0.5-3.7-1.6c-1-1-1.4-2.3-1.4-3.9s0.5-2.8,1.4-3.9c1-1,2.2-1.6,3.6-1.6c1.5,0,2.7,0.6,3.6,1.8v-1.7H643.4z M634.7-15.7
		c0,0.9,0.3,1.7,0.9,2.4c0.6,0.7,1.3,1,2.3,1c1,0,1.7-0.3,2.3-1c0.6-0.6,0.9-1.4,0.9-2.4c0-1-0.3-1.8-0.9-2.4s-1.4-1-2.3-1
		s-1.7,0.3-2.3,1C635-17.4,634.7-16.6,634.7-15.7z"/>
	<path fill="#010101" d="M656.1-11.1c-1.1,1.1-2.5,1.7-4.2,1.7c-1.7,0-3.1-0.6-4.2-1.7c-1.1-1.1-1.7-2.5-1.7-4.1
		c0-1.6,0.6-3,1.7-4.1c1.1-1.1,2.5-1.7,4.2-1.7c1.7,0,3.1,0.6,4.2,1.7s1.7,2.5,1.7,4.1S657.3-12.3,656.1-11.1z M649.4-12.6
		c0.7,0.7,1.5,1,2.5,1c1,0,1.9-0.3,2.5-1c0.7-0.7,1-1.6,1-2.6s-0.3-2-1-2.6c-0.7-0.7-1.5-1-2.5-1c-1,0-1.9,0.3-2.5,1
		c-0.7,0.7-1,1.6-1,2.6S648.7-13.3,649.4-12.6z"/>
	<path fill="#010101" d="M660.6-23c-0.3-0.3-0.4-0.6-0.4-1s0.1-0.8,0.4-1.1c0.3-0.3,0.6-0.4,1.1-0.4s0.8,0.1,1,0.4
		c0.3,0.3,0.4,0.6,0.4,1.1s-0.1,0.8-0.4,1s-0.6,0.4-1,0.4C661.3-22.6,660.9-22.7,660.6-23z M662.8-9.6h-2.4v-11.2h2.4V-9.6z"/>
	<path fill="#010101" d="M668.6-15.7v6h-2.4v-11.2h2.4v2c0.4-0.7,0.9-1.2,1.6-1.6c0.7-0.4,1.4-0.6,2.2-0.6c1.3,0,2.3,0.4,3.1,1.2
		c0.8,0.8,1.2,1.9,1.2,3.3v6.8h-2.4v-6.1c0-2.1-0.9-3.1-2.6-3.1c-0.8,0-1.5,0.3-2.1,0.8C668.9-17.5,668.6-16.7,668.6-15.7z"/>
	<path fill="#010101" d="M690.1-20.8v9.7c0,2-0.5,3.5-1.6,4.4c-1.1,1-2.4,1.5-4.1,1.5c-1.7,0-3.2-0.5-4.6-1.6l1.1-1.8
		c1.1,0.8,2.2,1.2,3.3,1.2s2-0.3,2.6-0.9c0.7-0.6,1-1.5,1-2.8v-1.4c-0.3,0.7-0.9,1.2-1.5,1.6c-0.7,0.4-1.4,0.6-2.2,0.6
		c-1.5,0-2.7-0.5-3.7-1.6c-1-1-1.4-2.3-1.4-3.9s0.5-2.8,1.4-3.9c1-1,2.2-1.6,3.6-1.6c1.5,0,2.7,0.6,3.6,1.8v-1.7H690.1z M681.4-15.7
		c0,0.9,0.3,1.7,0.9,2.4c0.6,0.7,1.3,1,2.3,1s1.7-0.3,2.3-1c0.6-0.6,0.9-1.4,0.9-2.4c0-1-0.3-1.8-0.9-2.4c-0.6-0.7-1.4-1-2.3-1
		c-1,0-1.7,0.3-2.3,1C681.7-17.4,681.4-16.6,681.4-15.7z"/>
	<path fill="#010101" d="M577.4,6.3v5.7c0,0.5,0.1,1,0.4,1.3c0.3,0.3,0.7,0.5,1.2,0.5c0.5,0,1-0.2,1.4-0.7l1,1.7
		c-0.8,0.7-1.7,1.1-2.7,1.1c-1,0-1.9-0.3-2.6-1c-0.7-0.7-1.1-1.6-1.1-2.8V6.3h-1.4V4.4h1.4V0.9h2.4v3.5h2.9v1.9L577.4,6.3L577.4,6.3
		z"/>
	<path fill="#010101" d="M592.5,14.1c-1.1,1.1-2.5,1.7-4.2,1.7s-3.1-0.6-4.2-1.7c-1.1-1.1-1.7-2.5-1.7-4.1c0-1.6,0.6-3,1.7-4.1
		c1.1-1.1,2.5-1.7,4.2-1.7s3.1,0.6,4.2,1.7c1.1,1.1,1.7,2.5,1.7,4.1S593.6,12.9,592.5,14.1z M585.8,12.6c0.7,0.7,1.5,1,2.5,1
		c1,0,1.9-0.3,2.5-1c0.7-0.7,1-1.6,1-2.6s-0.3-2-1-2.6c-0.7-0.7-1.5-1-2.5-1c-1,0-1.9,0.3-2.5,1c-0.7,0.7-1,1.6-1,2.6
		S585.1,11.9,585.8,12.6z"/>
	<path fill="#010101" d="M605,15.6h-2.4V0h2.4V15.6z"/>
	<path fill="#010101" d="M618.8,11H610c0.1,0.8,0.4,1.5,1.1,2c0.7,0.5,1.5,0.7,2.4,0.7c1.4,0,2.5-0.4,3.2-1.3l1.3,1.5
		c-1.2,1.2-2.8,1.9-4.7,1.9c-1.6,0-2.9-0.5-4-1.6c-1.1-1-1.6-2.4-1.6-4.2c0-1.8,0.6-3.2,1.7-4.2s2.4-1.6,4-1.6s2.8,0.5,3.9,1.4
		s1.6,2.2,1.6,3.8V11L618.8,11z M610,9.2h6.4c0-0.9-0.3-1.7-0.9-2.2c-0.6-0.5-1.3-0.8-2.2-0.8c-0.9,0-1.6,0.3-2.3,0.8
		C610.3,7.5,610,8.3,610,9.2z"/>
	<path fill="#010101" d="M630.4,15.6h-2.1v-1.5c-0.9,1.1-2.2,1.7-3.7,1.7c-1.2,0-2.1-0.3-2.9-1s-1.1-1.5-1.1-2.6
		c0-1.1,0.4-1.9,1.2-2.5c0.8-0.5,1.9-0.8,3.3-0.8h3V8.4c0-1.5-0.8-2.2-2.5-2.2c-1,0-2.1,0.4-3.2,1.1l-1-1.5c1.4-1.1,2.9-1.6,4.6-1.6
		c1.3,0,2.4,0.3,3.2,1c0.8,0.7,1.2,1.7,1.2,3.1V15.6z M628,11.4v-0.9h-2.6c-1.7,0-2.5,0.5-2.5,1.6c0,0.5,0.2,1,0.6,1.2
		c0.4,0.3,1,0.4,1.8,0.4c0.7,0,1.4-0.2,2-0.6C627.8,12.7,628,12.1,628,11.4z"/>
	<path fill="#010101" d="M639.5,6.6c-1.2,0-2,0.4-2.6,1.1s-0.9,1.8-0.9,3v4.8h-2.4V4.4h2.4v2.2c0.4-0.7,0.9-1.3,1.5-1.7
		s1.3-0.7,2.1-0.7l0,2.4C639.6,6.6,639.6,6.6,639.5,6.6z"/>
	<path fill="#010101" d="M644.4,9.5v6H642V4.4h2.4v2c0.4-0.7,0.9-1.2,1.6-1.6c0.7-0.4,1.4-0.6,2.2-0.6c1.3,0,2.3,0.4,3.1,1.2
		c0.8,0.8,1.2,1.9,1.2,3.3v6.8h-2.4V9.4c0-2.1-0.9-3.1-2.6-3.1c-0.8,0-1.5,0.3-2.1,0.8C644.7,7.7,644.4,8.5,644.4,9.5z"/>
	<path fill="#010101" d="M666.3,15.7c-1.6,0-2.9-0.5-4-1.6c-1.1-1.1-1.7-2.4-1.7-4.1s0.6-3.1,1.8-4.2c1.2-1.1,2.6-1.6,4.3-1.6
		c1.7,0,3.1,0.6,4.3,1.7l-1.4,1.7c-1-0.8-1.9-1.3-2.9-1.3c-1,0-1.8,0.3-2.6,1c-0.7,0.7-1.1,1.5-1.1,2.5s0.4,1.9,1.1,2.6
		s1.6,1.1,2.6,1.1c1,0,2-0.5,3-1.4l1.4,1.5C669.6,15,668.1,15.7,666.3,15.7z"/>
	<path fill="#010101" d="M682.5,14.1c-1.1,1.1-2.5,1.7-4.2,1.7s-3.1-0.6-4.2-1.7c-1.1-1.1-1.7-2.5-1.7-4.1c0-1.6,0.6-3,1.7-4.1
		c1.1-1.1,2.5-1.7,4.2-1.7s3.1,0.6,4.2,1.7c1.1,1.1,1.7,2.5,1.7,4.1S683.7,12.9,682.5,14.1z M675.8,12.6c0.7,0.7,1.5,1,2.5,1
		c1,0,1.9-0.3,2.5-1c0.7-0.7,1-1.6,1-2.6s-0.3-2-1-2.6c-0.7-0.7-1.5-1-2.5-1c-1,0-1.9,0.3-2.5,1c-0.7,0.7-1,1.6-1,2.6
		S675.1,11.9,675.8,12.6z"/>
	<path fill="#010101" d="M687.7,14.1c-1-1.1-1.6-2.5-1.6-4.2c0-1.7,0.5-3.1,1.6-4.2s2.4-1.6,3.9-1.6s2.7,0.6,3.6,1.9V0h2.4v15.6
		h-2.4v-1.7c-0.9,1.2-2.1,1.8-3.8,1.8C690,15.7,688.8,15.2,687.7,14.1z M688.5,10c0,1.1,0.3,1.9,1,2.6c0.7,0.7,1.5,1,2.4,1
		c0.9,0,1.7-0.3,2.4-1c0.6-0.7,1-1.5,1-2.6c0-1.1-0.3-2-1-2.7c-0.6-0.7-1.4-1.1-2.4-1.1c-0.9,0-1.7,0.4-2.4,1.1
		C688.9,8.1,688.5,9,688.5,10z"/>
	<path fill="#010101" d="M711.4,11h-8.8c0.1,0.8,0.4,1.5,1.1,2c0.7,0.5,1.5,0.7,2.4,0.7c1.4,0,2.5-0.4,3.2-1.3l1.3,1.5
		c-1.2,1.2-2.8,1.9-4.7,1.9c-1.6,0-2.9-0.5-4-1.6c-1.1-1-1.6-2.4-1.6-4.2c0-1.8,0.6-3.2,1.7-4.2c1.1-1,2.4-1.6,4-1.6
		c1.5,0,2.8,0.5,3.9,1.4s1.6,2.2,1.6,3.8L711.4,11L711.4,11z M702.6,9.2h6.4c0-0.9-0.3-1.7-0.9-2.2c-0.6-0.5-1.3-0.8-2.2-0.8
		s-1.6,0.3-2.3,0.8C703,7.5,702.6,8.3,702.6,9.2z"/>
</g>
<g>
	<path fill="#010101" d="M991.7-24.3h2.5v14.7h-2.5V-24.3z"/>
	<path fill="#010101" d="M1006.1-9.6h-2.4v-15.6h2.4v9.2l4.5-4.7h3l-4.2,4.4l4.6,6.7h-2.9l-3.3-4.9l-1.7,1.7L1006.1-9.6L1006.1-9.6z
		"/>
	<path fill="#010101" d="M1018.3-15.7v6h-2.4v-11.2h2.4v2c0.4-0.7,0.9-1.2,1.6-1.6c0.7-0.4,1.4-0.6,2.2-0.6c1.3,0,2.3,0.4,3.1,1.2
		c0.8,0.8,1.2,1.9,1.2,3.3v6.8h-2.4v-6.1c0-2.1-0.9-3.1-2.6-3.1c-0.8,0-1.5,0.3-2.1,0.8C1018.6-17.5,1018.3-16.7,1018.3-15.7z"/>
	<path fill="#010101" d="M1038.8-11.1c-1.1,1.1-2.5,1.7-4.2,1.7c-1.7,0-3.1-0.6-4.2-1.7s-1.7-2.5-1.7-4.1c0-1.6,0.6-3,1.7-4.1
		c1.1-1.1,2.5-1.7,4.2-1.7c1.7,0,3.1,0.6,4.2,1.7c1.1,1.1,1.7,2.5,1.7,4.1S1039.9-12.3,1038.8-11.1z M1032.1-12.6
		c0.7,0.7,1.5,1,2.5,1c1,0,1.9-0.3,2.5-1c0.7-0.7,1-1.6,1-2.6s-0.3-2-1-2.6c-0.7-0.7-1.5-1-2.5-1c-1,0-1.9,0.3-2.5,1
		c-0.7,0.7-1,1.6-1,2.6S1031.4-13.3,1032.1-12.6z"/>
	<path fill="#010101" d="M1048.3-9.6h-2.7l-3.9-11.2h2.4l2.8,8.4l2.8-8.4h2.4l2.8,8.4l2.8-8.4h2.4l-3.9,11.2h-2.7l-2.6-7.6
		L1048.3-9.6z"/>
</g>
<g>
	<path fill="#010101" d="M1197.9,255.3c0.6,0.6,0.9,1.4,0.9,2.4s-0.3,1.7-0.9,2.4c-0.6,0.7-1.4,1-2.3,1s-1.7-0.3-2.3-1
		c-0.6-0.6-0.9-1.4-0.9-2.4s0.3-1.7,0.9-2.4c0.6-0.7,1.4-1,2.3-1C1196.5,254.3,1197.3,254.6,1197.9,255.3z M1206.4,254.6l-10.8,14.7
		h-2.7l10.8-14.7H1206.4z M1196.5,258.7c0.2-0.3,0.3-0.6,0.3-1.1s-0.1-0.8-0.4-1.1c-0.2-0.3-0.5-0.4-0.9-0.4c-0.3,0-0.6,0.1-0.9,0.4
		c-0.2,0.3-0.3,0.6-0.3,1.1s0.1,0.8,0.4,1.1c0.2,0.3,0.5,0.4,0.9,0.4C1196,259.2,1196.3,259,1196.5,258.7z M1206.2,263.8
		c0.6,0.6,0.9,1.4,0.9,2.4c0,0.9-0.3,1.7-0.9,2.4c-0.6,0.7-1.4,1-2.3,1s-1.7-0.3-2.3-1c-0.6-0.6-0.9-1.4-0.9-2.4s0.3-1.7,0.9-2.4
		c0.6-0.7,1.4-1,2.3-1C1204.9,262.8,1205.6,263.1,1206.2,263.8z M1204.9,267.3c0.2-0.3,0.3-0.6,0.3-1.1s-0.1-0.8-0.4-1.1
		c-0.2-0.3-0.5-0.4-0.9-0.4c-0.3,0-0.6,0.1-0.9,0.4c-0.2,0.3-0.3,0.6-0.3,1.1s0.1,0.8,0.4,1.1c0.2,0.3,0.5,0.4,0.9,0.4
		C1204.4,267.7,1204.6,267.6,1204.9,267.3z"/>
	<path fill="#010101" d="M1217.4,272c-2.4,0-4.3-0.8-5.9-2.4c-1.6-1.6-2.4-3.5-2.4-5.9c0-2.4,0.8-4.4,2.5-6c1.7-1.7,3.7-2.5,6-2.5
		c2.4,0,4.3,0.8,6,2.5c1.6,1.7,2.4,3.7,2.4,6.1c0,1.5-0.3,2.7-0.9,3.7c-0.6,0.9-1.3,1.4-2.3,1.4c-0.7,0-1.2-0.2-1.6-0.7
		c-0.4-0.5-0.6-1.1-0.7-2c-0.8,1.8-2,2.7-3.8,2.7c-1.2,0-2.3-0.5-3.2-1.4c-0.9-1-1.4-2.2-1.4-3.7c0-1.5,0.4-2.7,1.3-3.7
		s2-1.5,3.4-1.5c0.6,0,1.3,0.2,1.8,0.5c0.6,0.3,1,0.7,1.2,1.2v-1.4h2v7.3c0,1,0.4,1.5,1.2,1.5c0.4,0,0.8-0.3,1.2-1
		c0.4-0.6,0.5-1.5,0.5-2.5c0-2.2-0.7-4.1-2-5.7c-1.4-1.6-3.1-2.3-5.2-2.3c-2.1,0-3.9,0.7-5.4,2.2c-1.5,1.5-2.2,3.3-2.2,5.4
		s0.7,3.8,2.1,5.2c1.4,1.4,3.2,2.1,5.2,2.1c1.7,0,3-0.4,3.9-1.3l0.5,0.8c-0.5,0.4-1.1,0.8-2,1C1219,271.8,1218.2,272,1217.4,272z
		 M1220.1,263.7c0-0.9-0.3-1.6-0.8-2.2c-0.5-0.6-1.2-0.9-2.1-0.9c-0.9,0-1.5,0.3-2.1,0.9c-0.5,0.6-0.8,1.3-0.8,2.2s0.3,1.6,0.8,2.3
		c0.5,0.6,1.2,1,2.1,1c0.9,0,1.6-0.3,2.1-1C1219.9,265.3,1220.1,264.6,1220.1,263.7z"/>
	<path fill="#010101" d="M1241.1,260.2h-2.3l-0.6,3.5h2.6l-0.5,2.3h-2.5l-0.6,3.4h-2.3l0.6-3.4h-3.1l-0.6,3.4h-2.4l0.6-3.4h-2.2
		l0.5-2.3h2.1l0.6-3.5h-2.4l0.5-2.3h2.3l0.6-3.6h2.3l-0.6,3.6h3.1l0.6-3.6h2.4l-0.6,3.6h2.4L1241.1,260.2z M1236.5,260.2h-3.1
		l-0.6,3.5h3.1L1236.5,260.2z"/>
	<path fill="#010101" d="M1248.4,270.8v-1.5c-1.9-0.2-3.6-1-5.2-2.3l1.5-1.8c1.2,1,2.4,1.6,3.6,1.8v-4.1c-1.6-0.4-2.7-0.9-3.5-1.5
		c-0.7-0.6-1.1-1.5-1.1-2.7s0.4-2.2,1.3-3c0.8-0.8,1.9-1.2,3.3-1.3v-1.1h1.3v1.1c1.5,0.1,3,0.6,4.4,1.6l-1.4,1.9
		c-0.9-0.7-1.9-1.1-3-1.2v3.9h0.1c1.6,0.4,2.8,0.9,3.6,1.5c0.8,0.6,1.1,1.6,1.1,2.8c0,1.2-0.4,2.2-1.3,3c-0.9,0.8-2,1.2-3.4,1.3v1.5
		L1248.4,270.8L1248.4,270.8z M1246.9,257.3c-0.4,0.3-0.5,0.7-0.5,1.2s0.1,0.8,0.4,1.1c0.3,0.3,0.8,0.5,1.6,0.8v-3.6
		C1247.8,256.8,1247.3,257,1246.9,257.3z M1251.3,266.5c0.4-0.3,0.6-0.7,0.6-1.2c0-0.5-0.2-0.9-0.5-1.2c-0.3-0.3-0.9-0.6-1.7-0.8
		v3.8C1250.4,267,1251,266.8,1251.3,266.5z"/>
</g>
<g>
	<path fill="#010101" d="M448.8,117.8h2.8v12.6h-2.8l-6-7.9v7.9H440v-12.6h2.6l6.2,8.1V117.8z"/>
	<path fill="#010101" d="M462.8,129c-1.1,1-2.4,1.5-3.8,1.5s-2.7-0.5-3.6-1.4c-1-0.9-1.4-2.1-1.4-3.6c0-1.5,0.5-2.7,1.5-3.6
		c1-0.9,2.1-1.4,3.5-1.4s2.5,0.4,3.4,1.2c0.9,0.8,1.4,1.9,1.4,3.3v1.4h-7.1c0.1,0.5,0.4,1,0.8,1.3s1,0.5,1.6,0.5
		c0.9,0,1.7-0.3,2.3-1L462.8,129z M460.2,123.3c-0.4-0.3-0.8-0.5-1.4-0.5c-0.5,0-1,0.2-1.5,0.5c-0.4,0.3-0.7,0.8-0.8,1.3h4.2
		C460.8,124,460.6,123.6,460.2,123.3z"/>
	<path fill="#010101" d="M471.8,125.9v-5.2h2.7v9.7h-2.7v-1.3c-0.7,0.9-1.5,1.4-2.6,1.4c-1.1,0-2-0.3-2.7-1s-1.1-1.7-1.1-3v-5.9h2.7
		v5.3c0,1.5,0.5,2.2,1.6,2.2c0.5,0,1-0.2,1.4-0.6S471.8,126.7,471.8,125.9z"/>
	<path fill="#010101" d="M480.3,122.7v4.3c0,0.4,0.1,0.7,0.3,0.9c0.2,0.2,0.4,0.3,0.7,0.3c0.5,0,0.9-0.2,1.3-0.7l1,1.9
		c-0.8,0.8-1.7,1.2-2.7,1.2s-1.7-0.3-2.4-0.9s-1-1.4-1-2.5v-4.5h-1.1v-1.9h1.1v-2.9h2.7v2.9h2.3v1.9L480.3,122.7L480.3,122.7z"/>
	<path fill="#010101" d="M490.1,123.1c-0.8,0-1.4,0.3-1.8,0.9c-0.4,0.6-0.6,1.3-0.6,2.3v4.2H485v-9.7h2.7v1.3c0.3-0.4,0.8-0.7,1.3-1
		c0.5-0.3,1.1-0.4,1.6-0.4l0,2.5L490.1,123.1L490.1,123.1z"/>
	<path fill="#010101" d="M500.5,130.4H498v-1.2c-0.7,0.9-1.6,1.3-2.6,1.3s-1.9-0.3-2.6-0.9c-0.7-0.6-1-1.4-1-2.4s0.4-1.7,1.1-2.2
		c0.7-0.5,1.7-0.7,3-0.7h2v-0.1c0-1-0.5-1.5-1.6-1.5c-0.5,0-1,0.1-1.5,0.3c-0.5,0.2-1,0.4-1.3,0.7l-1.2-1.7c1.3-0.9,2.7-1.4,4.4-1.4
		c1.2,0,2.1,0.3,2.9,0.9s1.1,1.5,1.1,2.8V130.4z M497.8,126.7v-0.5h-1.7c-1.1,0-1.6,0.3-1.6,1c0,0.3,0.1,0.6,0.4,0.8
		c0.3,0.2,0.6,0.3,1.1,0.3c0.5,0,0.9-0.1,1.3-0.4C497.6,127.6,497.8,127.2,497.8,126.7z"/>
	<path fill="#010101" d="M505.7,130.4H503v-13.4h2.7V130.4z"/>
	<path fill="#010101" d="M508.5,119.5c-0.3-0.3-0.5-0.7-0.5-1.1c0-0.4,0.2-0.8,0.5-1.1c0.3-0.3,0.7-0.5,1.1-0.5s0.8,0.2,1.1,0.5
		c0.3,0.3,0.5,0.7,0.5,1.1c0,0.4-0.2,0.8-0.5,1.1c-0.3,0.3-0.7,0.5-1.1,0.5S508.8,119.8,508.5,119.5z M511,130.4h-2.7v-9.7h2.7
		V130.4z"/>
	<path fill="#010101" d="M516.7,122.7v4.3c0,0.4,0.1,0.7,0.3,0.9c0.2,0.2,0.4,0.3,0.7,0.3c0.5,0,0.9-0.2,1.3-0.7l1,1.9
		c-0.8,0.8-1.7,1.2-2.7,1.2s-1.7-0.3-2.4-0.9c-0.6-0.6-1-1.4-1-2.5v-4.5h-1.1v-1.9h1.1v-2.9h2.7v2.9h2.3v1.9L516.7,122.7
		L516.7,122.7z"/>
	<path fill="#010101" d="M523.1,134.2c-0.9,0-1.8-0.4-2.7-1.2l1.2-2c0.5,0.4,0.9,0.7,1.4,0.7c0.3,0,0.5-0.1,0.6-0.4
		c0.2-0.2,0.3-0.5,0.3-0.8s-1.2-3.6-3.7-9.9h2.9l2.4,6l2.4-6h2.9l-4.5,11.4c-0.3,0.7-0.7,1.2-1.2,1.5
		C524.4,134,523.8,134.2,523.1,134.2z"/>
	<path fill="#010101" d="M454.5,147.2c0,1.4-0.5,2.6-1.5,3.5c-1,1-2.2,1.4-3.7,1.4s-2.7-0.5-3.7-1.4c-1-1-1.5-2.1-1.5-3.5
		c0-1.4,0.5-2.6,1.5-3.6c1-1,2.2-1.4,3.7-1.4s2.7,0.5,3.7,1.4C454,144.6,454.5,145.8,454.5,147.2z M446.9,147.2
		c0,0.8,0.2,1.4,0.7,1.9c0.4,0.5,1,0.7,1.7,0.7s1.3-0.2,1.7-0.7c0.4-0.5,0.7-1.1,0.7-1.9c0-0.8-0.2-1.4-0.7-1.9
		c-0.5-0.5-1-0.8-1.7-0.8s-1.3,0.3-1.7,0.8C447.2,145.7,446.9,146.4,446.9,147.2z"/>
	<path fill="#010101" d="M458.8,152l-3.8-9.7h2.8l2.4,6.1l2.4-6.1h2.8l-3.8,9.7H458.8z"/>
	<path fill="#010101" d="M475.2,150.6c-1.1,1-2.4,1.5-3.8,1.5s-2.7-0.5-3.6-1.4c-1-0.9-1.4-2.1-1.4-3.6c0-1.5,0.5-2.7,1.5-3.6
		s2.1-1.4,3.5-1.4s2.5,0.4,3.4,1.2c0.9,0.8,1.4,1.9,1.4,3.3v1.4h-7.1c0.1,0.5,0.4,1,0.8,1.3c0.5,0.3,1,0.5,1.6,0.5
		c0.9,0,1.7-0.3,2.3-1L475.2,150.6z M472.6,144.9c-0.4-0.3-0.8-0.5-1.4-0.5s-1,0.2-1.5,0.5c-0.4,0.3-0.7,0.8-0.8,1.3h4.2
		C473.2,145.6,473,145.2,472.6,144.9z"/>
	<path fill="#010101" d="M483,144.7c-0.8,0-1.4,0.3-1.8,0.9c-0.4,0.6-0.6,1.3-0.6,2.3v4.2h-2.7v-9.7h2.7v1.3c0.3-0.4,0.8-0.7,1.3-1
		c0.5-0.3,1.1-0.4,1.6-0.4l0,2.5L483,144.7L483,144.7z"/>
	<path fill="#010101" d="M493.3,144.3v4.3c0,0.4,0.1,0.7,0.3,0.9c0.2,0.2,0.4,0.3,0.7,0.3c0.5,0,0.9-0.2,1.3-0.7l1,1.9
		c-0.8,0.8-1.7,1.1-2.7,1.1s-1.7-0.3-2.4-0.9c-0.6-0.6-1-1.4-1-2.5v-4.5h-1.1v-1.9h1.1v-2.9h2.7v2.9h2.3v1.9L493.3,144.3
		L493.3,144.3z"/>
	<path fill="#010101" d="M498.2,141.1c-0.3-0.3-0.5-0.7-0.5-1.1c0-0.4,0.2-0.8,0.5-1.1c0.3-0.3,0.7-0.5,1.1-0.5s0.8,0.2,1.1,0.5
		c0.3,0.3,0.5,0.7,0.5,1.1c0,0.4-0.2,0.8-0.5,1.1c-0.3,0.3-0.7,0.5-1.1,0.5S498.5,141.4,498.2,141.1z M500.7,152H498v-9.7h2.7V152z"
		/>
	<path fill="#010101" d="M512.1,146.8v5.2h-2.7v-5.3c0-0.8-0.1-1.3-0.4-1.7c-0.2-0.4-0.6-0.5-1.1-0.5s-1,0.2-1.4,0.6
		c-0.4,0.4-0.6,1-0.6,1.7v5.2h-2.7v-9.7h2.7v1.1c0.7-0.8,1.6-1.3,2.6-1.3c0.6,0,1.2,0.2,1.7,0.5c0.5,0.4,0.9,0.8,1.1,1.3
		c0.4-0.6,0.9-1,1.5-1.4c0.6-0.3,1.3-0.5,1.9-0.5c1.1,0,2.1,0.3,2.8,1c0.7,0.7,1,1.7,1,2.9v5.9h-2.7v-5.3c0-1.5-0.5-2.2-1.6-2.2
		c-0.5,0-1,0.2-1.4,0.6C512.3,145.5,512.1,146,512.1,146.8z"/>
	<path fill="#010101" d="M529.3,150.6c-1.1,1-2.4,1.5-3.8,1.5c-1.5,0-2.7-0.5-3.6-1.4c-1-0.9-1.4-2.1-1.4-3.6c0-1.5,0.5-2.7,1.5-3.6
		s2.1-1.4,3.5-1.4c1.3,0,2.5,0.4,3.4,1.2c0.9,0.8,1.4,1.9,1.4,3.3v1.4h-7.1c0.1,0.5,0.4,1,0.8,1.3c0.5,0.3,1,0.5,1.6,0.5
		c0.9,0,1.7-0.3,2.3-1L529.3,150.6z M526.7,144.9c-0.4-0.3-0.8-0.5-1.4-0.5s-1,0.2-1.5,0.5c-0.4,0.3-0.7,0.8-0.8,1.3h4.2
		C527.3,145.6,527.1,145.2,526.7,144.9z"/>
</g>
<line fill="none" stroke="#000000" stroke-width="5" x1="543.5" y1="134.5" x2="1621.8" y2="134.5"/>
<path fill="none" stroke="#F64634" stroke-width="5" d="M542.6,135.2c1.4-0.7,2.7-1.3,4.1-2c27.5-13.4,58.7-24.2,92.4-24.2h6.4
	c33.7,0,64.9,10.8,92.4,24.2l4.1,2c27.5,13.4,58.7,24.2,92.4,24.2h6.4c33.7,0,64.9-10.8,92.4-24.2l4.1-2
	c27.5-13.4,58.7-24.2,92.4-24.2h6.4c33.7,0,64.9,10.8,92.4,24.2l4.1,2c27.5,13.4,58.7,24.2,92.4,24.2h6.4
	c33.7,0,64.9-10.8,92.4-24.2l4.1-2c27.5-13.4,58.7-24.2,92.4-24.2h6.4c33.7,0,64.9,10.8,92.4,24.2l4.1,2
	c27.5,13.4,58.7,24.2,92.4,24.2h6.4"/>
<polygon fill="#F64634" points="1615.7,153.1 1630.6,159.4 1615.7,165.6 "/>
<polygon points="1616.1,128.3 1631,134.5 1616.1,140.8 "/>
<g>
	<path fill="#231F20" d="M786.8,265.1c0,3-1.7,4.6-4.6,4.6c-1.8,0-3.2-0.8-4.3-2.1l1.2-1.9c1,1,2.1,1.6,3.1,1.6
		c1.3,0,2.1-0.8,2.1-2.3v-7.9h-5.1V255h7.6V265.1z"/>
	<path fill="#231F20" d="M796.9,268.3c-0.8,1-2.1,1.5-3.7,1.5c-2.4,0-3.9-1.5-3.9-3.5c0-2,1.5-3.3,4.2-3.4h3.4v-0.3
		c0-1.4-0.9-2.2-2.7-2.2c-1.1,0-2.2,0.4-3.3,1.1l-1-1.7c1.6-0.9,2.7-1.4,4.8-1.4c2.9,0,4.5,1.5,4.5,3.9l0,7.3h-2.4V268.3z
		 M796.8,265.7v-1h-3c-1.6,0-2.3,0.4-2.3,1.5c0,1,0.8,1.7,2.2,1.7C795.4,267.9,796.7,267,796.8,265.7z"/>
	<path fill="#231F20" d="M804.7,269.7l-4.3-11.2h2.5l3.1,8.8l3.1-8.8h2.4l-4.3,11.2H804.7z"/>
	<path fill="#231F20" d="M819.5,268.3c-0.8,1-2.1,1.5-3.7,1.5c-2.4,0-3.9-1.5-3.9-3.5c0-2,1.5-3.3,4.2-3.4h3.4v-0.3
		c0-1.4-0.9-2.2-2.7-2.2c-1.1,0-2.2,0.4-3.3,1.1l-1-1.7c1.6-0.9,2.7-1.4,4.8-1.4c2.9,0,4.5,1.5,4.5,3.9l0,7.3h-2.4V268.3z
		 M819.5,265.7v-1h-3c-1.6,0-2.3,0.4-2.3,1.5c0,1,0.8,1.7,2.2,1.7C818.1,267.9,819.4,267,819.5,265.7z"/>
	<path fill="#231F20" d="M835.3,256.4l-1,2.2c-1.6-1-3.2-1.4-4.3-1.4c-1.4,0-2.4,0.5-2.4,1.5c0,3.2,7.9,1.5,7.9,6.8
		c0,2.6-2.3,4.2-5.5,4.2c-2.3,0-4.5-0.9-6-2.3l1.1-2.1c1.5,1.4,3.4,2.1,5,2.1c1.7,0,2.8-0.7,2.8-1.8c0-3.3-7.9-1.4-7.9-6.7
		c0-2.5,2.2-4.1,5.4-4.1C832,254.9,833.9,255.5,835.3,256.4z"/>
	<path fill="#231F20" d="M847.4,260.2l-1.3,1.6c-0.8-0.8-1.8-1.3-3.2-1.3c-1.9,0-3.3,1.4-3.3,3.6c0,2.1,1.4,3.6,3.3,3.6
		c1.4,0,2.5-0.5,3.3-1.3l1.3,1.3c-1,1.3-2.6,2.1-4.7,2.1c-3.3,0-5.6-2.3-5.6-5.6c0-3.4,2.3-5.7,5.6-5.7
		C844.8,258.4,846.4,259.1,847.4,260.2z"/>
	<path fill="#231F20" d="M852.5,260.7c0.8-1.5,2.1-2.3,3.9-2.3v2.3c-2.2-0.1-3.7,1.2-3.9,3.1v5.8h-2.4v-11.2h2.4V260.7z"/>
	<path fill="#231F20" d="M860.9,255.3c0,0.8-0.6,1.4-1.4,1.4s-1.4-0.6-1.4-1.4c0-0.9,0.6-1.5,1.4-1.5S860.9,254.4,860.9,255.3z
		 M858.3,269.7v-11.2h2.4v11.2H858.3z"/>
	<path fill="#231F20" d="M876,264.1c0,3.3-2.1,5.6-5.3,5.6c-1.8,0-3.1-0.7-3.9-2v6h-2.4v-15.2h2.4v1.9c0.8-1.3,2.2-2,3.9-2
		C873.9,258.4,876,260.7,876,264.1z M873.6,264c0-2.1-1.4-3.6-3.4-3.6c-2,0-3.4,1.5-3.4,3.6c0,2.2,1.4,3.7,3.4,3.7
		C872.2,267.7,873.6,266.2,873.6,264z"/>
	<path fill="#231F20" d="M884.9,269c-0.9,0.5-1.8,0.8-2.8,0.8c-1.7,0-3.1-1-3.1-3.3v-5.8h-1.6v-1.8h1.6v-3.1h2.4v3.1h3.3v1.8h-3.3
		v5.4c0,1.2,0.4,1.5,1.2,1.5c0.5,0,1-0.2,1.7-0.5L884.9,269z"/>
	<path fill="#231F20" d="M800.9,280.5c0,0.8-0.6,1.4-1.4,1.4s-1.4-0.6-1.4-1.4c0-0.9,0.6-1.5,1.4-1.5S800.9,279.6,800.9,280.5z
		 M798.3,294.9v-11.2h2.4v11.2H798.3z"/>
	<path fill="#231F20" d="M811.5,284.7l-0.9,1.8c-1-0.6-2.2-1-3.2-1c-0.9,0-1.6,0.3-1.6,1.1c0,2.1,5.9,0.9,5.9,5c0,2.3-2,3.3-4.3,3.3
		c-1.6,0-3.4-0.5-4.5-1.6l0.9-1.7c1,0.9,2.5,1.4,3.7,1.4c1,0,1.8-0.4,1.8-1.2c0-2.3-5.9-1-5.9-5c0-2.3,2-3.2,4.1-3.2
		C809,283.6,810.5,284,811.5,284.7z"/>
	<path fill="#231F20" d="M830.4,287.9v7h-2.4v-6.3c0-1.7-1-2.7-2.7-2.7c-2,0-3.2,1.5-3.2,3.5v5.5h-2.4v-15.6h2.4v6.6
		c0.8-1.6,2.2-2.3,4.1-2.3C828.8,283.6,830.4,285.3,830.4,287.9z"/>
	<path fill="#231F20" d="M840.3,293.5c-0.8,1-2.1,1.5-3.7,1.5c-2.4,0-3.9-1.5-3.9-3.5c0-2,1.5-3.3,4.2-3.4h3.4v-0.3
		c0-1.4-0.9-2.2-2.7-2.2c-1.1,0-2.2,0.4-3.3,1.1l-1-1.7c1.6-0.9,2.7-1.4,4.8-1.4c2.9,0,4.5,1.5,4.5,3.9l0,7.3h-2.4V293.5z
		 M840.3,290.9v-1h-3c-1.6,0-2.3,0.4-2.3,1.5c0,1,0.8,1.7,2.2,1.7C838.8,293.1,840.2,292.2,840.3,290.9z"/>
	<path fill="#231F20" d="M848.3,285.9c0.8-1.5,2.1-2.3,3.9-2.3v2.3c-2.2-0.1-3.7,1.2-3.9,3.1v5.8h-2.4v-11.2h2.4V285.9z"/>
	<path fill="#231F20" d="M864.8,294.9h-2.4V293c-0.8,1.3-2.1,2-3.9,2c-3.2,0-5.4-2.3-5.4-5.7c0-3.4,2.2-5.6,5.3-5.6
		c1.8,0,3.1,0.7,4,2v-6.3h2.4V294.9z M862.4,289.3c0-2.2-1.4-3.7-3.4-3.7s-3.4,1.5-3.4,3.7c0,2.1,1.4,3.6,3.4,3.6
		C861,293,862.4,291.4,862.4,289.3z"/>
</g>
<g>
	<path fill="#231F20" d="M971.8,6.3l-1.3,1.6c-0.8-0.8-1.8-1.3-3.2-1.3c-1.9,0-3.3,1.4-3.3,3.6c0,2.1,1.4,3.6,3.3,3.6
		c1.4,0,2.5-0.5,3.3-1.3l1.3,1.3c-1,1.3-2.6,2.1-4.7,2.1c-3.3,0-5.6-2.3-5.6-5.6c0-3.4,2.3-5.7,5.6-5.7
		C969.2,4.5,970.8,5.1,971.8,6.3z"/>
	<path fill="#231F20" d="M984.6,10.1c0,3.4-2.4,5.7-5.8,5.7c-3.5,0-5.8-2.3-5.8-5.7c0-3.4,2.4-5.7,5.8-5.7
		C982.2,4.5,984.6,6.8,984.6,10.1z M975.4,10.2c0,2.2,1.4,3.6,3.4,3.6c2,0,3.4-1.5,3.4-3.6c0-2.1-1.4-3.6-3.4-3.6
		C976.8,6.6,975.4,8,975.4,10.2z"/>
	<path fill="#231F20" d="M997.8,8.8v6.9h-2.4V9.4c0-1.7-1-2.7-2.7-2.7c-1.8,0-3,1.3-3.2,3v5.9h-2.4V4.6h2.4v2.1
		c0.8-1.6,2.2-2.2,4.1-2.2C996.3,4.5,997.8,6.1,997.8,8.8z"/>
	<path fill="#231F20" d="M1011.7,15.7h-2.4v-1.9c-0.8,1.3-2.1,2-3.9,2c-3.2,0-5.4-2.3-5.4-5.7c0-3.4,2.2-5.6,5.3-5.6
		c1.8,0,3.1,0.7,4,2V0.1h2.4V15.7z M1009.3,10.2c0-2.2-1.4-3.7-3.4-3.7s-3.4,1.5-3.4,3.7c0,2.1,1.4,3.6,3.4,3.6
		C1007.9,13.8,1009.3,12.3,1009.3,10.2z"/>
	<path fill="#231F20" d="M1018,1.4c0,0.8-0.6,1.4-1.4,1.4s-1.4-0.6-1.4-1.4c0-0.9,0.6-1.5,1.4-1.5S1018,0.5,1018,1.4z M1015.4,15.7
		V4.6h2.4v11.2H1015.4z"/>
	<path fill="#231F20" d="M1027.7,15c-0.9,0.5-1.8,0.8-2.8,0.8c-1.7,0-3.1-1-3.1-3.3V6.8h-1.6V5h1.6V1.9h2.4V5h3.3v1.8h-3.3v5.4
		c0,1.2,0.4,1.5,1.2,1.5c0.5,0,1-0.2,1.7-0.5L1027.7,15z"/>
	<path fill="#231F20" d="M1032.5,1.4c0,0.8-0.6,1.4-1.4,1.4s-1.4-0.6-1.4-1.4c0-0.9,0.6-1.5,1.4-1.5S1032.5,0.5,1032.5,1.4z
		 M1029.9,15.7V4.6h2.4v11.2H1029.9z"/>
	<path fill="#231F20" d="M1046.5,10.1c0,3.4-2.4,5.7-5.8,5.7c-3.5,0-5.8-2.3-5.8-5.7c0-3.4,2.4-5.7,5.8-5.7
		C1044.1,4.5,1046.5,6.8,1046.5,10.1z M1037.2,10.2c0,2.2,1.4,3.6,3.4,3.6c2,0,3.4-1.5,3.4-3.6c0-2.1-1.4-3.6-3.4-3.6
		C1038.6,6.6,1037.2,8,1037.2,10.2z"/>
	<path fill="#231F20" d="M1059.7,8.8v6.9h-2.4V9.4c0-1.7-1-2.7-2.7-2.7c-1.8,0-3,1.3-3.2,3v5.9h-2.4V4.6h2.4v2.1
		c0.8-1.6,2.2-2.2,4.1-2.2C1058.1,4.5,1059.7,6.1,1059.7,8.8z"/>
	<path fill="#231F20" d="M1069.6,14.4c-0.8,1-2.1,1.5-3.7,1.5c-2.4,0-3.9-1.5-3.9-3.5c0-2,1.5-3.3,4.2-3.4h3.4V8.7
		c0-1.4-0.9-2.2-2.7-2.2c-1.1,0-2.2,0.4-3.3,1.1l-1-1.7c1.6-0.9,2.7-1.4,4.8-1.4c2.9,0,4.5,1.5,4.5,3.9l0,7.3h-2.4V14.4z
		 M1069.6,11.8v-1h-3c-1.6,0-2.3,0.4-2.3,1.5c0,1,0.8,1.7,2.2,1.7C1068.1,13.9,1069.5,13,1069.6,11.8z"/>
	<path fill="#231F20" d="M1075.3,15.7V0.1h2.4v15.6H1075.3z"/>
	<path fill="#231F20" d="M1088.6,5.6l-0.9,1.8c-1-0.6-2.2-1-3.2-1c-0.9,0-1.6,0.3-1.6,1.1c0,2.1,5.9,0.9,5.9,5c0,2.3-2,3.3-4.3,3.3
		c-1.6,0-3.4-0.5-4.5-1.6l0.9-1.7c1,0.9,2.5,1.4,3.7,1.4c1,0,1.8-0.4,1.8-1.2c0-2.3-5.9-1-5.9-5c0-2.3,2-3.2,4.1-3.2
		C1086.1,4.5,1087.6,4.9,1088.6,5.6z"/>
</g>
<g>
	<path fill="#231F20" d="M1179.5,282.6v1.3h2.9v1.8h-2.9v8.9h-2.4v-8.9h-1.5v-1.8h1.5v-1.1c0-2.6,1.9-3.8,3.8-3.8
		c0.9,0,1.8,0.3,2.5,0.8l-0.9,1.8c-0.5-0.3-1-0.5-1.5-0.5C1180.2,281.1,1179.5,281.6,1179.5,282.6z"/>
	<path fill="#231F20" d="M1194.2,294.7h-2.4v-2.2c-0.8,1.6-2.2,2.2-4,2.3c-2.6,0-4.1-1.6-4.1-4.3v-6.9h2.4v6.3c0,1.7,1,2.7,2.6,2.7
		c1.9,0,3.1-1.5,3.1-3.5v-5.5h2.4V294.7z"/>
	<path fill="#231F20" d="M1208.5,287.7v6.9h-2.4v-6.3c0-1.7-1-2.7-2.7-2.7c-1.8,0-3,1.3-3.2,3v5.9h-2.4v-11.2h2.4v2.1
		c0.8-1.6,2.2-2.2,4.1-2.2C1206.9,283.4,1208.5,285.1,1208.5,287.7z"/>
	<path fill="#231F20" d="M1220.9,285.3l-1.3,1.6c-0.8-0.8-1.8-1.3-3.2-1.3c-1.9,0-3.3,1.4-3.3,3.6c0,2.1,1.4,3.6,3.3,3.6
		c1.4,0,2.5-0.5,3.3-1.3l1.3,1.3c-1,1.3-2.6,2.1-4.7,2.1c-3.3,0-5.6-2.3-5.6-5.6c0-3.4,2.3-5.7,5.6-5.7
		C1218.3,283.4,1219.9,284.1,1220.9,285.3z"/>
	<path fill="#231F20" d="M1229.9,294c-0.9,0.5-1.8,0.8-2.8,0.8c-1.7,0-3.1-1-3.1-3.3v-5.8h-1.6v-1.8h1.6v-3.1h2.4v3.1h3.3v1.8h-3.3
		v5.4c0,1.2,0.4,1.5,1.2,1.5c0.5,0,1-0.2,1.7-0.5L1229.9,294z"/>
	<path fill="#231F20" d="M1234.7,280.3c0,0.8-0.6,1.4-1.4,1.4s-1.4-0.6-1.4-1.4c0-0.9,0.6-1.5,1.4-1.5S1234.7,279.5,1234.7,280.3z
		 M1232.1,294.7v-11.2h2.4v11.2H1232.1z"/>
	<path fill="#231F20" d="M1248.7,289.1c0,3.4-2.4,5.7-5.8,5.7c-3.5,0-5.8-2.3-5.8-5.7c0-3.4,2.4-5.7,5.8-5.7
		C1246.3,283.4,1248.7,285.7,1248.7,289.1z M1239.4,289.1c0,2.2,1.4,3.6,3.4,3.6c2,0,3.4-1.5,3.4-3.6c0-2.1-1.4-3.6-3.4-3.6
		C1240.8,285.5,1239.4,287,1239.4,289.1z"/>
	<path fill="#231F20" d="M1261.9,287.7v6.9h-2.4v-6.3c0-1.7-1-2.7-2.7-2.7c-1.8,0-3,1.3-3.2,3v5.9h-2.4v-11.2h2.4v2.1
		c0.8-1.6,2.2-2.2,4.1-2.2C1260.3,283.4,1261.9,285.1,1261.9,287.7z"/>
	<path fill="#231F20" d="M1272.3,284.5l-0.9,1.8c-1-0.6-2.2-1-3.2-1c-0.9,0-1.6,0.3-1.6,1.1c0,2.1,5.9,0.9,5.9,5
		c0,2.3-2,3.3-4.3,3.3c-1.6,0-3.4-0.5-4.5-1.6l0.9-1.7c1,0.9,2.5,1.4,3.7,1.4c1,0,1.8-0.4,1.8-1.2c0-2.3-5.9-1-5.9-5
		c0-2.3,2-3.2,4.1-3.2C1269.8,283.4,1271.3,283.8,1272.3,284.5z"/>
</g>
<g>
	<path fill="#231F20" d="M1377.1-9.4l0-11l-4.6,9.4h-1.6l-4.6-9.4v11h-2.3v-14.7h2.9l4.9,9.8l4.8-9.8h2.9v14.7H1377.1z"/>
	<path fill="#231F20" d="M1387.5-7.9c-0.7,1.8-2,2.6-3.6,2.6c-1,0-1.8-0.3-2.6-0.9l1-1.9c0.5,0.4,0.9,0.5,1.4,0.5
		c0.7,0,1.3-0.4,1.7-1.2l0.4-0.8l-4.6-11h2.5l3.3,8.5l3.1-8.5h2.4L1387.5-7.9z"/>
	<path fill="#231F20" d="M1407-19.5l-0.9,1.8c-1-0.6-2.2-1-3.2-1c-0.9,0-1.6,0.3-1.6,1.1c0,2.1,5.9,0.9,5.9,5c0,2.3-2,3.3-4.3,3.3
		c-1.6,0-3.4-0.5-4.5-1.6l0.9-1.7c1,0.9,2.5,1.4,3.7,1.4c1,0,1.8-0.4,1.8-1.2c0-2.3-5.9-1-5.9-5c0-2.3,2-3.2,4.1-3.2
		C1404.5-20.7,1405.9-20.2,1407-19.5z"/>
	<path fill="#231F20" d="M1418.8-18.8l-1.3,1.6c-0.8-0.8-1.8-1.3-3.2-1.3c-1.9,0-3.3,1.4-3.3,3.6c0,2.1,1.4,3.6,3.3,3.6
		c1.4,0,2.5-0.5,3.3-1.3l1.3,1.3c-1,1.3-2.6,2.1-4.7,2.1c-3.3,0-5.6-2.3-5.6-5.6c0-3.4,2.3-5.7,5.6-5.7
		C1416.2-20.6,1417.7-20,1418.8-18.8z"/>
	<path fill="#231F20" d="M1431.6-15c0,3.4-2.4,5.7-5.8,5.7c-3.5,0-5.8-2.3-5.8-5.7c0-3.4,2.4-5.7,5.8-5.7
		C1429.2-20.6,1431.6-18.4,1431.6-15z M1422.3-15c0,2.2,1.4,3.6,3.4,3.6c2,0,3.4-1.5,3.4-3.6c0-2.1-1.4-3.6-3.4-3.6
		C1423.8-18.6,1422.3-17.1,1422.3-15z"/>
	<path fill="#231F20" d="M1445.9-14.9c0,3.3-2.1,5.6-5.3,5.6c-1.8,0-3.1-0.7-3.9-2v6h-2.4v-15.2h2.4v1.9c0.8-1.3,2.2-2,3.9-2
		C1443.7-20.6,1445.9-18.3,1445.9-14.9z M1443.4-15c0-2.1-1.4-3.6-3.4-3.6c-2,0-3.4,1.5-3.4,3.6c0,2.2,1.4,3.7,3.4,3.7
		C1442-11.4,1443.4-12.9,1443.4-15z"/>
	<path fill="#231F20" d="M1451-23.7c0,0.8-0.6,1.4-1.4,1.4s-1.4-0.6-1.4-1.4c0-0.9,0.6-1.5,1.4-1.5S1451-24.6,1451-23.7z
		 M1448.4-9.4v-11.2h2.4v11.2H1448.4z"/>
	<path fill="#231F20" d="M1465-16.3v6.9h-2.4v-6.3c0-1.7-1-2.7-2.7-2.7c-1.8,0-3,1.3-3.2,3v5.9h-2.4v-11.2h2.4v2.1
		c0.8-1.6,2.2-2.2,4.1-2.2C1463.5-20.6,1465-19,1465-16.3z"/>
	<path fill="#231F20" d="M1478.4-10.5c0,3.2-2.3,5.2-5.8,5.2c-1.7,0-3.3-0.5-4.6-1.5l1-1.7c1,0.8,2.1,1.2,3.5,1.2
		c2.1,0,3.5-1.2,3.5-3.2v-1.4c-0.8,1.2-2,1.9-3.7,1.9c-3,0-5-2.2-5-5.4c0-3.2,2-5.3,5-5.3c1.7,0,3,0.7,3.8,1.9v-1.8h2.4V-10.5z
		 M1476-15.3c0-2-1.3-3.4-3.2-3.4c-1.9,0-3.2,1.4-3.3,3.4c0,2,1.3,3.4,3.3,3.4C1474.6-11.8,1476-13.2,1476-15.3z"/>
	<path fill="#231F20" d="M1380.6,1.5c0,0.8-0.6,1.4-1.4,1.4s-1.4-0.6-1.4-1.4c0-0.9,0.6-1.5,1.4-1.5S1380.6,0.6,1380.6,1.5z
		 M1378,15.8V4.6h2.4v11.2H1378z"/>
	<path fill="#231F20" d="M1391.2,5.7l-0.9,1.8c-1-0.6-2.2-1-3.2-1c-0.9,0-1.6,0.3-1.6,1.1c0,2.1,5.9,0.9,5.9,5c0,2.3-2,3.3-4.3,3.3
		c-1.6,0-3.4-0.5-4.5-1.6l0.9-1.7c1,0.9,2.5,1.4,3.7,1.4c1,0,1.8-0.4,1.8-1.2c0-2.3-5.9-1-5.9-5c0-2.3,2-3.2,4.1-3.2
		C1388.7,4.5,1390.2,5,1391.2,5.7z"/>
	<path fill="#231F20" d="M1411,10.3c0,3.3-2.1,5.6-5.3,5.6c-1.8,0-3.1-0.7-3.9-2v6h-2.4V4.6h2.4v1.9c0.8-1.3,2.2-2,3.9-2
		C1408.8,4.6,1411,6.9,1411,10.3z M1408.5,10.2c0-2.1-1.4-3.6-3.4-3.6c-2,0-3.4,1.5-3.4,3.6c0,2.2,1.4,3.7,3.4,3.7
		C1407.1,13.8,1408.5,12.3,1408.5,10.2z"/>
	<path fill="#231F20" d="M1424.1,10.2c0,3.4-2.4,5.7-5.8,5.7c-3.5,0-5.8-2.3-5.8-5.7c0-3.4,2.4-5.7,5.8-5.7
		C1421.7,4.6,1424.1,6.8,1424.1,10.2z M1414.8,10.3c0,2.2,1.4,3.6,3.4,3.6c2,0,3.4-1.5,3.4-3.6c0-2.1-1.4-3.6-3.4-3.6
		C1416.3,6.6,1414.8,8.1,1414.8,10.3z"/>
	<path fill="#231F20" d="M1436.4,11.2h-8.4c0.4,1.7,1.7,2.8,3.5,2.8c1.2,0,2.3-0.5,3.1-1.3l1.3,1.4c-1.1,1.2-2.7,1.9-4.6,1.9
		c-3.4,0-5.7-2.3-5.7-5.6c0-3.4,2.3-5.7,5.6-5.7C1435.1,4.6,1436.7,7.1,1436.4,11.2z M1434.3,9.4c-0.1-1.8-1.3-2.9-3.1-2.9
		c-1.8,0-3,1.1-3.3,2.9H1434.3z"/>
	<path fill="#231F20" d="M1445.3,15.1c-0.9,0.5-1.8,0.8-2.8,0.8c-1.7,0-3.1-1-3.1-3.3V6.9h-1.6V5.1h1.6V2h2.4v3.1h3.3v1.8h-3.3v5.4
		c0,1.2,0.4,1.5,1.2,1.5c0.5,0,1-0.2,1.7-0.5L1445.3,15.1z"/>
	<path fill="#231F20" d="M1449.9,6.9c0.8-1.5,2.1-2.3,3.9-2.3v2.3c-2.2-0.1-3.7,1.2-3.9,3.1v5.8h-2.4V4.6h2.4V6.9z"/>
	<path fill="#231F20" d="M1460.7,17.3c-0.7,1.8-2,2.6-3.6,2.6c-1,0-1.8-0.3-2.6-0.9l1-1.9c0.5,0.4,0.9,0.5,1.4,0.5
		c0.7,0,1.3-0.4,1.7-1.2l0.4-0.8l-4.6-11h2.5l3.3,8.5l3.1-8.5h2.4L1460.7,17.3z"/>
</g>
</svg>
