<?xml version="1.0" encoding="utf-8"?>
<!-- Generator: Adobe Illustrator 14.0.0, SVG Export Plug-In . SVG Version: 6.00 Build 43363)  -->
<!DOCTYPE svg PUBLIC "-//W3C//DTD SVG 1.1//EN" "http://www.w3.org/Graphics/SVG/1.1/DTD/svg11.dtd">
<svg version="1.1" id="Layer_1" xmlns="http://www.w3.org/2000/svg" xmlns:xlink="http://www.w3.org/1999/xlink" x="0px" y="0px"
	 width="1199.939px" height="343.482px" viewBox="0 0 1199.939 343.482" enable-background="new 0 0 1199.939 343.482"
	 xml:space="preserve">
<g>
	<path fill="#010101" d="M418.746,222.273l6,4c0,0-17,1.332-26.667,6c1.611,5.193,5.667,8.332,11.334,7.332
		c5.666-1,6.196-4.657,7-10.666l3.666-0.334c-0.333,7.668-1.666,12.668-10.666,14c-9,1.334-11-5-13.334-9.666
		c-0.861-0.25-0.753-2.308,0-3C396.079,229.939,402.079,226.273,418.746,222.273"/>
	<path fill="#010101" d="M393.079,233.031c0,0-1.667,13.573-12.333,11.907c-10.667-1.666-9.334-7.15-9.667-11.907h3.333
		c-0.39,4.437,0.153,7.271,6,8.757c5.847,1.482,10.667-2.333,11-8.757c0,0-12.666-2.427-24-1.427l3.334-4.666
		c0,0,18.333,1.666,23.333,3C394.394,231.115,394.333,232.205,393.079,233.031"/>
	<path fill="#010101" d="M389.718,234.102c-0.22,2.168-3.071,3.652-6.369,3.318c-3.297-0.335-5.791-2.363-5.57-4.531
		c0.22-2.169,3.07-3.654,6.368-3.318S389.938,231.934,389.718,234.102"/>
	<path fill="#010101" d="M412.146,230.788c0.397,2.144-1.921,4.37-5.179,4.978c-3.259,0.604-6.224-0.641-6.621-2.781
		c-0.398-2.144,1.92-4.369,5.179-4.978C408.783,227.4,411.748,228.646,412.146,230.788"/>
	<path fill="#010101" d="M380.246,256.439c4.501-5.474,9.167-8.332,15.833-8.666c6.667-0.334,11,3.834,14.334,6.166
		C400.079,251.939,391.606,250.301,380.246,256.439"/>
	<path fill="#010101" d="M395.329,269.871c-19.896,0-36.084-16.188-36.084-36.083c0-19.896,16.188-36.083,36.084-36.083
		c19.896,0,36.083,16.188,36.083,36.083C431.412,253.683,415.226,269.871,395.329,269.871L395.329,269.871z M395.329,201.705
		c-17.691,0-32.084,14.393-32.084,32.083c0,17.689,14.393,32.083,32.084,32.083c17.688,0,32.083-14.394,32.083-32.083
		C427.412,216.098,413.021,201.705,395.329,201.705L395.329,201.705z"/>
</g>
<g>
	<path fill="#010101" d="M783.52,269.871c-19.896,0-36.084-16.188-36.084-36.083c0-19.896,16.188-36.083,36.084-36.083
		c19.896,0,36.084,16.188,36.084,36.083C819.604,253.683,803.416,269.871,783.52,269.871L783.52,269.871z M783.52,201.705
		c-17.689,0-32.084,14.393-32.084,32.083c0,17.689,14.395,32.083,32.084,32.083c17.69,0,32.084-14.394,32.084-32.083
		C815.604,216.098,801.21,201.705,783.52,201.705L783.52,201.705z"/>
	<path fill="#231F20" d="M799.222,247.645c-1.23-4.908-2.122-5.52-4.668-6.153c-9.347-2.339-16.977,0.636-19.099,0.935
		c-2.122,0.298-9.125,6.917-9.338,13.071c-0.212,6.153,6.579,4.03,12.309,2.862c5.73-1.168,11.883-0.316,14.645,0
		c2.759,0.315,3.605-0.952,6.151-3.5C801.769,252.312,799.664,249.402,799.222,247.645 M793.979,250.391
		c0,0,1.062,2.256,1.062,2.894c0,0.637,0.363,1.696-4.519,1.272c-4.882-0.426-14.49,1.062-18.522,1.696
		c-4.032,0.638-3.606,0.304-2.334-3.093c5.305-0.638,10.125-2.546,10.125-2.546s-3.91-0.213-7.306,0l1-2.032
		c1.908-4.669,16.823-4.457,20.222-3.82c3.396,0.639,1.546-1.09,3.032,2.094l-9.217,3.535H793.979z"/>
	<path fill="#231F20" d="M757.933,222.623c4.623,3.082,16.696,5.649,23.891,6.422c0,1.021,0.389,4.212-0.607,5.375
		c-2.514,2.936-9.481,6.697-13.295,6.13c-4.942-0.737-8.778-4.798-10.757-8.748l2.055-1.271c7.192,10.272,15.412,6.163,21.32,2.056
		c-12.073-1.028-16.568-1.977-25.237-5.073C755.493,225.973,757.933,222.623,757.933,222.623"/>
	<path fill="#231F20" d="M773.936,232.654c0,1.516-1.658,2.74-3.708,2.74c-2.049,0-3.709-1.227-3.709-2.74
		c0-1.513,1.66-2.739,3.709-2.739C772.275,229.914,773.936,231.141,773.936,232.654"/>
	<path fill="#231F20" d="M808.407,222.623c-4.623,3.082-16.696,5.649-23.89,6.422c0,1.13-0.254,4.466,0.938,5.743
		c2.6,2.792,9.312,6.306,12.965,5.762c4.942-0.737,8.778-4.798,10.757-8.748l-2.055-1.271c-7.192,10.272-15.412,6.163-21.32,2.056
		c12.073-1.028,16.568-1.977,25.237-5.073C810.847,225.973,808.407,222.623,808.407,222.623"/>
	<path fill="#231F20" d="M793.404,232.654c0,1.516,1.658,2.74,3.708,2.74c2.049,0,3.709-1.227,3.709-2.74
		c0-1.513-1.66-2.739-3.709-2.739C795.064,229.914,793.404,231.141,793.404,232.654"/>
</g>
<g>
	<path fill="#010101" d="M588.752,116.373c-0.428,1.41-4.457,2.738-7.985,1.67c-3.526-1.068-5.213-4.13-4.786-5.539
		c0.428-1.41,3.48,0.269,7.01,1.336C586.515,114.909,589.18,114.962,588.752,116.373"/>
	<g>
		<path fill="#010101" d="M587.476,128.668c-19.896,0-36.084-16.188-36.084-36.083c0-19.896,16.188-36.083,36.084-36.083
			c19.896,0,36.085,16.187,36.085,36.083C623.561,112.481,607.373,128.668,587.476,128.668L587.476,128.668z M587.476,60.502
			c-17.689,0-32.084,14.393-32.084,32.083c0,17.689,14.395,32.083,32.084,32.083c17.691,0,32.085-14.394,32.085-32.083
			C619.561,74.895,605.168,60.502,587.476,60.502L587.476,60.502z"/>
	</g>
	<path fill="#010101" d="M615.131,86.683c-0.018-0.128-0.109-0.231-0.237-0.262c-6.698-1.606-13.575-1.831-19.872-0.643
		c-0.898,0.169-1.801,0.407-2.666,0.64c-1.322,0.351-2.572,0.683-3.832,0.793c-2.392,0.203-4.179-0.293-6.078-0.821
		c-0.777-0.216-1.58-0.438-2.429-0.611c-3.019-0.605-6.321-0.927-9.563-0.927c-3.773,0-7.453,0.433-10.639,1.251
		c-0.14,0.036-0.236,0.161-0.236,0.305c0,1.324,0.106,2.44,0.33,3.42c0.111,0.438,0.477,0.601,0.719,0.707
		c0.076,0.033,0.154,0.067,0.184,0.092c0.779,0.639,1.062,2.342,1.312,3.846c0.105,0.626,0.203,1.217,0.332,1.723
		c0.836,3.308,2.064,5.295,3.982,6.448c1.241,0.741,3.086,1.149,5.188,1.149c4.361,0,9.613-1.773,11.531-5.764
		c0.979-1.33,1.971-4.253,3.084-5.547c0.104-0.125,0.5-0.259,1.115-0.259c0.557,0,1.027,0.116,1.193,0.234
		c0.658,1.047,1.074,1.919,1.479,2.763c0.52,1.088,1.01,2.117,1.938,3.316c3.434,4.445,7.727,5.38,10.725,5.38h0.031
		c1.021-0.002,4.496-0.104,6.379-1.325c2.225-1.438,2.756-4.269,3.268-7.006c0.283-1.52,0.58-3.089,1.156-4.456
		c0.029-0.084,0.191-0.129,0.414-0.185c0.312-0.076,0.744-0.182,0.879-0.654C614.984,89.474,615.27,87.669,615.131,86.683
		 M565.875,90.574c-1.219,2.586-1.032,6.097-0.541,8.689c-0.682-2.022-1.188-4.623-1.153-6.269c0.088-3.748,1.599-4.821,4.571-5.387
		C567.625,88.247,566.527,89.188,565.875,90.574 M594.281,89.654c-1.029,1.219-1.66,2.383-1.986,3.741
		c-0.207-1.55-0.151-3.222,0.836-4.146c0.625-0.583,2.143-1.147,3.916-1.588C595.859,88.333,594.887,89.083,594.281,89.654"/>
</g>
<g>
	<path fill="#010101" d="M204.814,116.373c-0.427,1.41-4.458,2.738-7.986,1.67c-3.527-1.068-5.214-4.13-4.787-5.539
		c0.427-1.41,3.482,0.269,7.009,1.336C202.577,114.909,205.241,114.962,204.814,116.373"/>
	<g>
		<path fill="#010101" d="M203.97,128.668c-19.897,0-36.084-16.188-36.084-36.083c0-19.896,16.188-36.083,36.084-36.083
			s36.083,16.187,36.083,36.083C240.053,112.481,223.867,128.668,203.97,128.668L203.97,128.668z M203.97,60.502
			c-17.691,0-32.084,14.393-32.084,32.083c0,17.689,14.393,32.083,32.084,32.083c17.69,0,32.083-14.394,32.083-32.083
			C236.053,74.895,221.66,60.502,203.97,60.502L203.97,60.502z"/>
	</g>
	<path fill="#010101" d="M231.624,86.683c-0.018-0.128-0.112-0.231-0.238-0.262c-6.7-1.606-13.576-1.831-19.873-0.643
		c-0.898,0.169-1.8,0.407-2.667,0.64c-1.322,0.351-2.571,0.683-3.831,0.793c-2.392,0.203-4.179-0.293-6.078-0.821
		c-0.777-0.216-1.58-0.438-2.429-0.611c-3.017-0.605-6.322-0.927-9.563-0.927c-3.774,0-7.453,0.433-10.639,1.251
		c-0.138,0.036-0.236,0.161-0.236,0.305c0,1.324,0.106,2.44,0.33,3.42c0.11,0.438,0.477,0.601,0.719,0.707
		c0.075,0.033,0.153,0.067,0.183,0.092c0.78,0.639,1.063,2.342,1.313,3.846c0.105,0.626,0.202,1.217,0.332,1.723
		c0.835,3.308,2.063,5.295,3.981,6.448c1.243,0.741,3.086,1.149,5.188,1.149c4.362,0,9.614-1.773,11.531-5.764
		c0.981-1.33,1.972-4.253,3.085-5.547c0.104-0.125,0.5-0.259,1.115-0.259c0.557,0,1.029,0.116,1.195,0.234
		c0.658,1.047,1.074,1.919,1.477,2.763c0.52,1.088,1.009,2.117,1.937,3.316c3.433,4.445,7.726,5.38,10.724,5.38h0.033
		c1.021-0.002,4.496-0.104,6.379-1.325c2.222-1.438,2.753-4.269,3.265-7.006c0.283-1.52,0.58-3.089,1.157-4.456
		c0.03-0.084,0.192-0.129,0.414-0.185c0.314-0.076,0.746-0.182,0.879-0.654C231.478,89.474,231.763,87.669,231.624,86.683
		 M182.369,90.574c-1.22,2.586-1.034,6.097-0.541,8.689c-0.682-2.022-1.19-4.623-1.154-6.269c0.087-3.748,1.598-4.821,4.572-5.387
		C184.119,88.247,183.021,89.188,182.369,90.574 M210.774,89.654c-1.029,1.219-1.66,2.383-1.986,3.741
		c-0.206-1.55-0.151-3.222,0.836-4.146c0.626-0.583,2.142-1.147,3.917-1.588C212.352,88.333,211.38,89.083,210.774,89.654"/>
</g>
<g>
	<path fill="#010101" d="M985.029,116.373c-0.428,1.41-4.457,2.738-7.985,1.67c-3.526-1.068-5.214-4.13-4.787-5.539
		c0.428-1.41,3.481,0.269,7.01,1.336C982.793,114.909,985.457,114.962,985.029,116.373"/>
	<g>
		<path fill="#010101" d="M985.179,128.668c-19.896,0-36.085-16.188-36.085-36.083c0-19.896,16.188-36.083,36.085-36.083
			c19.897,0,36.083,16.187,36.083,36.083C1021.262,112.481,1005.075,128.668,985.179,128.668L985.179,128.668z M985.179,60.502
			c-17.689,0-32.085,14.393-32.085,32.083c0,17.689,14.396,32.083,32.085,32.083c17.69,0,32.083-14.394,32.083-32.083
			C1017.262,74.895,1002.869,60.502,985.179,60.502L985.179,60.502z"/>
	</g>
	<path fill="#010101" d="M1012.833,86.683c-0.018-0.128-0.112-0.231-0.238-0.262c-6.698-1.606-13.575-1.831-19.873-0.643
		c-0.896,0.169-1.8,0.407-2.666,0.64c-1.321,0.351-2.57,0.683-3.831,0.793c-2.393,0.203-4.18-0.293-6.077-0.821
		c-0.777-0.216-1.58-0.438-2.431-0.611c-3.017-0.605-6.32-0.927-9.562-0.927c-3.774,0-7.453,0.433-10.641,1.251
		c-0.139,0.036-0.234,0.161-0.234,0.305c0,1.324,0.104,2.44,0.329,3.42c0.109,0.438,0.478,0.601,0.72,0.707
		c0.075,0.033,0.153,0.067,0.183,0.092c0.78,0.639,1.063,2.342,1.313,3.846c0.104,0.626,0.202,1.217,0.332,1.723
		c0.835,3.308,2.062,5.295,3.98,6.448c1.242,0.741,3.086,1.149,5.188,1.149c4.361,0,9.613-1.773,11.531-5.764
		c0.979-1.33,1.972-4.253,3.085-5.547c0.104-0.125,0.5-0.259,1.114-0.259c0.558,0,1.028,0.116,1.194,0.234
		c0.658,1.047,1.074,1.919,1.478,2.763c0.521,1.088,1.01,2.117,1.938,3.316c3.434,4.445,7.727,5.38,10.725,5.38h0.032
		c1.021-0.002,4.496-0.104,6.379-1.325c2.224-1.438,2.753-4.269,3.267-7.006c0.282-1.52,0.58-3.089,1.156-4.456
		c0.029-0.084,0.191-0.129,0.414-0.185c0.313-0.076,0.745-0.182,0.879-0.654C1012.688,89.474,1012.972,87.669,1012.833,86.683
		 M963.577,90.574c-1.22,2.586-1.034,6.097-0.541,8.689c-0.683-2.022-1.19-4.623-1.154-6.269c0.087-3.748,1.6-4.821,4.572-5.387
		C965.327,88.247,964.229,89.188,963.577,90.574 M991.982,89.654c-1.029,1.219-1.66,2.383-1.986,3.741
		c-0.206-1.55-0.151-3.222,0.836-4.146c0.626-0.583,2.143-1.147,3.917-1.588C993.561,88.333,992.589,89.083,991.982,89.654"/>
</g>
<g>
	<path fill="#010101" d="M157.243,3.16h2.478v14.679h-2.478V3.16z"/>
	<path fill="#010101" d="M163.29,5.533c-0.378-0.225-0.567-0.557-0.567-0.998s0.126-0.784,0.378-1.029s0.567-0.368,0.945-0.368
		s0.696,0.119,0.956,0.357c0.259,0.237,0.388,0.549,0.388,0.934s-0.126,0.76-0.378,1.124l-1.239,1.785h-1.281L163.29,5.533z"/>
	<path fill="#010101" d="M170.368,11.792v6.048h-2.352V6.667h2.352v2.037c0.336-0.687,0.843-1.226,1.522-1.617
		c0.679-0.393,1.41-0.588,2.194-0.588c1.764,0,2.961,0.728,3.591,2.184c1.106-1.456,2.485-2.184,4.137-2.184
		c1.26,0,2.278,0.385,3.056,1.154c0.777,0.771,1.166,1.884,1.166,3.34v6.846h-2.352v-6.132c0-2.059-0.854-3.087-2.562-3.087
		c-0.798,0-1.495,0.256-2.09,0.767c-0.595,0.511-0.906,1.257-0.935,2.237v6.216h-2.352v-6.132c0-1.064-0.189-1.846-0.567-2.342
		c-0.378-0.497-0.973-0.746-1.785-0.746s-1.52,0.27-2.121,0.809C170.668,9.968,170.368,10.755,170.368,11.792z"/>
	<path fill="#010101" d="M205.395,6.667v9.744c0,1.974-0.536,3.455-1.607,4.441c-1.071,0.987-2.446,1.48-4.126,1.48
		c-1.68,0-3.199-0.525-4.557-1.575l1.113-1.785c1.092,0.826,2.194,1.239,3.308,1.239c1.113,0,1.995-0.287,2.646-0.861
		c0.651-0.574,0.977-1.491,0.977-2.751v-1.428c-0.35,0.658-0.851,1.183-1.501,1.575c-0.651,0.392-1.383,0.588-2.195,0.588
		c-1.484,0-2.702-0.519-3.654-1.554c-0.952-1.036-1.428-2.324-1.428-3.864s0.476-2.828,1.428-3.864
		c0.952-1.036,2.166-1.554,3.644-1.554c1.477,0,2.677,0.608,3.602,1.827V6.667H205.395z M196.68,11.823
		c0,0.917,0.284,1.708,0.851,2.372c0.567,0.665,1.33,0.998,2.289,0.998s1.736-0.321,2.331-0.966
		c0.595-0.644,0.893-1.445,0.893-2.404c0-0.958-0.301-1.771-0.903-2.437s-1.379-0.998-2.331-0.998s-1.711,0.343-2.278,1.029
		C196.965,10.104,196.68,10.906,196.68,11.823z"/>
	<path fill="#010101" d="M218.141,16.338c-1.12,1.113-2.52,1.669-4.2,1.669c-1.68,0-3.08-0.557-4.2-1.669
		c-1.12-1.112-1.68-2.476-1.68-4.084c0-1.609,0.56-2.972,1.68-4.084c1.12-1.113,2.52-1.669,4.2-1.669c1.68,0,3.08,0.556,4.2,1.669
		s1.68,2.475,1.68,4.084C219.821,13.863,219.262,15.225,218.141,16.338z M211.411,14.889c0.665,0.679,1.508,1.02,2.531,1.02
		c1.021,0,1.865-0.34,2.53-1.02c0.665-0.679,0.998-1.557,0.998-2.635s-0.333-1.957-0.998-2.636c-0.665-0.68-1.509-1.02-2.53-1.02
		c-1.022,0-1.866,0.34-2.531,1.02c-0.665,0.679-0.998,1.558-0.998,2.636S210.746,14.21,211.411,14.889z"/>
	<path fill="#010101" d="M222.636,4.441c-0.294-0.294-0.441-0.644-0.441-1.05s0.147-0.756,0.441-1.05
		c0.294-0.294,0.644-0.441,1.05-0.441c0.406,0,0.756,0.147,1.05,0.441s0.441,0.644,0.441,1.05s-0.147,0.756-0.441,1.05
		s-0.645,0.441-1.05,0.441C223.279,4.882,222.93,4.735,222.636,4.441z M224.841,17.839h-2.352V6.667h2.352V17.839z"/>
	<path fill="#010101" d="M230.595,11.792v6.048h-2.352V6.667h2.352v2.037c0.378-0.687,0.899-1.226,1.564-1.617
		c0.665-0.393,1.382-0.588,2.152-0.588c1.26,0,2.278,0.385,3.056,1.154c0.777,0.771,1.166,1.884,1.166,3.34v6.846h-2.352v-6.132
		c0-2.059-0.854-3.087-2.562-3.087c-0.812,0-1.52,0.27-2.121,0.809C230.895,9.968,230.595,10.755,230.595,11.792z"/>
	<path fill="#010101" d="M252.14,6.667v9.744c0,1.974-0.535,3.455-1.606,4.441c-1.071,0.987-2.446,1.48-4.126,1.48
		c-1.68,0-3.199-0.525-4.557-1.575l1.113-1.785c1.092,0.826,2.194,1.239,3.307,1.239s1.996-0.287,2.646-0.861
		c0.651-0.574,0.977-1.491,0.977-2.751v-1.428c-0.35,0.658-0.851,1.183-1.5,1.575c-0.651,0.392-1.383,0.588-2.195,0.588
		c-1.484,0-2.702-0.519-3.654-1.554c-0.952-1.036-1.428-2.324-1.428-3.864s0.476-2.828,1.428-3.864s2.166-1.554,3.645-1.554
		c1.477,0,2.677,0.608,3.602,1.827V6.667H252.14z M243.425,11.823c0,0.917,0.284,1.708,0.851,2.372
		c0.566,0.665,1.33,0.998,2.289,0.998s1.736-0.321,2.33-0.966c0.596-0.644,0.894-1.445,0.894-2.404c0-0.958-0.301-1.771-0.903-2.437
		c-0.602-0.665-1.379-0.998-2.33-0.998c-0.953,0-1.711,0.343-2.278,1.029C243.711,10.104,243.425,10.906,243.425,11.823z"/>
	<path fill="#010101" d="M139.372,33.757v5.67c0,0.532,0.14,0.955,0.42,1.271c0.28,0.314,0.672,0.472,1.176,0.472
		c0.504,0,0.987-0.245,1.449-0.735l0.966,1.659c-0.826,0.742-1.74,1.113-2.74,1.113c-1.001,0-1.855-0.348-2.562-1.04
		c-0.707-0.693-1.061-1.627-1.061-2.803v-5.607h-1.407v-1.89h1.407V28.36h2.352v3.508h2.94v1.89H139.372z"/>
	<path fill="#010101" d="M154.513,41.538c-1.12,1.112-2.52,1.669-4.2,1.669s-3.08-0.558-4.2-1.669
		c-1.12-1.112-1.68-2.476-1.68-4.084c0-1.609,0.56-2.973,1.68-4.084c1.12-1.113,2.52-1.669,4.2-1.669s3.08,0.556,4.2,1.669
		c1.12,1.112,1.68,2.475,1.68,4.084C156.193,39.063,155.633,40.425,154.513,41.538z M147.782,40.089
		c0.665,0.679,1.508,1.019,2.531,1.019c1.021,0,1.865-0.339,2.53-1.019c0.665-0.679,0.998-1.557,0.998-2.635
		s-0.333-1.957-0.998-2.637c-0.665-0.679-1.509-1.019-2.53-1.019c-1.022,0-1.866,0.34-2.531,1.019
		c-0.665,0.68-0.998,1.559-0.998,2.637S147.117,39.41,147.782,40.089z"/>
	<path fill="#010101" d="M166.966,43.04h-2.352V27.458h2.352V43.04z"/>
	<path fill="#010101" d="M180.763,38.482h-8.757c0.056,0.812,0.427,1.468,1.113,1.964c0.686,0.497,1.47,0.745,2.352,0.745
		c1.399,0,2.464-0.44,3.192-1.322l1.344,1.47c-1.204,1.247-2.772,1.869-4.704,1.869c-1.568,0-2.902-0.521-4-1.564
		c-1.1-1.043-1.649-2.442-1.649-4.2c0-1.757,0.56-3.152,1.68-4.188s2.439-1.554,3.958-1.554s2.811,0.458,3.875,1.375
		s1.596,2.181,1.596,3.791V38.482L180.763,38.482z M172.005,36.635h6.405c0-0.938-0.294-1.659-0.882-2.163
		c-0.588-0.504-1.312-0.756-2.173-0.756s-1.635,0.263-2.32,0.788C172.348,35.028,172.005,35.74,172.005,36.635z"/>
	<path fill="#010101" d="M192.396,43.04h-2.142v-1.491c-0.924,1.106-2.163,1.659-3.717,1.659c-1.162,0-2.125-0.329-2.888-0.987
		c-0.763-0.658-1.145-1.537-1.145-2.636c0-1.1,0.406-1.921,1.218-2.467s1.911-0.819,3.297-0.819h3.045v-0.42
		c0-1.484-0.826-2.227-2.478-2.227c-1.036,0-2.114,0.379-3.234,1.135l-1.05-1.471c1.357-1.077,2.898-1.616,4.62-1.616
		c1.316,0,2.391,0.333,3.224,0.998c0.833,0.664,1.25,1.711,1.25,3.139V43.04z M190.044,38.881v-0.945h-2.646
		c-1.694,0-2.541,0.532-2.541,1.597c0,0.546,0.21,0.962,0.63,1.25c0.42,0.286,1.004,0.43,1.754,0.43c0.749,0,1.403-0.21,1.963-0.63
		C189.764,40.163,190.044,39.596,190.044,38.881z"/>
	<path fill="#010101" d="M201.531,34.073c-1.162,0-2.037,0.378-2.625,1.134c-0.588,0.756-0.882,1.771-0.882,3.045v4.788h-2.352
		V31.868h2.352v2.247c0.378-0.7,0.892-1.274,1.543-1.723s1.34-0.679,2.068-0.692l0.021,2.373
		C201.615,34.073,201.573,34.073,201.531,34.073z"/>
	<path fill="#010101" d="M206.361,36.992v6.048h-2.352V31.868h2.352v2.037c0.378-0.688,0.899-1.226,1.564-1.617
		c0.665-0.393,1.382-0.588,2.152-0.588c1.26,0,2.278,0.385,3.056,1.154c0.777,0.771,1.166,1.883,1.166,3.339v6.847h-2.352v-6.132
		c0-2.059-0.854-3.088-2.562-3.088c-0.812,0-1.52,0.271-2.121,0.81C206.661,35.168,206.361,35.956,206.361,36.992z"/>
	<path fill="#010101" d="M228.285,43.208c-1.554,0-2.891-0.528-4.011-1.585c-1.12-1.058-1.68-2.439-1.68-4.147
		s0.584-3.098,1.754-4.168c1.168-1.071,2.593-1.605,4.273-1.605c1.68,0,3.101,0.581,4.263,1.742l-1.386,1.701
		c-0.966-0.84-1.939-1.26-2.919-1.26s-1.831,0.325-2.552,0.976c-0.721,0.651-1.082,1.491-1.082,2.521s0.357,1.901,1.071,2.615
		c0.714,0.714,1.592,1.07,2.635,1.07s2.026-0.476,2.951-1.428l1.386,1.512C231.63,42.522,230.062,43.208,228.285,43.208z"/>
	<path fill="#010101" d="M244.538,41.538c-1.12,1.112-2.52,1.669-4.2,1.669c-1.68,0-3.08-0.558-4.2-1.669
		c-1.12-1.112-1.68-2.476-1.68-4.084c0-1.609,0.56-2.973,1.68-4.084c1.12-1.113,2.52-1.669,4.2-1.669c1.68,0,3.08,0.556,4.2,1.669
		c1.12,1.112,1.68,2.475,1.68,4.084C246.218,39.063,245.658,40.425,244.538,41.538z M237.807,40.089
		c0.665,0.679,1.508,1.019,2.531,1.019c1.021,0,1.865-0.339,2.53-1.019c0.665-0.679,0.998-1.557,0.998-2.635
		s-0.333-1.957-0.998-2.637c-0.665-0.679-1.509-1.019-2.53-1.019c-1.022,0-1.866,0.34-2.531,1.019
		c-0.665,0.68-0.998,1.559-0.998,2.637S237.142,39.41,237.807,40.089z"/>
	<path fill="#010101" d="M249.746,41.611c-1.05-1.062-1.575-2.464-1.575-4.199c0-1.736,0.539-3.122,1.617-4.158
		s2.362-1.554,3.854-1.554c1.492,0,2.691,0.63,3.603,1.89v-6.132h2.353V43.04h-2.353V41.36c-0.868,1.232-2.135,1.849-3.801,1.849
		C252.028,43.208,250.796,42.676,249.746,41.611z M250.522,37.506c0,1.071,0.344,1.943,1.029,2.615
		c0.687,0.672,1.491,1.008,2.416,1.008c0.924,0,1.707-0.339,2.352-1.02c0.645-0.679,0.966-1.55,0.966-2.613
		c0-1.064-0.321-1.953-0.966-2.667s-1.436-1.071-2.373-1.071s-1.743,0.357-2.415,1.071
		C250.859,35.542,250.522,36.435,250.522,37.506z"/>
	<path fill="#010101" d="M273.392,38.482h-8.756c0.055,0.812,0.426,1.468,1.112,1.964c0.687,0.497,1.47,0.745,2.353,0.745
		c1.398,0,2.463-0.44,3.191-1.322l1.344,1.47c-1.203,1.247-2.771,1.869-4.703,1.869c-1.568,0-2.902-0.521-4-1.564
		c-1.101-1.043-1.649-2.442-1.649-4.2c0-1.757,0.56-3.152,1.681-4.188c1.119-1.036,2.438-1.554,3.957-1.554
		c1.52,0,2.811,0.458,3.875,1.375s1.596,2.181,1.596,3.791L273.392,38.482L273.392,38.482z M264.636,36.635h6.404
		c0-0.938-0.294-1.659-0.882-2.163c-0.588-0.504-1.312-0.756-2.173-0.756c-0.861,0-1.635,0.263-2.32,0.788
		C264.978,35.028,264.636,35.74,264.636,36.635z"/>
</g>
<g>
	<path fill="#010101" d="M553.745,3.161h2.479V17.84h-2.479V3.161z"/>
	<path fill="#010101" d="M568.067,17.84h-2.353V2.258h2.353v9.156l4.534-4.746h3.024l-4.241,4.431l4.558,6.741h-2.856l-3.317-4.893
		l-1.7,1.722L568.067,17.84L568.067,17.84z"/>
	<path fill="#010101" d="M580.269,11.792v6.048h-2.354V6.668h2.354v2.037c0.378-0.687,0.897-1.226,1.563-1.617
		c0.664-0.393,1.382-0.588,2.152-0.588c1.26,0,2.275,0.385,3.055,1.155c0.777,0.77,1.166,1.883,1.166,3.339v6.846h-2.354v-6.132
		c0-2.059-0.854-3.087-2.562-3.087c-0.812,0-1.521,0.27-2.121,0.809C580.569,9.968,580.269,10.756,580.269,11.792z"/>
	<path fill="#010101" d="M600.827,16.338c-1.121,1.113-2.521,1.669-4.2,1.669c-1.681,0-3.08-0.557-4.2-1.669s-1.68-2.476-1.68-4.084
		c0-1.609,0.561-2.972,1.68-4.084c1.12-1.113,2.521-1.669,4.2-1.669c1.681,0,3.079,0.556,4.2,1.669
		c1.119,1.113,1.68,2.475,1.68,4.084C602.507,13.863,601.946,15.226,600.827,16.338z M594.097,14.889
		c0.664,0.679,1.509,1.02,2.53,1.02s1.865-0.34,2.53-1.02c0.665-0.679,0.998-1.557,0.998-2.635s-0.333-1.957-0.998-2.636
		c-0.665-0.68-1.509-1.02-2.53-1.02s-1.866,0.34-2.53,1.02c-0.666,0.679-0.997,1.558-0.997,2.636S593.431,14.21,594.097,14.889z"/>
	<path fill="#010101" d="M610.257,17.84h-2.688l-3.864-11.172h2.437l2.771,8.441l2.771-8.441h2.437l2.771,8.441l2.771-8.441h2.438
		l-3.863,11.172h-2.688l-2.646-7.645L610.257,17.84z"/>
	<path fill="#010101" d="M576.079,33.128c0,2.422-1.058,3.948-3.171,4.578l3.843,5.334h-3.15l-3.506-4.936h-3.256v4.936h-2.478
		v-14.68h5.46c2.239,0,3.843,0.379,4.809,1.135C575.597,30.251,576.079,31.462,576.079,33.128z M572.782,35.207
		c0.504-0.435,0.756-1.13,0.756-2.089s-0.259-1.617-0.777-1.975c-0.518-0.356-1.44-0.536-2.771-0.536h-3.15v5.25h3.088
		C571.326,35.858,572.278,35.641,572.782,35.207z"/>
	<path fill="#010101" d="M588.154,43.04h-2.143v-1.491c-0.925,1.106-2.164,1.659-3.718,1.659c-1.161,0-2.125-0.329-2.889-0.987
		s-1.146-1.537-1.146-2.636c0-1.1,0.406-1.921,1.219-2.467c0.813-0.546,1.912-0.819,3.299-0.819h3.045v-0.42
		c0-1.484-0.826-2.227-2.479-2.227c-1.035,0-2.113,0.379-3.231,1.135l-1.052-1.471c1.357-1.077,2.898-1.616,4.619-1.616
		c1.316,0,2.393,0.333,3.227,0.998c0.832,0.664,1.249,1.711,1.249,3.139L588.154,43.04L588.154,43.04z M585.802,38.882v-0.945
		h-2.646c-1.694,0-2.541,0.532-2.541,1.597c0,0.546,0.21,0.962,0.63,1.25c0.42,0.287,1.004,0.43,1.754,0.43
		c0.748,0,1.403-0.21,1.963-0.63S585.802,39.596,585.802,38.882z"/>
	<path fill="#010101" d="M591.577,29.642c-0.294-0.294-0.441-0.644-0.441-1.05s0.147-0.756,0.441-1.05s0.644-0.441,1.05-0.441
		c0.405,0,0.756,0.147,1.05,0.441c0.295,0.294,0.441,0.644,0.441,1.05s-0.146,0.756-0.441,1.05c-0.294,0.294-0.645,0.441-1.05,0.441
		C592.221,30.083,591.871,29.936,591.577,29.642z M593.782,43.04h-2.354V31.868h2.354V43.04z"/>
	<path fill="#010101" d="M599.536,43.04h-2.353V27.458h2.353V43.04z"/>
	<path fill="#010101" d="M610.896,39.701c0,1.063-0.388,1.915-1.155,2.551c-0.771,0.637-1.757,0.956-2.961,0.956
		c-0.812,0-1.656-0.147-2.53-0.441c-0.876-0.294-1.647-0.707-2.321-1.239l1.136-1.826c1.303,0.979,2.562,1.47,3.778,1.47
		c0.532,0,0.953-0.122,1.263-0.367c0.308-0.245,0.462-0.557,0.462-0.935c0-0.561-0.742-1.064-2.229-1.513
		c-0.11-0.042-0.194-0.069-0.252-0.084c-2.324-0.63-3.484-1.68-3.484-3.149c0-1.036,0.4-1.865,1.207-2.488s1.853-0.935,3.141-0.935
		s2.506,0.378,3.653,1.134l-0.884,1.743c-0.909-0.603-1.896-0.903-2.961-0.903c-0.56,0-1.015,0.102-1.363,0.305
		c-0.352,0.203-0.524,0.508-0.524,0.914c0,0.364,0.183,0.63,0.546,0.798c0.252,0.126,0.604,0.245,1.062,0.357
		c0.455,0.112,0.856,0.224,1.207,0.336c0.352,0.112,0.688,0.238,1.021,0.378c0.328,0.14,0.682,0.336,1.061,0.588
		C610.519,37.853,610.896,38.637,610.896,39.701z"/>
</g>
<g>
	<path fill="#010101" d="M938.836,29.642c-0.295-0.294-0.44-0.644-0.44-1.05s0.146-0.756,0.44-1.05
		c0.293-0.294,0.644-0.441,1.049-0.441c0.406,0,0.756,0.147,1.052,0.441c0.294,0.294,0.44,0.644,0.44,1.05s-0.146,0.756-0.44,1.05
		c-0.296,0.294-0.646,0.441-1.052,0.441C939.479,30.083,939.129,29.936,938.836,29.642z M941.041,43.04h-2.354V31.868h2.354V43.04z"
		/>
	<path fill="#010101" d="M952.401,39.701c0,1.063-0.388,1.915-1.155,2.551c-0.771,0.637-1.757,0.956-2.961,0.956
		c-0.812,0-1.656-0.147-2.53-0.441c-0.876-0.294-1.647-0.707-2.321-1.239l1.136-1.826c1.303,0.979,2.562,1.47,3.778,1.47
		c0.532,0,0.953-0.122,1.263-0.367c0.308-0.245,0.462-0.557,0.462-0.935c0-0.561-0.742-1.064-2.229-1.513
		c-0.11-0.042-0.194-0.069-0.252-0.084c-2.324-0.63-3.484-1.68-3.484-3.149c0-1.036,0.4-1.865,1.207-2.488s1.853-0.935,3.141-0.935
		s2.506,0.378,3.653,1.134l-0.884,1.743c-0.909-0.603-1.896-0.903-2.961-0.903c-0.56,0-1.015,0.102-1.363,0.305
		c-0.352,0.203-0.524,0.508-0.524,0.914c0,0.364,0.183,0.63,0.546,0.798c0.252,0.126,0.604,0.245,1.062,0.357
		c0.455,0.112,0.856,0.224,1.207,0.336c0.352,0.112,0.688,0.238,1.021,0.378c0.328,0.14,0.682,0.336,1.062,0.588
		C952.024,37.853,952.401,38.637,952.401,39.701z"/>
	<path fill="#010101" d="M966.807,31.7c1.498,0,2.779,0.518,3.845,1.554c1.062,1.036,1.597,2.415,1.597,4.137
		s-0.529,3.122-1.586,4.2c-1.059,1.079-2.289,1.617-3.696,1.617s-2.671-0.616-3.79-1.849v5.755h-2.352V31.868h2.352v1.952
		C964.098,32.407,965.309,31.7,966.807,31.7z M963.132,37.475c0,1.064,0.321,1.937,0.966,2.614c0.646,0.679,1.43,1.019,2.354,1.019
		s1.729-0.336,2.416-1.008c0.686-0.672,1.027-1.543,1.027-2.615c0-1.07-0.337-1.959-1.009-2.667
		c-0.673-0.707-1.478-1.061-2.415-1.061c-0.937,0-1.729,0.354-2.373,1.061C963.454,35.525,963.132,36.411,963.132,37.475z"/>
	<path fill="#010101" d="M984.278,41.538c-1.12,1.112-2.521,1.669-4.2,1.669c-1.68,0-3.08-0.558-4.199-1.669
		c-1.121-1.113-1.681-2.476-1.681-4.084c0-1.609,0.56-2.973,1.681-4.084c1.119-1.113,2.521-1.669,4.199-1.669
		c1.678,0,3.08,0.556,4.2,1.669c1.119,1.112,1.681,2.475,1.681,4.084C985.959,39.063,985.399,40.425,984.278,41.538z
		 M977.548,40.089c0.665,0.679,1.509,1.019,2.53,1.019c1.021,0,1.865-0.339,2.531-1.019c0.663-0.679,0.997-1.557,0.997-2.635
		s-0.334-1.957-0.997-2.637c-0.666-0.679-1.512-1.019-2.531-1.019c-1.021,0-1.865,0.34-2.53,1.019
		c-0.665,0.68-0.997,1.559-0.997,2.637S976.883,39.41,977.548,40.089z"/>
	<path fill="#010101" d="M999.021,38.482h-8.758c0.058,0.812,0.428,1.468,1.113,1.964c0.687,0.497,1.469,0.745,2.353,0.745
		c1.398,0,2.464-0.44,3.19-1.322l1.344,1.47c-1.202,1.247-2.771,1.869-4.702,1.869c-1.567,0-2.901-0.521-4-1.564
		c-1.101-1.043-1.648-2.442-1.648-4.2c0-1.757,0.56-3.152,1.681-4.188c1.119-1.036,2.439-1.554,3.958-1.554
		c1.521,0,2.812,0.458,3.874,1.375c1.064,0.917,1.598,2.181,1.598,3.791L999.021,38.482L999.021,38.482z M990.264,36.635h6.404
		c0-0.938-0.293-1.659-0.882-2.163c-0.588-0.504-1.312-0.756-2.173-0.756c-0.861,0-1.636,0.263-2.32,0.788
		C990.606,35.028,990.264,35.74,990.264,36.635z"/>
	<path fill="#010101" d="M1004.418,33.757v5.67c0,0.532,0.139,0.955,0.42,1.271c0.279,0.314,0.672,0.472,1.176,0.472
		s0.986-0.245,1.449-0.735l0.965,1.659c-0.825,0.742-1.737,1.113-2.739,1.113c-1.001,0-1.854-0.348-2.562-1.04
		c-0.707-0.693-1.062-1.627-1.062-2.803v-5.607h-1.406v-1.89h1.406V28.36h2.354v3.508h2.939v1.89H1004.418z"/>
	<path fill="#010101" d="M1016.156,34.073c-1.162,0-2.037,0.378-2.625,1.134c-0.589,0.756-0.883,1.771-0.883,3.045v4.788h-2.354
		V31.868h2.354v2.247c0.378-0.7,0.893-1.274,1.544-1.723c0.649-0.448,1.341-0.679,2.067-0.692l0.021,2.373
		C1016.24,34.073,1016.198,34.073,1016.156,34.073z"/>
	<path fill="#010101" d="M1020.041,47.492c-1.021,0-1.945-0.371-2.771-1.113l1.069-1.911c0.49,0.462,0.998,0.693,1.523,0.693
		c0.522,0,0.95-0.189,1.278-0.567c0.329-0.378,0.493-0.792,0.493-1.239c0-0.195-1.505-4.024-4.515-11.486h2.521l3.339,8.231
		l3.341-8.231h2.52l-5.418,13.271c-0.322,0.729-0.784,1.302-1.386,1.722C1021.434,47.282,1020.77,47.492,1020.041,47.492z"/>
</g>
<g>
	<path fill="#010101" d="M379.578,286.887c0,2.422-1.059,3.948-3.171,4.578l3.843,5.334h-3.149l-3.508-4.935h-3.254v4.935h-2.479
		V282.12h5.46c2.238,0,3.843,0.378,4.81,1.134S379.578,285.221,379.578,286.887z M376.282,288.966
		c0.504-0.434,0.756-1.13,0.756-2.089s-0.259-1.617-0.777-1.976c-0.518-0.355-1.439-0.534-2.771-0.534h-3.149v5.25h3.086
		C374.826,289.617,375.778,289.4,376.282,288.966z"/>
	<path fill="#010101" d="M390.438,291.675v-6.048h2.353v11.172h-2.353v-2.037c-0.38,0.688-0.899,1.225-1.564,1.617
		c-0.665,0.392-1.383,0.588-2.152,0.588c-1.26,0-2.276-0.385-3.056-1.154c-0.776-0.771-1.165-1.883-1.165-3.34v-6.846h2.352v6.132
		c0,2.058,0.854,3.087,2.562,3.087c0.812,0,1.52-0.269,2.121-0.809C390.136,293.499,390.438,292.711,390.438,291.675z"/>
	<path fill="#010101" d="M402.175,285.459c1.498,0,2.778,0.518,3.844,1.555c1.062,1.035,1.597,2.414,1.597,4.137
		s-0.528,3.121-1.586,4.199c-1.058,1.08-2.288,1.617-3.695,1.617c-1.406,0-2.671-0.615-3.791-1.848v1.68h-2.352v-15.582h2.352v6.363
		C399.466,286.167,400.677,285.459,402.175,285.459z M398.499,291.234c0,1.063,0.322,1.937,0.967,2.613
		c0.646,0.68,1.428,1.021,2.354,1.021c0.924,0,1.729-0.336,2.415-1.009c0.686-0.672,1.028-1.543,1.028-2.614
		s-0.338-1.959-1.01-2.667c-0.672-0.707-1.477-1.062-2.414-1.062s-1.729,0.354-2.373,1.062
		C398.822,289.285,398.499,290.17,398.499,291.234z"/>
	<path fill="#010101" d="M411.709,301.251c-1.021,0-1.946-0.371-2.771-1.112l1.071-1.912c0.488,0.463,0.996,0.693,1.521,0.693
		c0.522,0,0.951-0.189,1.28-0.566c0.328-0.379,0.492-0.793,0.492-1.239c0-0.195-1.504-4.024-4.515-11.486h2.521l3.339,8.231
		l3.34-8.231h2.521l-5.418,13.271c-0.322,0.729-0.785,1.304-1.388,1.724C413.103,301.042,412.438,301.251,411.709,301.251z"/>
	<path fill="#010101" d="M359.849,308.602c-0.293-0.293-0.438-0.644-0.438-1.05c0-0.405,0.146-0.756,0.438-1.05
		c0.295-0.294,0.646-0.441,1.053-0.441c0.404,0,0.756,0.147,1.05,0.441s0.438,0.645,0.438,1.05c0,0.406-0.146,0.757-0.438,1.05
		c-0.294,0.295-0.646,0.441-1.05,0.441C360.494,309.042,360.144,308.896,359.849,308.602z M362.054,322h-2.352v-11.172h2.352V322z"
		/>
	<path fill="#010101" d="M373.415,318.661c0,1.062-0.386,1.915-1.154,2.551c-0.771,0.638-1.758,0.956-2.961,0.956
		c-0.812,0-1.656-0.146-2.531-0.441c-0.875-0.293-1.646-0.707-2.318-1.238l1.134-1.826c1.303,0.979,2.562,1.47,3.78,1.47
		c0.529,0,0.95-0.122,1.26-0.367c0.308-0.244,0.462-0.557,0.462-0.935c0-0.561-0.742-1.063-2.227-1.514
		c-0.111-0.041-0.195-0.068-0.252-0.084c-2.323-0.629-3.485-1.68-3.485-3.148c0-1.036,0.401-1.865,1.207-2.488
		c0.806-0.622,1.853-0.935,3.14-0.935c1.289,0,2.506,0.378,3.654,1.134l-0.882,1.743c-0.91-0.603-1.897-0.903-2.961-0.903
		c-0.562,0-1.018,0.103-1.365,0.306c-0.351,0.203-0.524,0.509-0.524,0.914c0,0.363,0.183,0.629,0.546,0.797
		c0.252,0.127,0.604,0.246,1.062,0.357c0.455,0.112,0.856,0.225,1.208,0.336c0.35,0.112,0.689,0.238,1.021,0.379
		c0.327,0.139,0.683,0.336,1.061,0.588C373.037,316.812,373.415,317.598,373.415,318.661z"/>
	<path fill="#010101" d="M384.188,315.952V322h-2.353v-15.562h2.353v6.427c0.337-0.687,0.845-1.226,1.521-1.617
		c0.68-0.394,1.41-0.588,2.194-0.588c1.261,0,2.277,0.385,3.056,1.153c0.777,0.771,1.166,1.883,1.166,3.34V322h-2.354v-6.132
		c0-2.059-0.854-3.087-2.562-3.087c-0.812,0-1.521,0.27-2.12,0.809C384.489,314.128,384.188,314.916,384.188,315.952z"/>
	<path fill="#010101" d="M404.452,322h-2.144v-1.491c-0.924,1.106-2.161,1.659-3.717,1.659c-1.162,0-2.125-0.329-2.888-0.986
		c-0.765-0.658-1.146-1.537-1.146-2.637c0-1.101,0.406-1.921,1.22-2.467c0.812-0.546,1.909-0.819,3.297-0.819h3.045v-0.42
		c0-1.483-0.826-2.227-2.479-2.227c-1.034,0-2.112,0.379-3.232,1.135l-1.05-1.471c1.356-1.077,2.896-1.616,4.618-1.616
		c1.315,0,2.392,0.333,3.226,0.998c0.832,0.663,1.249,1.711,1.249,3.139L404.452,322L404.452,322z M402.101,317.841v-0.944h-2.646
		c-1.694,0-2.541,0.531-2.541,1.597c0,0.546,0.21,0.962,0.63,1.25c0.42,0.286,1.006,0.43,1.754,0.43c0.75,0,1.403-0.21,1.963-0.63
		C401.821,319.123,402.101,318.557,402.101,317.841z"/>
	<path fill="#010101" d="M413.587,313.033c-1.162,0-2.035,0.378-2.625,1.134c-0.588,0.756-0.882,1.771-0.882,3.045V322h-2.354
		v-11.172h2.354v2.247c0.378-0.7,0.894-1.274,1.544-1.723c0.65-0.447,1.34-0.68,2.068-0.692l0.021,2.373
		C413.671,313.033,413.629,313.033,413.587,313.033z"/>
	<path fill="#010101" d="M416.927,320.57c-1.051-1.062-1.574-2.463-1.574-4.198c0-1.736,0.537-3.122,1.615-4.158
		s2.363-1.554,3.854-1.554c1.49,0,2.689,0.63,3.603,1.89v-6.132h2.354V322h-2.354v-1.681c-0.869,1.231-2.136,1.849-3.802,1.849
		C419.208,322.167,417.978,321.636,416.927,320.57z M417.703,316.466c0,1.071,0.343,1.943,1.028,2.615
		c0.687,0.672,1.491,1.008,2.416,1.008c0.924,0,1.706-0.339,2.352-1.02c0.645-0.68,0.967-1.551,0.967-2.613
		c0-1.063-0.322-1.953-0.967-2.667c-0.646-0.714-1.437-1.071-2.373-1.071s-1.742,0.357-2.415,1.071
		C418.039,314.503,417.703,315.395,417.703,316.466z"/>
</g>
<g>
	<path fill="#010101" d="M759.898,282.74c0.603,0.649,0.901,1.438,0.901,2.36s-0.304,1.717-0.913,2.373
		c-0.607,0.658-1.363,0.987-2.268,0.987s-1.656-0.325-2.258-0.979c-0.604-0.649-0.903-1.438-0.903-2.36s0.305-1.715,0.914-2.373
		c0.606-0.658,1.364-0.986,2.268-0.986C758.545,281.764,759.296,282.088,759.898,282.74z M768.445,282.121L757.693,296.8h-2.709
		l10.752-14.679H768.445z M758.491,286.205c0.224-0.286,0.336-0.642,0.336-1.062s-0.119-0.772-0.357-1.062
		c-0.235-0.286-0.526-0.432-0.871-0.432c-0.343,0-0.627,0.146-0.851,0.432c-0.225,0.287-0.336,0.642-0.336,1.062
		s0.119,0.773,0.355,1.062c0.237,0.288,0.528,0.431,0.871,0.431C757.982,286.636,758.267,286.492,758.491,286.205z M768.235,291.245
		c0.602,0.65,0.9,1.438,0.9,2.361c0,0.926-0.304,1.717-0.913,2.373c-0.607,0.658-1.363,0.986-2.268,0.986s-1.656-0.324-2.258-0.978
		c-0.604-0.65-0.903-1.438-0.903-2.361s0.305-1.715,0.914-2.373c0.608-0.657,1.364-0.987,2.268-0.987
		C766.881,290.268,767.633,290.594,768.235,291.245z M766.87,294.751c0.224-0.286,0.336-0.643,0.336-1.062s-0.119-0.771-0.356-1.061
		c-0.236-0.286-0.527-0.43-0.872-0.43c-0.343,0-0.627,0.144-0.851,0.43c-0.224,0.287-0.336,0.641-0.336,1.061
		s0.119,0.774,0.355,1.062c0.237,0.288,0.528,0.431,0.871,0.431C766.362,295.182,766.646,295.039,766.87,294.751z"/>
	<path fill="#010101" d="M779.407,299.445c-2.354,0-4.323-0.783-5.912-2.353c-1.589-1.567-2.383-3.528-2.383-5.88
		c0-2.354,0.832-4.363,2.499-6.037c1.666-1.673,3.678-2.51,6.036-2.51s4.348,0.837,5.965,2.51c1.616,1.674,2.426,3.713,2.426,6.121
		c0,1.512-0.287,2.732-0.861,3.664c-0.573,0.932-1.337,1.396-2.289,1.396c-0.686,0-1.229-0.232-1.638-0.703
		c-0.406-0.469-0.623-1.139-0.651-2.006c-0.783,1.808-2.035,2.709-3.759,2.709c-1.204,0-2.265-0.481-3.182-1.447
		c-0.917-0.969-1.375-2.191-1.375-3.678c0-1.481,0.434-2.729,1.302-3.735s2.017-1.515,3.444-1.515c0.644,0,1.253,0.168,1.826,0.506
		c0.572,0.337,0.985,0.734,1.237,1.195v-1.406h2.019v7.328c0,0.98,0.385,1.473,1.152,1.473c0.437,0,0.83-0.317,1.188-0.956
		c0.355-0.638,0.536-1.474,0.536-2.51c0-2.239-0.678-4.138-2.026-5.69c-1.352-1.554-3.095-2.331-5.229-2.331
		c-2.135,0-3.95,0.749-5.448,2.247s-2.247,3.29-2.247,5.376s0.707,3.825,2.121,5.219c1.414,1.395,3.163,2.09,5.25,2.09
		c1.68,0,2.968-0.42,3.862-1.26l0.464,0.776c-0.49,0.42-1.144,0.759-1.953,1.019C780.968,299.316,780.177,299.445,779.407,299.445z
		 M782.116,291.141c0-0.904-0.269-1.647-0.798-2.238c-0.532-0.588-1.228-0.881-2.079-0.881c-0.854,0-1.54,0.303-2.061,0.902
		c-0.518,0.604-0.774,1.342-0.774,2.217s0.255,1.637,0.767,2.289c0.511,0.649,1.207,0.978,2.089,0.978
		c0.883,0,1.578-0.318,2.09-0.956C781.86,292.812,782.116,292.042,782.116,291.141z"/>
	<path fill="#010101" d="M803.115,287.643h-2.27l-0.607,3.486h2.583l-0.462,2.311h-2.499l-0.589,3.359h-2.33l0.588-3.359h-3.087
		l-0.589,3.359H791.5l0.589-3.359h-2.163l0.462-2.311h2.102l0.607-3.486h-2.395l0.462-2.31h2.331l0.607-3.569h2.331l-0.607,3.569
		h3.087l0.608-3.569h2.353l-0.65,3.569h2.354L803.115,287.643z M798.537,287.643h-3.087l-0.63,3.486h3.087L798.537,287.643z"/>
	<path fill="#010101" d="M810.403,298.311v-1.533c-1.919-0.193-3.643-0.957-5.166-2.286l1.53-1.827
		c1.179,1.021,2.39,1.631,3.636,1.827v-4.074c-1.583-0.378-2.741-0.875-3.478-1.491c-0.733-0.616-1.103-1.528-1.103-2.739
		s0.423-2.201,1.271-2.973c0.849-0.771,1.949-1.189,3.31-1.26v-1.052h1.344v1.07c1.54,0.112,2.996,0.639,4.368,1.575l-1.365,1.933
		c-0.924-0.656-1.925-1.062-3.003-1.219v3.948h0.062c1.61,0.378,2.793,0.89,3.552,1.533c0.756,0.644,1.134,1.578,1.134,2.803
		c0,1.226-0.437,2.224-1.302,2.993c-0.869,0.77-2.019,1.188-3.444,1.26v1.512H810.403L810.403,298.311z M808.923,284.755
		c-0.355,0.314-0.536,0.708-0.536,1.177s0.142,0.84,0.42,1.112c0.28,0.271,0.812,0.536,1.599,0.788V284.2
		C809.773,284.255,809.279,284.441,808.923,284.755z M813.343,293.964c0.394-0.321,0.588-0.729,0.588-1.218
		c0-0.49-0.152-0.879-0.462-1.166c-0.308-0.286-0.882-0.558-1.722-0.81v3.779C812.419,294.482,812.951,294.287,813.343,293.964z"/>
	<path fill="#010101" d="M733.008,309.546v-2.227h7.142v9.682c0,1.708-0.436,2.989-1.303,3.843c-0.868,0.854-1.979,1.281-3.34,1.281
		c-1.708,0-3.164-0.603-4.367-1.808l1.406-1.951c0.952,0.908,1.883,1.363,2.793,1.363c0.646,0,1.193-0.217,1.648-0.649
		c0.455-0.434,0.683-1.085,0.683-1.953v-7.581H733.008L733.008,309.546z"/>
	<path fill="#010101" d="M752.664,322h-2.143v-1.491c-0.926,1.106-2.162,1.659-3.719,1.659c-1.162,0-2.124-0.329-2.887-0.986
		c-0.764-0.658-1.146-1.537-1.146-2.636c0-1.102,0.405-1.922,1.22-2.468c0.812-0.546,1.911-0.819,3.297-0.819h3.045v-0.42
		c0-1.483-0.826-2.227-2.479-2.227c-1.034,0-2.112,0.379-3.232,1.135l-1.05-1.471c1.355-1.077,2.896-1.616,4.618-1.616
		c1.315,0,2.392,0.333,3.226,0.997c0.832,0.665,1.249,1.712,1.249,3.14L752.664,322L752.664,322z M750.312,317.841v-0.944h-2.646
		c-1.694,0-2.541,0.533-2.541,1.598c0,0.546,0.21,0.963,0.63,1.249s1.005,0.431,1.754,0.431s1.403-0.21,1.963-0.63
		C750.032,319.124,750.312,318.555,750.312,317.841z"/>
	<path fill="#010101" d="M758.775,322l-4.494-11.172h2.436l3.402,8.44l3.4-8.44h2.438L761.463,322H758.775z"/>
	<path fill="#010101" d="M776.73,322h-2.143v-1.491c-0.925,1.106-2.163,1.659-3.718,1.659c-1.162,0-2.124-0.329-2.888-0.986
		c-0.765-0.658-1.146-1.537-1.146-2.636c0-1.102,0.405-1.922,1.218-2.468c0.813-0.546,1.911-0.819,3.297-0.819h3.047v-0.42
		c0-1.483-0.826-2.227-2.479-2.227c-1.036,0-2.114,0.379-3.234,1.135l-1.05-1.471c1.357-1.077,2.897-1.616,4.62-1.616
		c1.315,0,2.39,0.333,3.224,0.997c0.832,0.665,1.249,1.712,1.249,3.14L776.73,322L776.73,322z M774.379,317.841v-0.944h-2.646
		c-1.694,0-2.541,0.533-2.541,1.598c0,0.546,0.21,0.963,0.63,1.249s1.005,0.431,1.754,0.431s1.402-0.21,1.963-0.63
		C774.099,319.123,774.379,318.555,774.379,317.841z"/>
	<path fill="#010101" d="M784.679,309.252c-0.722,0-1.312,0.146-1.772,0.44c-0.462,0.293-0.693,0.738-0.693,1.332
		c0,0.598,0.231,1.052,0.693,1.365c0.462,0.314,1.443,0.654,2.949,1.021c1.506,0.364,2.64,0.875,3.401,1.532
		c0.762,0.658,1.146,1.627,1.146,2.908c0,1.28-0.483,2.319-1.449,3.117c-0.966,0.799-2.233,1.197-3.801,1.197
		c-2.298,0-4.333-0.791-6.111-2.373l1.554-1.869c1.484,1.288,3.024,1.934,4.62,1.934c0.798,0,1.433-0.172,1.9-0.516
		c0.47-0.343,0.704-0.798,0.704-1.365c0-0.565-0.223-1.008-0.662-1.322c-0.44-0.313-1.2-0.602-2.278-0.859
		c-1.078-0.26-1.896-0.497-2.457-0.715c-0.56-0.218-1.057-0.5-1.49-0.852c-0.868-0.657-1.303-1.666-1.303-3.022
		c0-1.357,0.494-2.404,1.48-3.142c0.985-0.733,2.209-1.103,3.665-1.103c0.938,0,1.867,0.154,2.793,0.462
		c0.924,0.309,1.722,0.742,2.394,1.303l-1.323,1.869c-0.434-0.393-1.021-0.715-1.764-0.967S785.398,309.252,784.679,309.252z"/>
	<path fill="#010101" d="M798.087,322.167c-1.555,0-2.892-0.528-4.011-1.586c-1.121-1.059-1.683-2.438-1.683-4.147
		c0-1.707,0.585-3.097,1.755-4.168c1.17-1.07,2.595-1.604,4.272-1.604s3.103,0.581,4.263,1.741l-1.386,1.701
		c-0.966-0.84-1.938-1.261-2.919-1.261c-0.979,0-1.831,0.326-2.552,0.978c-0.721,0.65-1.081,1.49-1.081,2.521
		c0,1.028,0.354,1.9,1.07,2.614c0.714,0.714,1.593,1.069,2.636,1.069s2.024-0.477,2.95-1.428l1.387,1.512
		C801.433,321.482,799.864,322.167,798.087,322.167z"/>
	<path fill="#010101" d="M811.086,313.033c-1.162,0-2.036,0.378-2.625,1.134c-0.588,0.756-0.882,1.771-0.882,3.045V322h-2.354
		v-11.172h2.354v2.247c0.378-0.7,0.893-1.274,1.544-1.725c0.648-0.446,1.34-0.679,2.068-0.69l0.021,2.373
		C811.17,313.033,811.128,313.033,811.086,313.033z"/>
	<path fill="#010101" d="M813.71,308.602c-0.294-0.295-0.44-0.645-0.44-1.051c0-0.404,0.146-0.756,0.44-1.05s0.646-0.44,1.051-0.44
		s0.756,0.146,1.05,0.44c0.295,0.294,0.44,0.646,0.44,1.05c0,0.406-0.146,0.756-0.44,1.051c-0.294,0.295-0.645,0.44-1.05,0.44
		C814.354,309.042,814.004,308.896,813.71,308.602z M815.915,322h-2.354v-11.172h2.354V322z"/>
	<path fill="#010101" d="M825.302,310.66c1.498,0,2.779,0.518,3.845,1.554c1.062,1.036,1.597,2.415,1.597,4.138
		c0,1.724-0.528,3.121-1.586,4.199c-1.059,1.078-2.288,1.617-3.695,1.617s-2.671-0.616-3.791-1.849v5.755h-2.352v-15.246h2.352
		v1.953C822.593,311.367,823.804,310.66,825.302,310.66z M821.627,316.434c0,1.064,0.322,1.938,0.966,2.615
		c0.646,0.68,1.43,1.02,2.354,1.02c0.924,0,1.729-0.336,2.415-1.01c0.686-0.672,1.027-1.543,1.027-2.613s-0.337-1.961-1.009-2.668
		s-1.477-1.061-2.415-1.061c-0.938,0-1.729,0.354-2.373,1.061C821.949,314.484,821.627,315.371,821.627,316.434z"/>
	<path fill="#010101" d="M836.327,312.717v5.67c0,0.532,0.141,0.956,0.42,1.271c0.28,0.313,0.673,0.473,1.177,0.473
		s0.986-0.244,1.448-0.734l0.967,1.658c-0.826,0.742-1.74,1.113-2.741,1.113s-1.854-0.349-2.562-1.039
		c-0.707-0.693-1.062-1.628-1.062-2.804v-5.607h-1.405v-1.89h1.405v-3.509h2.354v3.509h2.938v1.89L836.327,312.717L836.327,312.717z
		"/>
</g>
<g>
	<path fill="#010101" d="M10.802,145.309h2.808v12.582h-2.808l-5.994-7.884v7.884H2v-12.582h2.628l6.174,8.101V145.309z"/>
	<path fill="#010101" d="M24.824,156.487c-1.092,1.032-2.373,1.549-3.843,1.549c-1.47,0-2.686-0.452-3.645-1.358
		c-0.96-0.906-1.44-2.121-1.44-3.646c0-1.523,0.489-2.735,1.467-3.637c0.978-0.899,2.133-1.35,3.465-1.35s2.463,0.402,3.393,1.206
		c0.93,0.804,1.395,1.908,1.395,3.312v1.44H18.56c0.084,0.528,0.36,0.96,0.828,1.296c0.468,0.336,0.996,0.504,1.584,0.504
		c0.948,0,1.728-0.318,2.34-0.954L24.824,156.487z M22.232,150.745c-0.372-0.312-0.825-0.469-1.359-0.469s-1.023,0.162-1.467,0.486
		c-0.444,0.324-0.702,0.762-0.774,1.313h4.248C22.819,151.501,22.603,151.057,22.232,150.745z"/>
	<path fill="#010101" d="M33.806,153.427v-5.22h2.718v9.684h-2.718v-1.277c-0.672,0.947-1.539,1.422-2.601,1.422
		s-1.953-0.333-2.673-0.999c-0.72-0.666-1.08-1.653-1.08-2.961v-5.868h2.718v5.273c0,1.488,0.546,2.232,1.638,2.232
		c0.54,0,1.008-0.195,1.404-0.585S33.806,154.171,33.806,153.427z"/>
	<path fill="#010101" d="M42.302,150.151v4.339c0,0.371,0.096,0.662,0.288,0.872c0.192,0.211,0.42,0.315,0.684,0.315
		c0.504,0,0.93-0.228,1.278-0.685l1.008,1.891c-0.84,0.768-1.725,1.151-2.655,1.151c-0.93,0-1.716-0.307-2.358-0.918
		s-0.963-1.445-0.963-2.502v-4.465H38.45v-1.943h1.134v-2.898h2.718v2.898h2.34v1.943L42.302,150.151L42.302,150.151z"/>
	<path fill="#010101" d="M52.094,150.583c-0.804,0-1.404,0.285-1.8,0.854c-0.396,0.57-0.594,1.323-0.594,2.259v4.194H47v-9.684h2.7
		v1.278c0.348-0.396,0.783-0.731,1.305-1.009c0.522-0.275,1.053-0.42,1.593-0.432l0.018,2.539H52.094z"/>
	<path fill="#010101" d="M62.534,157.891h-2.538v-1.17c-0.696,0.876-1.557,1.313-2.583,1.313s-1.887-0.298-2.583-0.892
		c-0.696-0.594-1.044-1.386-1.044-2.376s0.36-1.729,1.08-2.223c0.72-0.492,1.704-0.738,2.952-0.738h2.016v-0.054
		c0-1.032-0.546-1.548-1.638-1.548c-0.468,0-0.963,0.093-1.485,0.277c-0.522,0.188-0.963,0.417-1.323,0.693l-1.206-1.746
		c1.272-0.924,2.724-1.386,4.356-1.386c1.176,0,2.136,0.294,2.88,0.882s1.116,1.518,1.116,2.79V157.891z M59.816,154.201v-0.469
		h-1.692c-1.08,0-1.62,0.336-1.62,1.009c0,0.349,0.129,0.614,0.387,0.802c0.258,0.186,0.627,0.277,1.107,0.277
		s0.903-0.146,1.269-0.439C59.633,155.087,59.816,154.693,59.816,154.201z"/>
	<path fill="#010101" d="M67.7,157.891H65v-13.355h2.7V157.891z"/>
	<path fill="#010101" d="M70.48,146.974c-0.306-0.306-0.459-0.681-0.459-1.125c0-0.443,0.153-0.818,0.459-1.125
		c0.306-0.306,0.681-0.459,1.125-0.459s0.819,0.153,1.125,0.459c0.306,0.307,0.459,0.682,0.459,1.125
		c0,0.444-0.153,0.819-0.459,1.125c-0.306,0.307-0.681,0.459-1.125,0.459S70.786,147.281,70.48,146.974z M72.955,157.891h-2.7
		v-9.684h2.7V157.891z"/>
	<path fill="#010101" d="M78.733,150.151v4.339c0,0.371,0.096,0.662,0.288,0.872c0.192,0.211,0.42,0.315,0.684,0.315
		c0.504,0,0.93-0.228,1.278-0.685l1.008,1.891c-0.84,0.768-1.725,1.151-2.655,1.151c-0.93,0-1.716-0.307-2.358-0.918
		s-0.963-1.445-0.963-2.502v-4.465h-1.134v-1.943h1.134v-2.898h2.718v2.898h2.34v1.943L78.733,150.151L78.733,150.151z"/>
	<path fill="#010101" d="M85.105,161.708c-0.948,0-1.842-0.385-2.682-1.152l1.224-1.998c0.456,0.443,0.924,0.666,1.404,0.666
		c0.252,0,0.468-0.123,0.648-0.369c0.18-0.246,0.27-0.507,0.27-0.782s-1.248-3.563-3.744-9.864h2.88l2.358,6.029l2.358-6.029h2.88
		l-4.5,11.412c-0.264,0.66-0.675,1.173-1.233,1.539C86.41,161.525,85.789,161.708,85.105,161.708z"/>
	<path fill="#010101" d="M16.454,174.648c0,1.403-0.486,2.586-1.458,3.547c-0.972,0.961-2.193,1.438-3.663,1.438
		s-2.691-0.479-3.663-1.438c-0.972-0.961-1.458-2.144-1.458-3.547c0-1.402,0.486-2.588,1.458-3.556
		c0.972-0.966,2.193-1.448,3.663-1.448s2.691,0.482,3.663,1.448C15.968,172.061,16.454,173.245,16.454,174.648z M8.93,174.648
		c0,0.793,0.225,1.438,0.675,1.937s1.026,0.747,1.728,0.747s1.278-0.249,1.728-0.747s0.675-1.144,0.675-1.937
		c0-0.791-0.225-1.438-0.675-1.942s-1.026-0.756-1.728-0.756s-1.278,0.252-1.728,0.756C9.155,173.208,8.93,173.857,8.93,174.648z"/>
	<path fill="#010101" d="M20.846,179.491l-3.834-9.702h2.808l2.412,6.104l2.412-6.104h2.808l-3.834,9.702H20.846z"/>
	<path fill="#010101" d="M37.172,178.086c-1.092,1.032-2.373,1.548-3.843,1.548c-1.47,0-2.686-0.452-3.645-1.358
		c-0.96-0.904-1.44-2.119-1.44-3.646c0-1.522,0.489-2.735,1.467-3.636c0.978-0.901,2.133-1.351,3.465-1.351
		c1.332,0,2.463,0.401,3.393,1.205c0.93,0.805,1.395,1.907,1.395,3.312v1.438h-7.056c0.084,0.528,0.36,0.961,0.828,1.297
		c0.468,0.336,0.996,0.504,1.584,0.504c0.948,0,1.728-0.317,2.34-0.953L37.172,178.086z M34.58,172.344
		c-0.372-0.312-0.825-0.468-1.359-0.468c-0.534,0-1.023,0.162-1.467,0.484c-0.444,0.324-0.702,0.764-0.774,1.313h4.248
		C35.167,173.102,34.952,172.657,34.58,172.344z"/>
	<path fill="#010101" d="M45.002,172.184c-0.804,0-1.404,0.284-1.8,0.854c-0.396,0.569-0.594,1.321-0.594,2.259v4.194h-2.7v-9.685
		h2.7v1.276c0.348-0.396,0.783-0.731,1.305-1.008c0.522-0.275,1.053-0.42,1.593-0.434l0.018,2.539h-0.522V172.184z"/>
	<path fill="#010101" d="M55.28,171.75v4.338c0,0.372,0.096,0.663,0.288,0.873s0.42,0.313,0.684,0.313
		c0.504,0,0.93-0.228,1.278-0.685l1.008,1.892c-0.84,0.769-1.725,1.15-2.655,1.15c-0.93,0-1.716-0.306-2.358-0.918
		c-0.642-0.611-0.963-1.445-0.963-2.502v-4.464h-1.134v-1.942h1.134v-2.897h2.718v2.897h2.34v1.942L55.28,171.75L55.28,171.75z"/>
	<path fill="#010101" d="M60.202,168.574c-0.306-0.308-0.459-0.683-0.459-1.125c0-0.443,0.153-0.819,0.459-1.125
		c0.306-0.308,0.681-0.459,1.125-0.459c0.444,0,0.819,0.151,1.125,0.459c0.306,0.306,0.459,0.682,0.459,1.125
		c0,0.442-0.153,0.817-0.459,1.125c-0.306,0.306-0.681,0.459-1.125,0.459C60.883,169.033,60.509,168.879,60.202,168.574z
		 M62.678,179.491h-2.7v-9.686h2.7V179.491z"/>
	<path fill="#010101" d="M74.125,174.271v5.221h-2.718v-5.292c0-0.769-0.117-1.332-0.351-1.692c-0.234-0.358-0.612-0.54-1.134-0.54
		s-0.984,0.195-1.386,0.585c-0.402,0.392-0.603,0.964-0.603,1.72v5.222h-2.7v-9.685h2.7v1.099c0.744-0.841,1.596-1.261,2.556-1.261
		c0.612,0,1.167,0.181,1.665,0.539c0.498,0.359,0.873,0.799,1.125,1.313c0.372-0.588,0.873-1.044,1.503-1.368
		c0.63-0.322,1.263-0.484,1.899-0.484c1.14,0,2.058,0.338,2.754,1.018c0.696,0.678,1.044,1.659,1.044,2.941v5.888h-2.717V174.2
		c0-1.488-0.546-2.232-1.638-2.232c-0.54,0-1.008,0.195-1.404,0.585C74.324,172.941,74.125,173.516,74.125,174.271z"/>
	<path fill="#010101" d="M91.315,178.086c-1.092,1.032-2.373,1.548-3.843,1.548c-1.47,0-2.686-0.452-3.645-1.358
		c-0.96-0.904-1.44-2.119-1.44-3.646c0-1.522,0.489-2.735,1.467-3.636c0.978-0.901,2.133-1.351,3.465-1.351s2.463,0.401,3.393,1.205
		c0.93,0.805,1.395,1.907,1.395,3.312v1.438h-7.056c0.084,0.528,0.36,0.961,0.828,1.297c0.468,0.336,0.996,0.504,1.584,0.504
		c0.948,0,1.728-0.317,2.34-0.953L91.315,178.086z M88.723,172.344c-0.372-0.312-0.825-0.468-1.359-0.468
		c-0.534,0-1.023,0.162-1.467,0.484c-0.444,0.324-0.702,0.764-0.774,1.313h4.248C89.31,173.102,89.095,172.657,88.723,172.344z"/>
</g>
<line fill="none" stroke="#000000" stroke-width="5" x1="105.482" y1="162.029" x2="1183.821" y2="162.029"/>
<path fill="none" stroke="#F64634" stroke-width="5" d="M104.57,162.691c1.358-0.655,2.711-1.312,4.06-1.967
	c27.515-13.351,58.702-24.151,92.444-24.151h6.353c33.745,0,64.932,10.802,92.448,24.151l4.061,1.967
	c27.515,13.352,58.702,24.152,92.443,24.152h6.354c33.742,0,64.933-10.802,92.443-24.152l4.062-1.967
	c27.514-13.351,58.701-24.151,92.442-24.151h6.356c33.741,0,64.928,10.802,92.446,24.151l4.058,1.967
	c27.518,13.352,58.703,24.152,92.443,24.152h6.353c33.749,0,64.936-10.802,92.449-24.152l4.061-1.967
	c27.514-13.351,58.7-24.151,92.443-24.151h6.356c33.738,0,64.931,10.802,92.443,24.151l4.061,1.967
	c27.517,13.352,58.701,24.152,92.443,24.152h6.353"/>
<polygon fill="#F64634" points="1177.695,180.577 1192.595,186.843 1177.695,193.109 "/>
<polygon points="1178.145,155.763 1193.044,162.029 1178.145,168.294 "/>
<g>
	<path fill="#010101" d="M916.535,17.839h-2.479V3.16h3.863l4.432,9.219l4.433-9.219h3.843v14.679h-2.478V6.374l-5.125,10.185
		h-1.386l-5.104-10.185L916.535,17.839L916.535,17.839z"/>
	<path fill="#010101" d="M935.771,22.292c-1.022,0-1.946-0.371-2.772-1.113l1.072-1.911c0.489,0.462,0.996,0.693,1.521,0.693
		c0.525,0,0.952-0.189,1.281-0.567c0.328-0.378,0.494-0.792,0.494-1.238c0-0.196-1.506-4.025-4.516-11.487h2.52l3.34,8.231
		l3.339-8.231h2.521l-5.419,13.271c-0.321,0.729-0.784,1.303-1.386,1.723C937.163,22.082,936.498,22.292,935.771,22.292z"/>
	<path d="M960.403,17.92h-6.426V3.241h5.712c0.994,0,1.852,0.119,2.572,0.357c0.721,0.238,1.257,0.56,1.606,0.966
		c0.672,0.756,1.008,1.61,1.008,2.562c0,1.148-0.363,2.002-1.092,2.562c-0.266,0.196-0.448,0.318-0.546,0.368
		c-0.098,0.049-0.272,0.129-0.524,0.241c0.909,0.196,1.634,0.606,2.173,1.229c0.539,0.623,0.809,1.396,0.809,2.32
		c0,1.022-0.35,1.925-1.05,2.709C963.819,17.466,962.405,17.92,960.403,17.92z M956.455,9.331h3.15c1.792,0,2.688-0.609,2.688-1.827
		c0-0.7-0.217-1.204-0.65-1.512c-0.435-0.308-1.106-0.462-2.017-0.462h-3.171V9.331z M956.455,15.631h3.886
		c0.909,0,1.606-0.144,2.089-0.431c0.483-0.287,0.725-0.829,0.725-1.627c0-1.302-1.043-1.953-3.129-1.953h-3.57V15.631z"/>
	<path d="M976.993,17.92h-2.142v-1.491c-0.925,1.106-2.163,1.659-3.718,1.659c-1.162,0-2.124-0.329-2.887-0.987
		c-0.764-0.658-1.145-1.537-1.145-2.636c0-1.099,0.405-1.921,1.218-2.467c0.812-0.546,1.911-0.819,3.297-0.819h3.045v-0.42
		c0-1.484-0.826-2.226-2.478-2.226c-1.036,0-2.114,0.378-3.234,1.134l-1.05-1.47c1.357-1.078,2.897-1.617,4.62-1.617
		c1.315,0,2.39,0.333,3.224,0.998c0.832,0.665,1.249,1.711,1.249,3.139V17.92z M974.642,13.762v-0.945h-2.646
		c-1.694,0-2.541,0.532-2.541,1.596c0,0.546,0.21,0.962,0.63,1.25s1.005,0.43,1.754,0.43s1.403-0.21,1.963-0.63
		C974.361,15.043,974.642,14.476,974.642,13.762z"/>
	<path d="M984.7,18.088c-1.555,0-2.892-0.528-4.011-1.585c-1.121-1.057-1.681-2.439-1.681-4.147s0.585-3.098,1.754-4.168
		c1.169-1.071,2.594-1.606,4.273-1.606s3.101,0.581,4.263,1.743l-1.386,1.701c-0.966-0.84-1.939-1.26-2.919-1.26
		c-0.98,0-1.831,0.325-2.552,0.976c-0.721,0.651-1.081,1.491-1.081,2.52c0,1.029,0.356,1.901,1.07,2.615s1.593,1.071,2.636,1.071
		s2.026-0.476,2.95-1.428l1.387,1.512C988.046,17.403,986.478,18.088,984.7,18.088z"/>
	<path d="M993.667,17.92h-2.352V2.338h2.352v9.156l4.536-4.746h3.024l-4.242,4.431l4.557,6.741h-2.855l-3.318-4.893l-1.701,1.722
		V17.92z"/>
	<path d="M1008.976,6.58c1.498,0,2.779,0.518,3.844,1.554c1.063,1.036,1.596,2.415,1.596,4.137s-0.528,3.122-1.586,4.2
		c-1.057,1.079-2.288,1.617-3.695,1.617s-2.671-0.616-3.791-1.848v1.68h-2.352V2.338h2.352v6.363
		C1006.267,7.287,1007.478,6.58,1008.976,6.58z M1005.301,12.355c0,1.064,0.322,1.936,0.966,2.614
		c0.645,0.679,1.429,1.019,2.353,1.019s1.729-0.336,2.415-1.008c0.686-0.672,1.029-1.543,1.029-2.615
		c0-1.071-0.337-1.959-1.009-2.667c-0.672-0.707-1.477-1.061-2.415-1.061c-0.938,0-1.729,0.354-2.373,1.061
		C1005.623,10.406,1005.301,11.291,1005.301,12.355z"/>
	<path d="M1025.923,16.419c-1.12,1.113-2.52,1.669-4.2,1.669c-1.68,0-3.08-0.557-4.199-1.669c-1.121-1.113-1.681-2.475-1.681-4.084
		s0.56-2.972,1.681-4.084c1.119-1.113,2.52-1.669,4.199-1.669c1.681,0,3.08,0.556,4.2,1.669c1.12,1.113,1.68,2.475,1.68,4.084
		S1027.043,15.306,1025.923,16.419z M1019.192,14.969c0.665,0.679,1.509,1.019,2.53,1.019c1.022,0,1.865-0.339,2.531-1.019
		c0.664-0.679,0.997-1.557,0.997-2.635s-0.333-1.957-0.997-2.636c-0.666-0.679-1.509-1.019-2.531-1.019
		c-1.021,0-1.865,0.34-2.53,1.019c-0.665,0.679-0.997,1.558-0.997,2.636S1018.527,14.291,1019.192,14.969z"/>
	<path d="M1032.097,11.872v6.048h-2.352V6.748h2.352v2.037c0.378-0.686,0.899-1.225,1.564-1.617
		c0.665-0.392,1.383-0.588,2.152-0.588c1.261,0,2.279,0.385,3.056,1.155c0.777,0.77,1.166,1.883,1.166,3.339v6.846h-2.353v-6.132
		c0-2.058-0.854-3.087-2.562-3.087c-0.812,0-1.52,0.27-2.121,0.809C1032.397,10.049,1032.097,10.836,1032.097,11.872z"/>
	<path d="M1053.18,13.363h-8.757c0.056,0.812,0.427,1.467,1.113,1.964c0.686,0.497,1.47,0.745,2.352,0.745
		c1.4,0,2.464-0.441,3.192-1.323l1.344,1.47c-1.204,1.247-2.771,1.869-4.704,1.869c-1.567,0-2.901-0.521-4-1.564
		c-1.1-1.043-1.648-2.443-1.648-4.2c0-1.757,0.56-3.153,1.68-4.189c1.12-1.036,2.439-1.554,3.959-1.554
		c1.519,0,2.81,0.458,3.874,1.375c1.063,0.917,1.596,2.181,1.596,3.791V13.363z M1044.423,11.515h6.405
		c0-0.938-0.294-1.659-0.882-2.163s-1.312-0.756-2.174-0.756s-1.635,0.263-2.32,0.788
		C1044.766,9.908,1044.423,10.619,1044.423,11.515z"/>
</g>
</svg>
