<?xml version="1.0" encoding="utf-8"?>
<!-- Generator: Adobe Illustrator 18.1.0, SVG Export Plug-In . SVG Version: 6.00 Build 0)  -->
<!DOCTYPE svg PUBLIC "-//W3C//DTD SVG 1.1//EN" "http://www.w3.org/Graphics/SVG/1.1/DTD/svg11.dtd">
<svg version="1.1" id="Layer_1" xmlns="http://www.w3.org/2000/svg" xmlns:xlink="http://www.w3.org/1999/xlink" x="0px" y="0px"
	 viewBox="277 -21.1 877 331.1" enable-background="new 277 -21.1 877 331.1" xml:space="preserve">
<g>
	<path fill="#010101" d="M491.3,119.9l6,4c0,0-17,1.3-26.7,6c1.6,5.2,5.7,8.3,11.3,7.3c5.7-1,6.2-4.7,7-10.7l3.7-0.3
		c-0.3,7.7-1.7,12.7-10.7,14c-9,1.3-11-5-13.3-9.7c-0.9-0.2-0.8-2.3,0-3C468.6,127.6,474.6,123.9,491.3,119.9"/>
	<path fill="#010101" d="M465.6,130.7c0,0-1.7,13.6-12.3,11.9c-10.7-1.7-9.3-7.1-9.7-11.9h3.3c-0.4,4.4,0.2,7.3,6,8.8
		c5.8,1.5,10.7-2.3,11-8.8c0,0-12.7-2.4-24-1.4l3.3-4.7c0,0,18.3,1.7,23.3,3C466.9,128.8,466.9,129.9,465.6,130.7"/>
	<path fill="#010101" d="M462.3,131.8c-0.2,2.2-3.1,3.7-6.4,3.3c-3.3-0.3-5.8-2.4-5.6-4.5c0.2-2.2,3.1-3.7,6.4-3.3
		C460,127.6,462.5,129.6,462.3,131.8"/>
	<path fill="#010101" d="M484.7,128.5c0.4,2.1-1.9,4.4-5.2,5c-3.3,0.6-6.2-0.6-6.6-2.8c-0.4-2.1,1.9-4.4,5.2-5
		C481.3,125.1,484.3,126.3,484.7,128.5"/>
	<path fill="#010101" d="M452.8,154.1c4.5-5.5,9.2-8.3,15.8-8.7c6.7-0.3,11,3.8,14.3,6.2C472.6,149.6,464.2,148,452.8,154.1"/>
	<path fill="#010101" d="M467.9,167.5c-19.9,0-36.1-16.2-36.1-36.1s16.2-36.1,36.1-36.1s36.1,16.2,36.1,36.1
		S487.8,167.5,467.9,167.5L467.9,167.5z M467.9,99.4c-17.7,0-32.1,14.4-32.1,32.1c0,17.7,14.4,32.1,32.1,32.1
		c17.7,0,32.1-14.4,32.1-32.1C500,113.8,485.6,99.4,467.9,99.4L467.9,99.4z"/>
</g>
<g>
	<path fill="#010101" d="M941.7,155.3c-0.4,1.4-4.5,2.7-8,1.7c-3.5-1.1-5.2-4.1-4.8-5.5c0.4-1.4,3.5,0.3,7,1.3
		C939.5,153.8,942.1,153.8,941.7,155.3"/>
	<g>
		<path fill="#010101" d="M940.9,167.5c-19.9,0-36.1-16.2-36.1-36.1s16.2-36.1,36.1-36.1c19.9,0,36.1,16.2,36.1,36.1
			C977,151.4,960.8,167.5,940.9,167.5L940.9,167.5z M940.9,99.4c-17.7,0-32.1,14.4-32.1,32.1c0,17.7,14.4,32.1,32.1,32.1
			c17.7,0,32.1-14.4,32.1-32.1C973,113.8,958.6,99.4,940.9,99.4L940.9,99.4z"/>
	</g>
	<path fill="#010101" d="M968.5,125.6c0-0.1-0.1-0.2-0.2-0.3c-6.7-1.6-13.6-1.8-19.9-0.6c-0.9,0.2-1.8,0.4-2.7,0.6
		c-1.3,0.4-2.6,0.7-3.8,0.8c-2.4,0.2-4.2-0.3-6.1-0.8c-0.8-0.2-1.6-0.4-2.4-0.6c-3-0.6-6.3-0.9-9.6-0.9c-3.8,0-7.5,0.4-10.6,1.3
		c-0.1,0-0.2,0.2-0.2,0.3c0,1.3,0.1,2.4,0.3,3.4c0.1,0.4,0.5,0.6,0.7,0.7c0.1,0,0.2,0.1,0.2,0.1c0.8,0.6,1.1,2.3,1.3,3.8
		c0.1,0.6,0.2,1.2,0.3,1.7c0.8,3.3,2.1,5.3,4,6.4c1.2,0.7,3.1,1.1,5.2,1.1c4.4,0,9.6-1.8,11.5-5.8c1-1.3,2-4.3,3.1-5.5
		c0.1-0.1,0.5-0.3,1.1-0.3c0.6,0,1,0.1,1.2,0.2c0.7,1,1.1,1.9,1.5,2.8c0.5,1.1,1,2.1,1.9,3.3c3.4,4.4,7.7,5.4,10.7,5.4h0
		c1,0,4.5-0.1,6.4-1.3c2.2-1.4,2.8-4.3,3.3-7c0.3-1.5,0.6-3.1,1.2-4.5c0-0.1,0.2-0.1,0.4-0.2c0.3-0.1,0.7-0.2,0.9-0.7
		C968.4,128.4,968.7,126.5,968.5,125.6 M919.3,129.5c-1.2,2.6-1,6.1-0.5,8.7c-0.7-2-1.2-4.6-1.2-6.3c0.1-3.7,1.6-4.8,4.6-5.4
		C921,127.1,919.9,128.1,919.3,129.5 M947.7,128.5c-1,1.2-1.7,2.4-2,3.7c-0.2-1.6-0.2-3.2,0.8-4.1c0.6-0.6,2.1-1.1,3.9-1.6
		C949.3,127.2,948.3,128,947.7,128.5"/>
</g>
<path fill="#EF4836" d="M943.2,48.1c-0.9,3-8,15.8,0.4,15.6C949.8,63.5,947.5,56.8,943.2,48.1z"/>
<path fill="#EF4836" d="M950.7,64.7c-0.9,3-8,15.8,0.4,15.6C957.3,80.1,955,73.4,950.7,64.7z"/>
<path fill="#EF4836" d="M938,69.1c-0.9,3-8,15.8,0.4,15.6C944.6,84.6,942.3,77.8,938,69.1z"/>
<path stroke="#FFFFFF" d="M1043.7,27.5c0.1-4.7,1-9.6,2-14.4c2.4-11.9,5.3-26.8-11.4-30.3c-4.1-0.8-8-0.2-11.2,2
	c-3.4,2.2-6.1,6.1-8,11.2c-0.7,0.1-1.3,0.3-1.9,0.6c-1.7,0.9-24.7,16.9-26.5,18.2c-1.7,1.3-5.2,2.6-1.7,7.8c3.5,5.2,6.6,11,4.8,12.1
	c-1.1,0.7-26.5,2.4-29.5,1.7c0.4-1.9-1.3-8-5.6-5.6c-3,1.7-6.5,18.2-1.3,20c5.2,1.7,5.6-5.6,6.9-5.6c2.2,0,35.6,2.2,35.6,2.2
	c5.2,1.7,9.1,6.9,10,8.7c0.9,1.7,4.3,5.2,6.9,3.5c12.8-8.5,31.7-21.7,33-23.9c1.3-2.2,2.2-2.6,0.4-5.2
	C1045.7,30,1044.9,29,1043.7,27.5z M1027.3-8.7c1.5-1,3.3-1.3,5.4-0.9c8.4,1.7,8.2,6.9,5.3,21.1c-0.5,2.5-1,5-1.4,7.6
	c-5.3-6.2-11.6-13.5-15.2-17.9C1022.8-3.5,1024.9-7.1,1027.3-8.7z"/>
<path stroke="#FFFFFF" d="M425.7,17.8l0-13.8c0-10.1-8.2-18.4-18.3-18.4c-10.1,0-18.4,8.2-18.4,18.3l0,13.8c-5.1,0-9.2,4.1-9.2,9.2
	l-0.1,23c0,5.1,4.1,9.2,9.2,9.2l36.8,0.1c5.1,0,9.2-4.1,9.2-9.2l0.1-23C434.9,22,430.8,17.9,425.7,17.8z M409.5,40.1l0,7.6
	c0,1.3-1,2.3-2.3,2.3c-1.3,0-2.3-1-2.3-2.3l0-7.6c-1.3-0.8-2.3-2.2-2.3-3.9c0-2.5,2.1-4.6,4.6-4.6c2.5,0,4.6,2.1,4.6,4.6
	C411.8,37.9,410.9,39.3,409.5,40.1z M416.5,17.8l-18.4-0.1l0-13.8c0-5.1,4.1-9.2,9.2-9.2c5.1,0,9.2,4.1,9.2,9.2L416.5,17.8z"/>
<polygon fill="#EF4836" points="437.7,63.1 442.7,77.5 437.4,76.8 451.4,92.1 447.4,80.1 452.7,80.8 "/>
<g enable-background="new    ">
	<path d="M395,195.7v3.3h-7.8v3.6h7.4v3.3h-7.4v6.6h-3.7v-16.8L395,195.7L395,195.7z"/>
	<path d="M398.1,197.9c-0.4-0.4-0.6-0.9-0.6-1.5c0-0.6,0.2-1.1,0.6-1.5c0.4-0.4,0.9-0.6,1.5-0.6s1.1,0.2,1.5,0.6
		c0.4,0.4,0.6,0.9,0.6,1.5c0,0.6-0.2,1.1-0.6,1.5c-0.4,0.4-0.9,0.6-1.5,0.6S398.5,198.3,398.1,197.9z M401.4,212.4h-3.6v-12.9h3.6
		V212.4z"/>
	<path d="M408,199.5l2.2,3.5l2.3-3.5h4.2l-4.4,6.3l4.6,6.6h-4.3l-2.5-3.6l-2.4,3.6h-4.2l4.5-6.6l-4.3-6.3L408,199.5L408,199.5z"/>
	<path d="M430.1,210.6c-1.5,1.4-3.2,2.1-5.1,2.1c-2,0-3.6-0.6-4.9-1.8s-1.9-2.8-1.9-4.9c0-2,0.7-3.6,2-4.8c1.3-1.2,2.8-1.8,4.6-1.8
		s3.3,0.5,4.5,1.6s1.9,2.5,1.9,4.4v1.9h-9.4c0.1,0.7,0.5,1.3,1.1,1.7c0.6,0.4,1.3,0.7,2.1,0.7c1.3,0,2.3-0.4,3.1-1.3L430.1,210.6z
		 M426.6,202.9c-0.5-0.4-1.1-0.6-1.8-0.6c-0.7,0-1.4,0.2-2,0.6c-0.6,0.4-0.9,1-1,1.8h5.7C427.4,203.9,427.1,203.3,426.6,202.9z"/>
	<path d="M438.9,212.6c-1.5,0-2.9-0.6-4.1-1.9c-1.2-1.3-1.8-2.9-1.8-4.8s0.6-3.5,1.8-4.7c1.2-1.2,2.5-1.8,4.1-1.8s2.8,0.6,3.8,1.7
		v-6.3h3.6v17.8h-3.6v-1.7C441.7,212,440.4,212.6,438.9,212.6z M436.6,206c0,1,0.3,1.9,0.9,2.6c0.6,0.7,1.4,1,2.2,1s1.5-0.3,2.1-1
		c0.6-0.7,0.9-1.5,0.9-2.6s-0.3-1.9-0.9-2.6c-0.6-0.7-1.3-1-2.1-1c-0.8,0-1.6,0.4-2.2,1.1S436.6,205,436.6,206z"/>
	<path d="M471.4,201.9l-4.5,9.2h-2.2l-4.5-9.2v10.6h-3.7v-16.8h5.1l4.3,9.2l4.3-9.2h5v16.8h-3.7V201.9z"/>
	<path d="M479.2,197.9c-0.4-0.4-0.6-0.9-0.6-1.5c0-0.6,0.2-1.1,0.6-1.5c0.4-0.4,0.9-0.6,1.5-0.6c0.6,0,1.1,0.2,1.5,0.6
		c0.4,0.4,0.6,0.9,0.6,1.5c0,0.6-0.2,1.1-0.6,1.5c-0.4,0.4-0.9,0.6-1.5,0.6C480.1,198.5,479.6,198.3,479.2,197.9z M482.5,212.4h-3.6
		v-12.9h3.6V212.4z"/>
	<path d="M489.5,205.2v7.2h-3.6v-12.9h3.6v1.4c1.1-1.1,2.3-1.7,3.7-1.7s2.5,0.5,3.4,1.4c0.9,1,1.4,2.2,1.4,3.8v7.8h-3.6v-7.3
		c0-2-0.7-3-2.2-3c-0.7,0-1.3,0.3-1.9,0.8C489.8,203.5,489.5,204.2,489.5,205.2z"/>
	<path d="M506.4,212.6c-1.5,0-2.9-0.6-4.1-1.9c-1.2-1.3-1.8-2.9-1.8-4.8s0.6-3.5,1.8-4.7c1.2-1.2,2.5-1.8,4.1-1.8s2.8,0.6,3.8,1.7
		v-6.3h3.6v17.8h-3.6v-1.7C509.2,212,508,212.6,506.4,212.6z M504.2,206c0,1,0.3,1.9,0.9,2.6c0.6,0.7,1.4,1,2.2,1s1.5-0.3,2.1-1
		c0.6-0.7,0.9-1.5,0.9-2.6s-0.3-1.9-0.9-2.6c-0.6-0.7-1.3-1-2.1-1c-0.8,0-1.6,0.4-2.2,1.1S504.2,205,504.2,206z"/>
	<path d="M527,208.4c0,1.3-0.5,2.3-1.4,3.1c-0.9,0.8-2.1,1.2-3.6,1.2c-1,0-2-0.2-3-0.5c-1-0.3-2-0.9-2.8-1.5l1.6-2.3
		c1.3,1,2.8,1.6,4.3,1.6c0.5,0,0.8-0.1,1.1-0.3c0.3-0.2,0.4-0.4,0.4-0.7c0-0.3-0.2-0.6-0.6-0.8c-0.4-0.3-0.9-0.5-1.6-0.7
		c-0.7-0.2-1.3-0.4-1.6-0.6c-0.4-0.2-0.8-0.4-1.3-0.7c-1-0.6-1.5-1.5-1.5-2.7s0.5-2.2,1.4-2.9c1-0.8,2.2-1.1,3.7-1.1s3,0.5,4.6,1.5
		l-1.3,2.4c-1.1-0.8-2.2-1.1-3.3-1.1s-1.7,0.3-1.7,0.9c0,0.3,0.2,0.6,0.5,0.8c0.4,0.2,0.9,0.4,1.8,0.7c0.8,0.3,1.4,0.5,1.7,0.6
		c0.3,0.1,0.8,0.3,1.2,0.6C526.5,206.2,527,207.2,527,208.4z"/>
	<path d="M540.9,210.6c-1.5,1.4-3.2,2.1-5.1,2.1c-2,0-3.6-0.6-4.9-1.8c-1.3-1.2-1.9-2.8-1.9-4.9c0-2,0.7-3.6,2-4.8
		c1.3-1.2,2.8-1.8,4.6-1.8s3.3,0.5,4.5,1.6s1.9,2.5,1.9,4.4v1.9h-9.4c0.1,0.7,0.5,1.3,1.1,1.7c0.6,0.4,1.3,0.7,2.1,0.7
		c1.3,0,2.3-0.4,3.1-1.3L540.9,210.6z M537.5,202.9c-0.5-0.4-1.1-0.6-1.8-0.6c-0.7,0-1.4,0.2-2,0.6c-0.6,0.4-0.9,1-1,1.8h5.7
		C538.2,203.9,537.9,203.3,537.5,202.9z"/>
	<path d="M548.7,202.1v5.8c0,0.5,0.1,0.9,0.4,1.2c0.3,0.3,0.6,0.4,0.9,0.4c0.7,0,1.2-0.3,1.7-0.9l1.3,2.5c-1.1,1-2.3,1.5-3.5,1.5
		c-1.2,0-2.3-0.4-3.1-1.2c-0.9-0.8-1.3-1.9-1.3-3.3v-6h-1.5v-2.6h1.5v-3.9h3.6v3.9h3.1v2.6H548.7z"/>
</g>
<g enable-background="new    ">
	<path d="M855.9,203.9h3.8v6c-1.7,1.9-4,2.8-6.9,2.8c-2.5,0-4.5-0.8-6.2-2.4c-1.7-1.6-2.5-3.7-2.5-6.2s0.9-4.6,2.6-6.2
		c1.7-1.7,3.8-2.5,6.2-2.5s4.5,0.8,6.3,2.4l-1.9,2.8c-0.8-0.7-1.4-1.1-2.1-1.4c-0.6-0.2-1.3-0.4-2.1-0.4c-1.4,0-2.6,0.5-3.6,1.5
		c-1,1-1.5,2.2-1.5,3.8s0.5,2.9,1.4,3.8s2.1,1.4,3.3,1.4c1.3,0,2.4-0.2,3.2-0.7L855.9,203.9L855.9,203.9z"/>
	<path d="M869.5,202.7c-1.1,0-1.9,0.4-2.4,1.1c-0.5,0.8-0.8,1.8-0.8,3v5.6h-3.6v-12.9h3.6v1.7c0.5-0.5,1-1,1.7-1.3
		c0.7-0.4,1.4-0.6,2.1-0.6l0,3.4L869.5,202.7L869.5,202.7z"/>
	<path d="M885.2,206c0,1.9-0.6,3.4-1.9,4.7c-1.3,1.3-2.9,1.9-4.9,1.9c-2,0-3.6-0.6-4.9-1.9c-1.3-1.3-1.9-2.9-1.9-4.7
		s0.6-3.5,1.9-4.7c1.3-1.3,2.9-1.9,4.9-1.9c2,0,3.6,0.6,4.9,1.9C884.6,202.5,885.2,204.1,885.2,206z M875.2,206
		c0,1.1,0.3,1.9,0.9,2.6s1.4,1,2.3,1c0.9,0,1.7-0.3,2.3-1c0.6-0.7,0.9-1.5,0.9-2.6c0-1.1-0.3-1.9-0.9-2.6c-0.6-0.7-1.4-1-2.3-1
		c-0.9,0-1.7,0.3-2.3,1C875.5,204.1,875.2,204.9,875.2,206z"/>
	<path d="M894.4,212.4h-3.7l-4.4-12.9h3.7l2.5,7.8l2.5-7.8h3.5l2.5,7.8l2.5-7.8h3.7l-4.4,12.9h-3.7l-2.4-7L894.4,212.4z"/>
	<path d="M913.6,202.1v5.8c0,0.5,0.1,0.9,0.4,1.2c0.3,0.3,0.6,0.4,0.9,0.4c0.7,0,1.2-0.3,1.7-0.9l1.3,2.5c-1.1,1-2.3,1.5-3.5,1.5
		c-1.2,0-2.3-0.4-3.1-1.2c-0.9-0.8-1.3-1.9-1.3-3.3v-6h-1.5v-2.6h1.5v-3.9h3.6v3.9h3.1v2.6H913.6z"/>
	<path d="M923.5,205.5v7h-3.6v-17.8h3.6v6.3c1.1-1.1,2.3-1.7,3.7-1.7c1.4,0,2.5,0.5,3.4,1.4c0.9,1,1.4,2.2,1.4,3.8v7.8h-3.6v-7.1
		c0-2-0.7-3-2.2-3c-0.7,0-1.4,0.3-1.9,0.8C923.7,203.7,923.5,204.5,923.5,205.5z"/>
	<path d="M956.9,201.9l-4.5,9.2h-2.2l-4.5-9.2v10.6h-3.7v-16.8h5.1l4.3,9.2l4.3-9.2h5v16.8h-3.7V201.9L956.9,201.9z"/>
	<path d="M964.7,197.9c-0.4-0.4-0.6-0.9-0.6-1.5c0-0.6,0.2-1.1,0.6-1.5c0.4-0.4,0.9-0.6,1.5-0.6s1.1,0.2,1.5,0.6
		c0.4,0.4,0.6,0.9,0.6,1.5c0,0.6-0.2,1.1-0.6,1.5c-0.4,0.4-0.9,0.6-1.5,0.6S965.2,198.3,964.7,197.9z M968,212.4h-3.6v-12.9h3.6
		V212.4z"/>
	<path d="M975.1,205.2v7.2h-3.6v-12.9h3.6v1.4c1.1-1.1,2.3-1.7,3.7-1.7s2.5,0.5,3.4,1.4c0.9,1,1.4,2.2,1.4,3.8v7.8h-3.6v-7.3
		c0-2-0.7-3-2.2-3c-0.7,0-1.3,0.3-1.9,0.8C975.3,203.5,975.1,204.2,975.1,205.2z"/>
	<path d="M992,212.6c-1.5,0-2.9-0.6-4.1-1.9c-1.2-1.3-1.8-2.9-1.8-4.8s0.6-3.5,1.8-4.7c1.2-1.2,2.5-1.8,4.1-1.8
		c1.6,0,2.8,0.6,3.8,1.7v-6.3h3.6v17.8h-3.6v-1.7C994.8,212,993.5,212.6,992,212.6z M989.7,206c0,1,0.3,1.9,0.9,2.6
		c0.6,0.7,1.4,1,2.2,1c0.8,0,1.5-0.3,2.1-1c0.6-0.7,0.9-1.5,0.9-2.6s-0.3-1.9-0.9-2.6c-0.6-0.7-1.3-1-2.1-1c-0.8,0-1.6,0.4-2.2,1.1
		C990,204.1,989.7,205,989.7,206z"/>
	<path d="M1012.5,208.4c0,1.3-0.5,2.3-1.4,3.1s-2.1,1.2-3.6,1.2c-1,0-2-0.2-3-0.5c-1-0.3-2-0.9-2.8-1.5l1.6-2.3
		c1.3,1,2.8,1.6,4.3,1.6c0.5,0,0.8-0.1,1.1-0.3c0.3-0.2,0.4-0.4,0.4-0.7c0-0.3-0.2-0.6-0.6-0.8c-0.4-0.3-0.9-0.5-1.6-0.7
		c-0.7-0.2-1.3-0.4-1.6-0.6c-0.4-0.2-0.8-0.4-1.3-0.7c-1-0.6-1.5-1.5-1.5-2.7s0.5-2.2,1.4-2.9s2.2-1.1,3.7-1.1c1.5,0,3,0.5,4.6,1.5
		l-1.3,2.4c-1.1-0.8-2.2-1.1-3.3-1.1c-1.1,0-1.7,0.3-1.7,0.9c0,0.3,0.2,0.6,0.5,0.8c0.4,0.2,0.9,0.4,1.8,0.7s1.4,0.5,1.7,0.6
		c0.3,0.1,0.8,0.3,1.2,0.6C1012,206.2,1012.5,207.2,1012.5,208.4z"/>
	<path d="M1026.4,210.6c-1.5,1.4-3.2,2.1-5.1,2.1s-3.6-0.6-4.9-1.8s-1.9-2.8-1.9-4.9c0-2,0.7-3.6,2-4.8c1.3-1.2,2.8-1.8,4.6-1.8
		c1.8,0,3.3,0.5,4.5,1.6s1.9,2.5,1.9,4.4v1.9h-9.4c0.1,0.7,0.5,1.3,1.1,1.7c0.6,0.4,1.3,0.7,2.1,0.7c1.3,0,2.3-0.4,3.1-1.3
		L1026.4,210.6z M1023,202.9c-0.5-0.4-1.1-0.6-1.8-0.6c-0.7,0-1.4,0.2-2,0.6s-0.9,1-1,1.8h5.7C1023.8,203.9,1023.5,203.3,1023,202.9
		z"/>
	<path d="M1034.2,202.1v5.8c0,0.5,0.1,0.9,0.4,1.2c0.3,0.3,0.6,0.4,0.9,0.4c0.7,0,1.2-0.3,1.7-0.9l1.3,2.5c-1.1,1-2.3,1.5-3.5,1.5
		s-2.3-0.4-3.1-1.2c-0.9-0.8-1.3-1.9-1.3-3.3v-6h-1.5v-2.6h1.5v-3.9h3.6v3.9h3.1v2.6H1034.2z"/>
</g>
<line fill="none" stroke="#D8D8DB" x1="717" y1="-21.1" x2="717" y2="310"/>
<g>
	<path fill="#231F20" d="M387.9,255.7c0.4,0.3,0.6,0.7,0.6,1.2c0,0.9-0.6,1.5-1.5,1.5c-0.8,0-1.5-0.6-1.5-1.5c0-0.5,0.2-0.9,0.4-1.3
		l1.4-2.1h1.4L387.9,255.7z M391.4,255.7c0.4,0.3,0.6,0.7,0.6,1.2c0,0.9-0.6,1.5-1.5,1.5c-0.8,0-1.5-0.6-1.5-1.5
		c0-0.5,0.2-0.9,0.4-1.3l1.4-2.1h1.4L391.4,255.7z"/>
	<path fill="#231F20" d="M394,270.5v-16.8h2.8v16.8H394z"/>
	<path fill="#231F20" d="M403.1,255.3c0,0.5-0.2,0.9-0.4,1.2l-1.4,2.1h-1.4l0.9-2.1c-0.4-0.3-0.6-0.7-0.6-1.2c0-0.9,0.6-1.5,1.5-1.5
		C402.4,253.7,403.1,254.3,403.1,255.3z"/>
	<path fill="#231F20" d="M427.5,262.6v7.9h-2.8v-7.2c0-1.9-1.2-3.1-3-3.1c-2.2,0.1-3.5,1.8-3.5,4v6.3h-2.8v-7.2c0-1.9-1.1-3.1-3-3.1
		c-2.2,0.1-3.6,1.8-3.6,4v6.3h-2.7v-12.8h2.7v2.5c0.9-1.8,2.5-2.6,4.6-2.6c2.3,0,3.8,1.1,4.4,3.1c0.8-2.1,2.5-3.1,4.8-3.1
		C425.8,257.7,427.5,259.5,427.5,262.6z"/>
	<path fill="#231F20" d="M449.7,262.6v7.9h-2.8v-7.2c0-1.9-1.2-3.1-3.1-3.1c-2.1,0-3.4,1.5-3.6,3.5v6.8h-2.8v-12.8h2.8v2.4
		c0.9-1.8,2.5-2.5,4.7-2.5C447.9,257.7,449.7,259.5,449.7,262.6z"/>
	<path fill="#231F20" d="M465.5,264.1c0,3.8-2.7,6.5-6.6,6.5c-4,0-6.7-2.6-6.7-6.5c0-3.9,2.7-6.5,6.7-6.5
		C462.8,257.7,465.5,260.3,465.5,264.1z M454.9,264.2c0,2.5,1.6,4.2,3.9,4.2c2.3,0,3.9-1.7,3.9-4.2c0-2.4-1.6-4.1-3.9-4.1
		C456.5,260,454.9,261.7,454.9,264.2z"/>
	<path fill="#231F20" d="M475.6,269.7c-1,0.6-2.1,0.9-3.1,0.9c-1.9,0-3.6-1.1-3.6-3.7v-6.6h-1.8v-2.1h1.8v-3.5h2.7v3.5h3.8v2.1h-3.8
		v6.1c0,1.3,0.5,1.7,1.4,1.7c0.6,0,1.2-0.2,1.9-0.6L475.6,269.7z"/>
	<path fill="#231F20" d="M492.6,258.9l-1,2c-1.1-0.7-2.5-1.1-3.7-1.1c-1.1,0-1.9,0.4-1.9,1.3c0,2.4,6.8,1.1,6.8,5.7
		c0,2.6-2.3,3.8-4.9,3.8c-1.9,0-3.9-0.6-5.1-1.8l1-2c1.1,1,2.9,1.6,4.3,1.6c1.2,0,2.1-0.4,2.1-1.4c0-2.6-6.7-1.2-6.7-5.8
		c0-2.6,2.3-3.7,4.7-3.7C489.7,257.6,491.4,258.1,492.6,258.9z"/>
	<path fill="#231F20" d="M516.9,262.6v7.9h-2.8v-7.2c0-1.9-1.2-3.1-3-3.1c-2.2,0.1-3.5,1.8-3.5,4v6.3h-2.8v-7.2c0-1.9-1.1-3.1-3-3.1
		c-2.2,0.1-3.6,1.8-3.6,4v6.3h-2.7v-12.8h2.7v2.5c0.9-1.8,2.5-2.6,4.6-2.6c2.3,0,3.8,1.1,4.4,3.1c0.8-2.1,2.5-3.1,4.8-3.1
		C515.2,257.7,516.9,259.5,516.9,262.6z"/>
	<path fill="#231F20" d="M528.3,269c-0.9,1.1-2.4,1.7-4.2,1.7c-2.8,0-4.5-1.7-4.5-4c0-2.3,1.8-3.8,4.8-3.8h3.9v-0.4
		c0-1.6-1-2.6-3-2.6c-1.2,0-2.5,0.4-3.8,1.3l-1.1-1.9c1.8-1.1,3.1-1.6,5.5-1.6c3.3,0,5.1,1.7,5.2,4.5l0,8.4h-2.7V269z M528.3,266
		v-1.2h-3.5c-1.8,0-2.6,0.5-2.6,1.7c0,1.2,0.9,1.9,2.5,1.9C526.6,268.5,528.1,267.4,528.3,266z"/>
	<path fill="#231F20" d="M537.4,260.3c0.9-1.7,2.4-2.6,4.4-2.6v2.6c-2.6-0.1-4.2,1.4-4.4,3.6v6.7h-2.8v-12.8h2.8V260.3z"/>
	<path fill="#231F20" d="M551.4,269.7c-1,0.6-2.1,0.9-3.1,0.9c-1.9,0-3.6-1.1-3.6-3.7v-6.6h-1.8v-2.1h1.8v-3.5h2.7v3.5h3.8v2.1h-3.8
		v6.1c0,1.3,0.5,1.7,1.4,1.7c0.6,0,1.2-0.2,1.9-0.6L551.4,269.7z"/>
	<path fill="#231F20" d="M366.8,294h-9.6c0.4,2,1.9,3.2,4,3.2c1.4,0,2.7-0.5,3.6-1.5l1.5,1.6c-1.2,1.4-3.1,2.2-5.3,2.2
		c-3.9,0-6.5-2.6-6.5-6.5c0-3.9,2.7-6.5,6.5-6.5C365.3,286.5,367.1,289.4,366.8,294z M364.4,292c-0.1-2.1-1.5-3.3-3.6-3.3
		c-2,0-3.4,1.3-3.7,3.3H364.4z"/>
	<path fill="#231F20" d="M381.9,291.4v7.9h-2.8v-7.2c0-1.9-1.2-3.1-3.1-3.1c-2.1,0-3.4,1.5-3.6,3.5v6.8h-2.8v-12.8h2.8v2.4
		c0.9-1.8,2.5-2.5,4.7-2.5C380.1,286.5,381.9,288.3,381.9,291.4z"/>
	<path fill="#231F20" d="M397.7,292.9c0,3.8-2.7,6.5-6.6,6.5c-4,0-6.7-2.6-6.7-6.5c0-3.9,2.7-6.5,6.7-6.5
		C395,286.5,397.7,289.1,397.7,292.9z M387.1,293c0,2.5,1.6,4.2,3.9,4.2c2.3,0,3.9-1.7,3.9-4.2c0-2.4-1.6-4.1-3.9-4.1
		C388.7,288.8,387.1,290.5,387.1,293z"/>
	<path fill="#231F20" d="M412.2,299.3h-2.8v-2.5c-0.9,1.8-2.5,2.6-4.6,2.6c-2.9,0-4.7-1.9-4.7-4.9v-7.9h2.8v7.2c0,1.9,1.1,3.1,3,3.1
		c2.2,0,3.5-1.8,3.5-4v-6.3h2.8V299.3z"/>
	<path fill="#231F20" d="M427.8,298.1c0,3.7-2.6,6-6.6,6c-2,0-3.7-0.6-5.3-1.7l1.2-2c1.2,0.9,2.4,1.4,4,1.4c2.4,0,4-1.4,4-3.6v-1.6
		c-0.9,1.4-2.3,2.2-4.2,2.2c-3.5,0-5.8-2.5-5.8-6.2c0-3.6,2.3-6,5.7-6.1c2,0,3.4,0.8,4.3,2.2v-2.1h2.7V298.1z M425,292.6
		c0-2.3-1.5-3.9-3.7-3.9c-2.2,0-3.7,1.6-3.7,3.9c0,2.3,1.5,3.9,3.7,3.9C423.5,296.5,425,294.9,425,292.6z"/>
	<path fill="#231F20" d="M444,291.4v7.9h-2.8v-7.2c0-1.9-1.2-3.1-3.1-3.1c-2.3,0-3.6,1.7-3.6,4v6.3h-2.8v-17.8h2.8v7.5
		c0.9-1.8,2.5-2.6,4.7-2.6C442.2,286.5,444,288.3,444,291.4z"/>
	<path fill="#231F20" d="M461.1,298.5c-1,0.6-2.1,0.9-3.1,0.9c-1.9,0-3.6-1.1-3.6-3.7v-6.6h-1.8V287h1.8v-3.5h2.7v3.5h3.8v2.1h-3.8
		v6.1c0,1.3,0.5,1.7,1.4,1.7c0.6,0,1.2-0.2,1.9-0.6L461.1,298.5z"/>
	<path fill="#231F20" d="M475.6,292.9c0,3.8-2.7,6.5-6.6,6.5c-4,0-6.7-2.6-6.7-6.5c0-3.9,2.7-6.5,6.7-6.5
		C472.9,286.5,475.6,289.1,475.6,292.9z M465,293c0,2.5,1.6,4.2,3.9,4.2c2.3,0,3.9-1.7,3.9-4.2c0-2.4-1.6-4.1-3.9-4.1
		C466.6,288.8,465,290.5,465,293z"/>
	<path fill="#231F20" d="M496.8,299.3h-2.8v-2.2c-0.9,1.5-2.4,2.3-4.5,2.3c-3.7,0-6.1-2.7-6.1-6.6c0-3.8,2.5-6.5,6.1-6.5
		c2.1,0,3.6,0.8,4.5,2.3v-7.2h2.8V299.3z M494.1,293c0-2.5-1.6-4.2-3.9-4.2s-3.9,1.8-3.9,4.2c0,2.4,1.6,4.2,3.9,4.2
		C492.5,297.1,494.1,295.4,494.1,293z"/>
	<path fill="#231F20" d="M513.1,292.9c0,3.8-2.7,6.5-6.6,6.5c-4,0-6.7-2.6-6.7-6.5c0-3.9,2.7-6.5,6.7-6.5
		C510.4,286.5,513.1,289.1,513.1,292.9z M502.6,293c0,2.5,1.6,4.2,3.9,4.2c2.3,0,3.9-1.7,3.9-4.2c0-2.4-1.6-4.1-3.9-4.1
		C504.2,288.8,502.6,290.5,502.6,293z"/>
	<path fill="#231F20" d="M529.4,298.5c-1,0.6-2.1,0.9-3.1,0.9c-1.9,0-3.6-1.1-3.6-3.7v-6.6h-1.8V287h1.8v-3.5h2.7v3.5h3.8v2.1h-3.8
		v6.1c0,1.3,0.5,1.7,1.4,1.7c0.6,0,1.2-0.2,1.9-0.6L529.4,298.5z"/>
	<path fill="#231F20" d="M544.3,291.4v7.9h-2.8v-7.2c0-1.9-1.2-3.1-3.1-3.1c-2.3,0-3.6,1.7-3.6,4v6.3h-2.8v-17.8h2.8v7.5
		c0.9-1.8,2.5-2.6,4.7-2.6C542.6,286.5,544.3,288.3,544.3,291.4z"/>
	<path fill="#231F20" d="M555.7,297.8c-0.9,1.1-2.4,1.7-4.2,1.7c-2.8,0-4.5-1.7-4.5-4c0-2.3,1.8-3.8,4.8-3.8h3.9v-0.4
		c0-1.6-1-2.6-3-2.6c-1.2,0-2.5,0.4-3.8,1.3l-1.1-1.9c1.8-1.1,3.1-1.6,5.5-1.6c3.3,0,5.1,1.7,5.2,4.5l0,8.4h-2.7V297.8z
		 M555.7,294.8v-1.2h-3.5c-1.8,0-2.6,0.5-2.6,1.7c0,1.2,0.9,1.9,2.5,1.9C554,297.3,555.5,296.2,555.7,294.8z"/>
	<path fill="#231F20" d="M569.3,298.5c-1,0.6-2.1,0.9-3.1,0.9c-1.9,0-3.6-1.1-3.6-3.7v-6.6h-1.8V287h1.8v-3.5h2.7v3.5h3.8v2.1h-3.8
		v6.1c0,1.3,0.5,1.7,1.4,1.7c0.6,0,1.2-0.2,1.9-0.6L569.3,298.5z"/>
	<path fill="#231F20" d="M574,297.9c0,0.9-0.6,1.6-1.5,1.6s-1.5-0.7-1.5-1.6c0-0.9,0.6-1.6,1.5-1.6S574,297,574,297.9z"/>
	<path fill="#231F20" d="M579.1,284c0,0.5-0.2,0.9-0.4,1.3l-1.4,2.1h-1.4l0.9-2.1c-0.4-0.3-0.6-0.7-0.6-1.2c0-0.9,0.6-1.5,1.5-1.5
		C578.4,282.5,579.1,283.1,579.1,284z M582.7,284c0,0.5-0.2,0.9-0.4,1.3l-1.4,2.1h-1.4l0.9-2.1c-0.4-0.3-0.6-0.7-0.6-1.2
		c0-0.9,0.6-1.5,1.5-1.5C582,282.5,582.7,283.1,582.7,284z"/>
</g>
<g>
	<path fill="#231F20" d="M839.8,255.7c0.4,0.3,0.6,0.7,0.6,1.2c0,0.9-0.6,1.5-1.5,1.5c-0.8,0-1.5-0.6-1.5-1.5c0-0.5,0.2-0.9,0.4-1.3
		l1.4-2.1h1.4L839.8,255.7z M843.4,255.7c0.4,0.3,0.6,0.7,0.6,1.2c0,0.9-0.6,1.5-1.5,1.5c-0.8,0-1.5-0.6-1.5-1.5
		c0-0.5,0.2-0.9,0.4-1.3l1.4-2.1h1.4L843.4,255.7z"/>
	<path fill="#231F20" d="M846,270.5v-16.8h2.8v16.8H846z"/>
	<path fill="#231F20" d="M871.4,270.5h-2.8v-2.2c-0.9,1.5-2.4,2.3-4.5,2.3c-3.7,0-6.1-2.7-6.1-6.6c0-3.8,2.5-6.5,6.1-6.5
		c2.1,0,3.6,0.8,4.5,2.3v-7.2h2.8V270.5z M868.6,264.2c0-2.5-1.6-4.2-3.9-4.2c-2.3,0-3.9,1.8-3.9,4.2c0,2.4,1.6,4.2,3.9,4.2
		C867,268.3,868.6,266.6,868.6,264.2z"/>
	<path fill="#231F20" d="M887.7,264.1c0,3.8-2.7,6.5-6.6,6.5c-4,0-6.7-2.6-6.7-6.5c0-3.9,2.7-6.5,6.7-6.5
		C885,257.7,887.7,260.3,887.7,264.1z M877.2,264.2c0,2.5,1.6,4.2,3.9,4.2c2.3,0,3.9-1.7,3.9-4.2c0-2.4-1.6-4.1-3.9-4.1
		C878.8,260,877.2,261.7,877.2,264.2z"/>
	<path fill="#231F20" d="M902.8,262.6v7.9h-2.8v-7.2c0-1.9-1.2-3.1-3.1-3.1c-2.1,0-3.4,1.5-3.6,3.5v6.8h-2.8v-12.8h2.8v2.4
		c0.9-1.8,2.5-2.5,4.7-2.5C901,257.7,902.8,259.5,902.8,262.6z"/>
	<path fill="#231F20" d="M908.5,255.3c0,0.5-0.2,0.9-0.4,1.2l-1.4,2.1h-1.4l0.9-2.1c-0.4-0.3-0.6-0.7-0.6-1.2c0-0.9,0.6-1.5,1.5-1.5
		C907.9,253.7,908.5,254.3,908.5,255.3z"/>
	<path fill="#231F20" d="M918.9,269.7c-1,0.6-2.1,0.9-3.1,0.9c-1.9,0-3.6-1.1-3.6-3.7v-6.6h-1.8v-2.1h1.8v-3.5h2.7v3.5h3.8v2.1h-3.8
		v6.1c0,1.3,0.5,1.7,1.4,1.7c0.6,0,1.2-0.2,1.9-0.6L918.9,269.7z"/>
	<path fill="#231F20" d="M930.5,267v3.6h-2.8v-17.8h2.8v10.8l5.6-5.7h3.2l-4.7,4.9l5.1,7.8h-3.3l-3.7-5.9L930.5,267z"/>
	<path fill="#231F20" d="M954.1,262.6v7.9h-2.8v-7.2c0-1.9-1.2-3.1-3.1-3.1c-2.1,0-3.4,1.5-3.6,3.5v6.8h-2.8v-12.8h2.8v2.4
		c0.9-1.8,2.5-2.5,4.7-2.5C952.3,257.7,954.1,259.5,954.1,262.6z"/>
	<path fill="#231F20" d="M969.9,264.1c0,3.8-2.7,6.5-6.6,6.5c-4,0-6.7-2.6-6.7-6.5c0-3.9,2.7-6.5,6.7-6.5
		C967.2,257.7,969.9,260.3,969.9,264.1z M959.4,264.2c0,2.5,1.6,4.2,3.9,4.2c2.3,0,3.9-1.7,3.9-4.2c0-2.4-1.6-4.1-3.9-4.1
		C961,260,959.4,261.7,959.4,264.2z"/>
	<path fill="#231F20" d="M984.3,270.5l-3.2-9.5l-3.2,9.5H975l-4.7-12.8h2.8l3.3,10l3.2-10h2.9l3.2,10l3.3-10h2.8l-4.7,12.8H984.3z"
		/>
	<path fill="#231F20" d="M1012.3,262.6v7.9h-2.8v-7.2c0-1.9-1.2-3.1-3.1-3.1c-2.3,0-3.6,1.7-3.6,4v6.3h-2.8v-17.8h2.8v7.5
		c0.9-1.8,2.5-2.6,4.7-2.6C1010.5,257.7,1012.3,259.5,1012.3,262.6z"/>
	<path fill="#231F20" d="M1028.1,264.1c0,3.8-2.7,6.5-6.6,6.5c-4,0-6.7-2.6-6.7-6.5c0-3.9,2.7-6.5,6.7-6.5
		C1025.4,257.7,1028.1,260.3,1028.1,264.1z M1017.6,264.2c0,2.5,1.6,4.2,3.9,4.2c2.3,0,3.9-1.7,3.9-4.2c0-2.4-1.6-4.1-3.9-4.1
		C1019.2,260,1017.6,261.7,1017.6,264.2z"/>
	<path fill="#231F20" d="M1042.5,270.5l-3.2-9.5l-3.2,9.5h-2.8l-4.7-12.8h2.8l3.3,10l3.2-10h2.9l3.2,10l3.3-10h2.8l-4.7,12.8H1042.5
		z"/>
	<path fill="#231F20" d="M857.9,298.5c-1,0.6-2.1,0.9-3.1,0.9c-1.9,0-3.6-1.1-3.6-3.7v-6.6h-1.8V287h1.8v-3.5h2.7v3.5h3.8v2.1h-3.8
		v6.1c0,1.3,0.5,1.7,1.4,1.7c0.6,0,1.2-0.2,1.9-0.6L857.9,298.5z"/>
	<path fill="#231F20" d="M872.4,292.9c0,3.8-2.7,6.5-6.6,6.5c-4,0-6.7-2.6-6.7-6.5c0-3.9,2.7-6.5,6.7-6.5
		C869.7,286.5,872.4,289.1,872.4,292.9z M861.9,293c0,2.5,1.6,4.2,3.9,4.2c2.3,0,3.9-1.7,3.9-4.2c0-2.4-1.6-4.1-3.9-4.1
		C863.5,288.8,861.9,290.5,861.9,293z"/>
	<path fill="#231F20" d="M893.7,299.3h-2.8v-2.2c-0.9,1.5-2.4,2.3-4.5,2.3c-3.7,0-6.1-2.7-6.1-6.6c0-3.8,2.5-6.5,6.1-6.5
		c2.1,0,3.6,0.8,4.5,2.3v-7.2h2.8V299.3z M890.9,293c0-2.5-1.6-4.2-3.9-4.2c-2.3,0-3.9,1.8-3.9,4.2c0,2.4,1.6,4.2,3.9,4.2
		C889.3,297.1,890.9,295.4,890.9,293z"/>
	<path fill="#231F20" d="M910,292.9c0,3.8-2.7,6.5-6.6,6.5c-4,0-6.7-2.6-6.7-6.5c0-3.9,2.7-6.5,6.7-6.5
		C907.3,286.5,910,289.1,910,292.9z M899.4,293c0,2.5,1.6,4.2,3.9,4.2c2.3,0,3.9-1.7,3.9-4.2c0-2.4-1.6-4.1-3.9-4.1
		C901,288.8,899.4,290.5,899.4,293z"/>
	<path fill="#231F20" d="M926.3,298.5c-1,0.6-2.1,0.9-3.1,0.9c-1.9,0-3.6-1.1-3.6-3.7v-6.6h-1.8V287h1.8v-3.5h2.7v3.5h3.8v2.1h-3.8
		v6.1c0,1.3,0.5,1.7,1.4,1.7c0.6,0,1.2-0.2,1.9-0.6L926.3,298.5z"/>
	<path fill="#231F20" d="M941.2,291.4v7.9h-2.8v-7.2c0-1.9-1.2-3.1-3.1-3.1c-2.3,0-3.6,1.7-3.6,4v6.3h-2.8v-17.8h2.8v7.5
		c0.9-1.8,2.5-2.6,4.7-2.6C939.4,286.5,941.2,288.3,941.2,291.4z"/>
	<path fill="#231F20" d="M952.5,297.8c-0.9,1.1-2.4,1.7-4.2,1.7c-2.8,0-4.5-1.7-4.5-4c0-2.3,1.8-3.8,4.8-3.8h3.9v-0.4
		c0-1.6-1-2.6-3-2.6c-1.2,0-2.5,0.4-3.8,1.3l-1.1-1.9c1.8-1.1,3.1-1.6,5.5-1.6c3.3,0,5.1,1.7,5.2,4.5l0,8.4h-2.7V297.8z
		 M952.5,294.8v-1.2H949c-1.8,0-2.6,0.5-2.6,1.7c0,1.2,0.9,1.9,2.5,1.9C950.8,297.3,952.4,296.2,952.5,294.8z"/>
	<path fill="#231F20" d="M966.2,298.5c-1,0.6-2.1,0.9-3.1,0.9c-1.9,0-3.6-1.1-3.6-3.7v-6.6h-1.8V287h1.8v-3.5h2.7v3.5h3.8v2.1h-3.8
		v6.1c0,1.3,0.5,1.7,1.4,1.7c0.6,0,1.2-0.2,1.9-0.6L966.2,298.5z"/>
	<path fill="#231F20" d="M970.8,297.9c0,0.9-0.6,1.6-1.5,1.6s-1.5-0.7-1.5-1.6c0-0.9,0.6-1.6,1.5-1.6S970.8,297,970.8,297.9z"/>
	<path fill="#231F20" d="M976,297.9c0,0.9-0.6,1.6-1.5,1.6s-1.5-0.7-1.5-1.6c0-0.9,0.6-1.6,1.5-1.6S976,297,976,297.9z"/>
	<path fill="#231F20" d="M981.3,297.9c0,0.9-0.6,1.6-1.5,1.6s-1.5-0.7-1.5-1.6c0-0.9,0.6-1.6,1.5-1.6S981.3,297,981.3,297.9z"/>
	<path fill="#231F20" d="M995.6,301.1c-0.8,2-2.2,3-4.2,3c-1.2,0-2.1-0.3-3-1.1l1.2-2.1c0.6,0.4,1.1,0.6,1.7,0.6
		c0.8,0,1.5-0.5,1.9-1.4l0.4-1l-5.3-12.6h2.9l3.8,9.7l3.6-9.7h2.8L995.6,301.1z"/>
	<path fill="#231F20" d="M1014.1,294h-9.6c0.4,2,1.9,3.2,4,3.2c1.4,0,2.7-0.5,3.6-1.5l1.5,1.6c-1.2,1.4-3.1,2.2-5.3,2.2
		c-3.9,0-6.5-2.6-6.5-6.5c0-3.9,2.7-6.5,6.5-6.5C1012.6,286.5,1014.4,289.4,1014.1,294z M1011.7,292c-0.1-2.1-1.5-3.3-3.6-3.3
		c-2,0-3.4,1.3-3.7,3.3H1011.7z"/>
	<path fill="#231F20" d="M1024.2,298.5c-1,0.6-2.1,0.9-3.1,0.9c-1.9,0-3.6-1.1-3.6-3.7v-6.6h-1.8V287h1.8v-3.5h2.7v3.5h3.8v2.1h-3.8
		v6.1c0,1.3,0.5,1.7,1.4,1.7c0.6,0,1.2-0.2,1.9-0.6L1024.2,298.5z"/>
	<path fill="#231F20" d="M1028.8,297.9c0,0.9-0.6,1.6-1.5,1.6s-1.5-0.7-1.5-1.6c0-0.9,0.6-1.6,1.5-1.6S1028.8,297,1028.8,297.9z"/>
	<path fill="#231F20" d="M1034,284c0,0.5-0.2,0.9-0.4,1.3l-1.4,2.1h-1.4l0.9-2.1c-0.4-0.3-0.6-0.7-0.6-1.2c0-0.9,0.6-1.5,1.5-1.5
		C1033.3,282.5,1034,283.1,1034,284z M1037.6,284c0,0.5-0.2,0.9-0.4,1.3l-1.4,2.1h-1.4l0.9-2.1c-0.4-0.3-0.6-0.7-0.6-1.2
		c0-0.9,0.6-1.5,1.5-1.5C1036.9,282.5,1037.6,283.1,1037.6,284z"/>
</g>
</svg>
