<?xml version="1.0" encoding="utf-8"?>
<!-- Generator: Adobe Illustrator 14.0.0, SVG Export Plug-In . SVG Version: 6.00 Build 43363)  -->
<!DOCTYPE svg PUBLIC "-//W3C//DTD SVG 1.1//EN" "http://www.w3.org/Graphics/SVG/1.1/DTD/svg11.dtd">
<svg version="1.1" id="Layer_1" xmlns="http://www.w3.org/2000/svg" xmlns:xlink="http://www.w3.org/1999/xlink" x="0px" y="0px"
	 width="877px" height="331.121px" viewBox="0 0 877 331.121" enable-background="new 0 0 877 331.121" xml:space="preserve">
<g>
	<path fill="#010101" d="M214.292,141.07l6,4c0,0-17,1.332-26.667,6c1.611,5.192,5.667,8.332,11.334,7.332
		c5.666-1,6.196-4.657,7-10.666l3.666-0.334c-0.333,7.668-1.666,12.668-10.666,14c-9,1.334-11-5-13.334-9.666
		c-0.861-0.25-0.753-2.309,0-3C191.625,148.736,197.625,145.07,214.292,141.07"/>
	<path fill="#010101" d="M188.625,151.828c0,0-1.667,13.573-12.333,11.907c-10.667-1.666-9.334-7.15-9.667-11.907h3.333
		c-0.39,4.437,0.153,7.271,6,8.757c5.847,1.481,10.667-2.334,11-8.757c0,0-12.666-2.427-24-1.427l3.334-4.666
		c0,0,18.333,1.666,23.333,3C189.94,149.912,189.879,151.002,188.625,151.828"/>
	<path fill="#010101" d="M185.264,152.899c-0.22,2.168-3.071,3.651-6.369,3.317c-3.297-0.335-5.791-2.362-5.569-4.53
		c0.22-2.17,3.069-3.654,6.368-3.318C182.991,148.704,185.484,150.731,185.264,152.899"/>
	<path fill="#010101" d="M207.693,149.585c0.396,2.145-1.922,4.37-5.18,4.979c-3.259,0.604-6.224-0.642-6.621-2.781
		c-0.397-2.145,1.92-4.369,5.18-4.979C204.329,146.197,207.294,147.443,207.693,149.585"/>
	<path fill="#010101" d="M175.792,175.236c4.501-5.477,9.167-8.332,15.833-8.666c6.667-0.334,11,3.834,14.334,6.166
		C195.625,170.736,187.153,169.098,175.792,175.236"/>
	<path fill="#010101" d="M190.875,188.667c-19.896,0-36.084-16.188-36.084-36.083c0-19.895,16.188-36.083,36.084-36.083
		s36.083,16.188,36.083,36.083C226.958,172.479,210.772,188.667,190.875,188.667L190.875,188.667z M190.875,120.502
		c-17.691,0-32.084,14.394-32.084,32.083c0,17.688,14.393,32.083,32.084,32.083c17.688,0,32.083-14.395,32.083-32.083
		C222.958,134.896,208.568,120.502,190.875,120.502L190.875,120.502z"/>
</g>
<g>
	<path fill="#010101" d="M664.72,176.373c-0.428,1.41-4.459,2.738-7.984,1.67c-3.527-1.066-5.217-4.129-4.787-5.539
		c0.426-1.41,3.48,0.271,7.008,1.336C662.482,174.91,665.146,174.962,664.72,176.373"/>
	<g>
		<path fill="#010101" d="M663.875,188.667c-19.896,0-36.084-16.188-36.084-36.083c0-19.895,16.189-36.083,36.084-36.083
			c19.896,0,36.084,16.188,36.084,36.083C699.958,172.48,683.773,188.667,663.875,188.667L663.875,188.667z M663.875,120.502
			c-17.689,0-32.084,14.394-32.084,32.083c0,17.688,14.395,32.083,32.084,32.083c17.691,0,32.084-14.395,32.084-32.083
			C695.959,134.896,681.566,120.502,663.875,120.502L663.875,120.502z"/>
	</g>
	<path fill="#010101" d="M691.529,146.683c-0.02-0.128-0.111-0.231-0.238-0.263c-6.699-1.605-13.574-1.831-19.873-0.643
		c-0.896,0.169-1.799,0.407-2.666,0.64c-1.322,0.352-2.57,0.684-3.832,0.793c-2.391,0.203-4.178-0.293-6.076-0.82
		c-0.775-0.217-1.58-0.438-2.43-0.611c-3.018-0.605-6.322-0.927-9.562-0.927c-3.773,0-7.451,0.433-10.641,1.251
		c-0.137,0.036-0.234,0.161-0.234,0.305c0,1.324,0.105,2.44,0.33,3.42c0.109,0.438,0.479,0.602,0.721,0.707
		c0.072,0.033,0.15,0.067,0.182,0.092c0.781,0.64,1.064,2.342,1.314,3.847c0.104,0.626,0.199,1.217,0.332,1.723
		c0.834,3.308,2.062,5.294,3.979,6.448c1.242,0.739,3.086,1.147,5.188,1.147c4.361,0,9.613-1.771,11.529-5.764
		c0.98-1.33,1.975-4.253,3.086-5.547c0.104-0.125,0.5-0.259,1.113-0.259c0.56,0,1.029,0.115,1.195,0.233
		c0.658,1.047,1.073,1.919,1.479,2.763c0.521,1.089,1.008,2.117,1.938,3.316c3.434,4.445,7.727,5.381,10.725,5.381h0.033
		c1.021-0.002,4.496-0.104,6.379-1.326c2.223-1.438,2.752-4.269,3.266-7.005c0.281-1.52,0.58-3.089,1.156-4.456
		c0.029-0.084,0.191-0.129,0.414-0.185c0.314-0.076,0.746-0.182,0.879-0.654C691.384,149.474,691.667,147.669,691.529,146.683
		 M642.275,150.574c-1.223,2.586-1.035,6.097-0.541,8.689c-0.684-2.022-1.191-4.623-1.154-6.27c0.086-3.748,1.598-4.821,4.572-5.387
		C644.025,148.247,642.927,149.188,642.275,150.574 M670.679,149.654c-1.027,1.219-1.659,2.383-1.984,3.741
		c-0.205-1.551-0.15-3.223,0.836-4.146c0.627-0.583,2.143-1.146,3.918-1.588C672.257,148.333,671.285,149.083,670.679,149.654"/>
</g>
<path fill="#EF4836" d="M666.21,69.211c-0.865,3.034-8.027,15.833,0.438,15.615C672.835,84.668,670.55,77.888,666.21,69.211z"/>
<path fill="#EF4836" d="M673.693,85.802c-0.867,3.033-8.027,15.833,0.436,15.614C680.318,101.259,678.031,94.478,673.693,85.802z"/>
<path fill="#EF4836" d="M661.001,90.249c-0.865,3.034-8.027,15.833,0.436,15.615C667.625,105.706,665.339,98.926,661.001,90.249z"/>
<path stroke="#FFFFFF" d="M766.667,48.639c0.115-4.666,1.018-9.592,1.973-14.43c2.357-11.94,5.291-26.803-11.411-30.279
	c-4.075-0.839-7.959-0.158-11.231,1.982c-3.406,2.236-6.064,6.058-8.047,11.213c-0.65,0.107-1.301,0.305-1.906,0.604
	c-1.736,0.87-24.723,16.916-26.455,18.217c-1.73,1.301-5.205,2.603-1.736,7.808c3.471,5.205,6.635,11.029,4.771,12.143
	c-1.088,0.65-26.461,2.389-29.494,1.733c0.43-1.947-1.305-8.021-5.641-5.638c-3.041,1.672-6.506,18.218-1.303,19.951
	c5.205,1.733,5.639-5.637,6.941-5.637c2.17,0,35.562,2.17,35.562,2.17c5.199,1.739,9.113,6.938,9.982,8.672
	c0.869,1.733,4.336,5.205,6.938,3.472c12.764-8.499,31.66-21.689,32.961-23.854c1.303-2.166,2.172-2.602,0.438-5.204
	C768.74,51.155,767.873,50.083,766.667,48.639z M750.281,12.445c1.539-1.022,3.312-1.286,5.352-0.869
	c8.393,1.748,8.158,6.887,5.35,21.124c-0.484,2.45-0.979,5.012-1.385,7.62c-5.312-6.207-11.566-13.46-15.248-17.856
	C745.812,17.573,747.851,14.036,750.281,12.445z"/>
<path stroke="#FFFFFF" d="M148.68,38.96l0.043-13.783c0.032-10.131-8.184-18.404-18.32-18.436
	C120.271,6.709,112,14.93,111.968,25.061l-0.043,13.783c-5.075-0.016-9.202,4.085-9.218,9.16l-0.072,22.972
	c-0.016,5.074,4.085,9.201,9.16,9.217l36.755,0.115c5.074,0.016,9.202-4.085,9.217-9.16l0.072-22.972
	C157.856,43.103,153.755,38.976,148.68,38.96z M132.53,61.177l-0.024,7.596c-0.004,1.27-1.034,2.294-2.305,2.29
	c-1.27-0.004-2.293-1.035-2.29-2.305l0.024-7.596c-1.346-0.803-2.291-2.214-2.285-3.897c0.008-2.54,2.071-4.588,4.608-4.58
	c2.537,0.008,4.588,2.069,4.581,4.609C134.835,58.976,133.881,60.382,132.53,61.177z M139.491,38.931l-18.377-0.058l0.043-13.783
	c0.016-5.07,4.149-9.176,9.217-9.16c5.065,0.016,9.176,4.147,9.16,9.218L139.491,38.931z"/>
<polygon fill="#EF4836" points="160.708,84.241 165.708,98.574 160.375,97.908 174.375,113.241 170.375,101.241 175.708,101.908 "/>
<g enable-background="new    ">
	<path d="M116.291,216.794v3.288h-7.776v3.624h7.392v3.288h-7.392v6.576h-3.744v-16.776H116.291z"/>
	<path d="M119.398,219.016c-0.408-0.408-0.612-0.908-0.612-1.5c0-0.593,0.204-1.094,0.612-1.5c0.408-0.408,0.908-0.613,1.5-0.613
		c0.592,0,1.092,0.205,1.5,0.613c0.408,0.406,0.612,0.907,0.612,1.5c0,0.592-0.204,1.092-0.612,1.5
		c-0.408,0.406-0.908,0.61-1.5,0.61C120.306,219.626,119.807,219.422,119.398,219.016z M122.699,233.57h-3.6v-12.911h3.6V233.57z"/>
	<path d="M129.25,220.659l2.208,3.456l2.28-3.456h4.224l-4.44,6.312l4.608,6.6h-4.296l-2.52-3.551l-2.448,3.551h-4.152l4.512-6.574
		l-4.272-6.336L129.25,220.659L129.25,220.659z"/>
	<path d="M151.33,231.699c-1.457,1.376-3.165,2.064-5.124,2.064c-1.96,0-3.58-0.604-4.86-1.812c-1.28-1.208-1.92-2.828-1.92-4.86
		c0-2.03,0.652-3.647,1.956-4.848c1.304-1.2,2.844-1.8,4.62-1.8s3.284,0.535,4.524,1.606c1.24,1.071,1.86,2.544,1.86,4.416v1.92
		h-9.408c0.112,0.704,0.48,1.28,1.104,1.729c0.624,0.447,1.328,0.672,2.112,0.672c1.264,0,2.304-0.424,3.12-1.271L151.33,231.699z
		 M147.874,224.042c-0.496-0.416-1.101-0.624-1.812-0.624c-0.712,0-1.364,0.217-1.956,0.648c-0.592,0.432-0.936,1.017-1.032,1.752
		h5.664C148.658,225.051,148.37,224.459,147.874,224.042z"/>
	<path d="M160.15,233.764c-1.528,0-2.892-0.647-4.092-1.945c-1.2-1.295-1.8-2.902-1.8-4.822s0.584-3.492,1.752-4.716
		c1.168-1.226,2.536-1.837,4.104-1.837c1.568,0,2.848,0.553,3.84,1.656v-6.336h3.6v17.808h-3.6v-1.703
		C162.946,233.131,161.678,233.764,160.15,233.764z M157.882,227.139c0,1.041,0.312,1.894,0.936,2.558
		c0.624,0.663,1.352,0.995,2.184,0.995s1.54-0.332,2.124-0.995c0.584-0.664,0.876-1.521,0.876-2.568s-0.292-1.92-0.876-2.614
		c-0.584-0.695-1.3-1.045-2.148-1.045s-1.576,0.354-2.184,1.057S157.882,226.1,157.882,227.139z"/>
	<path d="M192.681,223.011l-4.536,9.169h-2.232l-4.512-9.169v10.56h-3.744v-16.774h5.064l4.32,9.218l4.344-9.218h5.04v16.774h-3.744
		V223.011z"/>
	<path d="M200.493,219.016c-0.408-0.408-0.612-0.908-0.612-1.5c0-0.593,0.204-1.094,0.612-1.5c0.408-0.408,0.908-0.613,1.5-0.613
		c0.592,0,1.092,0.205,1.5,0.613c0.408,0.406,0.612,0.907,0.612,1.5c0,0.592-0.204,1.092-0.612,1.5
		c-0.408,0.406-0.908,0.61-1.5,0.61C201.401,219.626,200.901,219.422,200.493,219.016z M203.793,233.57h-3.6v-12.911h3.6V233.57z"/>
	<path d="M210.801,226.371v7.199h-3.6v-12.911h3.6v1.44c1.088-1.104,2.312-1.656,3.672-1.656c1.36,0,2.5,0.479,3.42,1.438
		c0.92,0.961,1.38,2.241,1.38,3.842v7.848h-3.6v-7.295c0-1.983-0.728-2.979-2.184-2.979c-0.72,0-1.348,0.262-1.884,0.78
		C211.069,224.6,210.801,225.363,210.801,226.371z"/>
	<path d="M227.709,233.764c-1.528,0-2.892-0.647-4.092-1.945c-1.2-1.295-1.8-2.902-1.8-4.822s0.584-3.492,1.752-4.716
		c1.168-1.226,2.536-1.837,4.104-1.837c1.568,0,2.848,0.553,3.84,1.656v-6.336h3.6v17.808h-3.6v-1.703
		C230.505,233.131,229.237,233.764,227.709,233.764z M225.441,227.139c0,1.041,0.312,1.894,0.936,2.558
		c0.624,0.663,1.352,0.995,2.184,0.995s1.54-0.332,2.124-0.995c0.584-0.664,0.876-1.521,0.876-2.568s-0.292-1.92-0.876-2.614
		c-0.584-0.695-1.3-1.045-2.148-1.045c-0.848,0-1.576,0.354-2.184,1.057S225.441,226.1,225.441,227.139z"/>
	<path d="M248.241,229.551c0,1.271-0.468,2.292-1.404,3.061s-2.124,1.152-3.564,1.152c-0.96,0-1.96-0.174-3-0.518
		c-1.041-0.344-1.976-0.852-2.808-1.523l1.584-2.256c1.344,1.04,2.776,1.561,4.296,1.561c0.464,0,0.832-0.092,1.104-0.275
		c0.272-0.186,0.408-0.428,0.408-0.73c0-0.304-0.188-0.584-0.564-0.84c-0.376-0.257-0.92-0.496-1.632-0.722
		s-1.256-0.416-1.632-0.576c-0.376-0.157-0.804-0.392-1.284-0.694c-0.977-0.607-1.464-1.508-1.464-2.699s0.48-2.164,1.44-2.916
		s2.2-1.129,3.72-1.129s3.04,0.513,4.56,1.537l-1.344,2.397c-1.12-0.769-2.236-1.149-3.348-1.149c-1.112,0-1.668,0.304-1.668,0.912
		c0,0.336,0.176,0.6,0.528,0.791c0.352,0.19,0.936,0.416,1.752,0.672s1.396,0.453,1.74,0.588c0.344,0.137,0.756,0.349,1.236,0.637
		C247.793,227.371,248.241,228.279,248.241,229.551z"/>
	<path d="M262.185,231.699c-1.457,1.376-3.165,2.064-5.124,2.064c-1.96,0-3.58-0.604-4.86-1.812c-1.28-1.208-1.92-2.828-1.92-4.86
		c0-2.03,0.652-3.647,1.956-4.848c1.304-1.2,2.844-1.8,4.62-1.8s3.284,0.535,4.524,1.606c1.24,1.071,1.86,2.544,1.86,4.416v1.92
		h-9.408c0.112,0.704,0.48,1.28,1.104,1.729c0.624,0.447,1.328,0.672,2.112,0.672c1.264,0,2.304-0.424,3.12-1.271L262.185,231.699z
		 M258.729,224.042c-0.496-0.416-1.101-0.624-1.812-0.624c-0.712,0-1.364,0.217-1.956,0.648c-0.592,0.432-0.936,1.017-1.032,1.752
		h5.664C259.512,225.051,259.224,224.459,258.729,224.042z"/>
	<path d="M269.984,223.25v5.784c0,0.496,0.128,0.885,0.384,1.164c0.256,0.28,0.56,0.42,0.912,0.42c0.672,0,1.24-0.304,1.704-0.912
		l1.344,2.521c-1.121,1.023-2.3,1.537-3.54,1.537c-1.24,0-2.289-0.408-3.144-1.226c-0.856-0.815-1.284-1.929-1.284-3.336v-5.952
		h-1.512v-2.592h1.512v-3.864h3.624v3.864h3.12v2.592H269.984z"/>
	<path d="M83.771,276.314c0.448,0.287,0.672,0.677,0.672,1.164c0,0.486-0.144,0.873-0.432,1.15c-0.288,0.28-0.648,0.42-1.08,0.42
		c-0.432,0-0.796-0.136-1.092-0.406c-0.296-0.271-0.444-0.627-0.444-1.067s0.144-0.868,0.432-1.284l1.416-2.04h1.464L83.771,276.314
		z M87.443,276.314c0.448,0.287,0.672,0.677,0.672,1.164c0,0.486-0.144,0.873-0.432,1.15c-0.288,0.28-0.648,0.42-1.08,0.42
		s-0.796-0.136-1.092-0.406c-0.296-0.271-0.444-0.627-0.444-1.067s0.144-0.868,0.432-1.284l1.416-2.04h1.464L87.443,276.314z"/>
	<path d="M91.763,274.395h2.832v16.775h-2.832V274.395z"/>
	<path d="M117.25,278.402v11.137c0,2.256-0.612,3.947-1.836,5.076c-1.224,1.128-2.796,1.691-4.716,1.691
		c-1.92,0-3.656-0.602-5.208-1.802l1.272-2.04c1.248,0.944,2.508,1.416,3.78,1.416s2.28-0.326,3.024-0.982s1.116-1.703,1.116-3.146
		v-1.632c-0.4,0.752-0.972,1.354-1.716,1.8c-0.744,0.448-1.58,0.672-2.508,0.672c-1.696,0-3.088-0.592-4.176-1.774
		c-1.088-1.186-1.632-2.655-1.632-4.416c0-1.76,0.544-3.231,1.632-4.416c1.088-1.186,2.476-1.775,4.164-1.775
		s3.06,0.696,4.116,2.088v-1.896L117.25,278.402L117.25,278.402z M107.291,284.294c0,1.048,0.324,1.952,0.972,2.712
		s1.52,1.141,2.616,1.141c1.096,0,1.984-0.367,2.664-1.104c0.68-0.734,1.02-1.65,1.02-2.748c0-1.096-0.344-2.021-1.032-2.783
		c-0.688-0.761-1.576-1.141-2.664-1.141c-1.088,0-1.956,0.393-2.604,1.176C107.615,282.331,107.291,283.247,107.291,284.294z"/>
	<path d="M131.818,289.455c-1.28,1.271-2.88,1.908-4.8,1.908s-3.521-0.637-4.8-1.908c-1.28-1.271-1.92-2.828-1.92-4.668
		s0.64-3.396,1.92-4.668c1.28-1.271,2.88-1.908,4.8-1.908s3.52,0.637,4.8,1.908c1.28,1.271,1.92,2.828,1.92,4.668
		S133.098,288.182,131.818,289.455z M124.126,287.798c0.76,0.776,1.724,1.164,2.892,1.164c1.167,0,2.132-0.388,2.892-1.164
		c0.76-0.774,1.14-1.778,1.14-3.012s-0.38-2.236-1.14-3.013c-0.76-0.775-1.724-1.164-2.892-1.164s-2.132,0.389-2.892,1.164
		c-0.76,0.774-1.14,1.778-1.14,3.013C122.986,286.02,123.366,287.023,124.126,287.798z"/>
	<path d="M139.906,280.562v6.479c0,0.607,0.16,1.092,0.48,1.452c0.32,0.358,0.768,0.54,1.344,0.54s1.128-0.28,1.656-0.842
		l1.104,1.896c-0.944,0.85-1.988,1.271-3.132,1.271s-2.12-0.396-2.928-1.188c-0.808-0.792-1.212-1.858-1.212-3.203v-6.407h-1.608
		v-2.16h1.608v-4.008h2.688v4.008h3.36v2.16h-3.36V280.562z"/>
	<path d="M163.546,291.17h-2.448v-1.704c-1.056,1.265-2.472,1.896-4.248,1.896c-1.328,0-2.428-0.375-3.3-1.127
		c-0.872-0.752-1.308-1.756-1.308-3.014c0-1.256,0.464-2.195,1.392-2.818c0.928-0.625,2.184-0.938,3.768-0.938h3.48v-0.479
		c0-1.696-0.944-2.545-2.832-2.545c-1.184,0-2.416,0.433-3.696,1.297l-1.2-1.682c1.552-1.23,3.312-1.849,5.28-1.849
		c1.504,0,2.732,0.38,3.684,1.142c0.952,0.76,1.428,1.954,1.428,3.588V291.17z M160.858,286.418v-1.08h-3.024
		c-1.937,0-2.904,0.607-2.904,1.824c0,0.624,0.24,1.1,0.72,1.428s1.148,0.492,2.004,0.492s1.604-0.24,2.244-0.721
		C160.538,287.882,160.858,287.234,160.858,286.418z"/>
	<path d="M181.593,291.17h-7.344v-16.775h6.528c1.136,0,2.116,0.138,2.94,0.407c0.824,0.272,1.436,0.642,1.836,1.104
		c0.768,0.863,1.152,1.84,1.152,2.928c0,1.312-0.417,2.288-1.248,2.928c-0.304,0.226-0.512,0.364-0.624,0.42
		c-0.112,0.059-0.312,0.148-0.6,0.276c1.04,0.226,1.868,0.692,2.484,1.403c0.616,0.713,0.924,1.597,0.924,2.652
		c0,1.168-0.4,2.198-1.2,3.096C185.497,290.65,183.881,291.17,181.593,291.17z M177.082,281.354h3.6
		c2.048,0,3.072-0.693,3.072-2.088c0-0.8-0.248-1.375-0.744-1.728c-0.496-0.353-1.264-0.528-2.304-0.528h-3.624V281.354
		L177.082,281.354z M177.082,288.555h4.44c1.04,0,1.836-0.164,2.388-0.492c0.552-0.328,0.828-0.946,0.828-1.858
		c0-1.488-1.192-2.231-3.576-2.231h-4.08V288.555z"/>
	<path d="M204.225,278.21c1.712,0,3.176,0.592,4.392,1.776c1.216,1.184,1.824,2.76,1.824,4.728s-0.604,3.568-1.812,4.8
		c-1.208,1.232-2.616,1.85-4.224,1.85c-1.608,0-3.052-0.703-4.332-2.111v1.92h-2.688v-17.808h2.688v7.271
		C201.129,279.018,202.513,278.21,204.225,278.21z M200.025,284.811c0,1.217,0.368,2.213,1.104,2.987
		c0.736,0.776,1.632,1.164,2.688,1.164c1.056,0,1.976-0.384,2.76-1.151c0.784-0.769,1.176-1.765,1.176-2.986
		c0-1.227-0.384-2.24-1.152-3.051c-0.768-0.808-1.688-1.211-2.76-1.211c-1.072,0-1.976,0.403-2.712,1.211
		C200.393,282.583,200.025,283.594,200.025,284.811z"/>
	<path d="M225.393,285.962h-10.008c0.064,0.929,0.488,1.677,1.272,2.244c0.784,0.567,1.68,0.853,2.688,0.853
		c1.6,0,2.816-0.504,3.648-1.513l1.536,1.681c-1.376,1.424-3.168,2.137-5.376,2.137c-1.792,0-3.316-0.598-4.572-1.787
		c-1.256-1.192-1.884-2.792-1.884-4.803c0-2.006,0.64-3.604,1.92-4.787c1.28-1.185,2.788-1.774,4.524-1.774
		c1.736,0,3.212,0.522,4.428,1.572c1.216,1.048,1.824,2.491,1.824,4.332V285.962L225.393,285.962z M215.385,283.85h7.32
		c0-1.07-0.336-1.896-1.008-2.472c-0.672-0.575-1.5-0.864-2.484-0.864s-1.868,0.301-2.652,0.9S215.385,282.827,215.385,283.85z"/>
	<path d="M234.009,291.363c-1.776,0-3.304-0.604-4.584-1.812c-1.28-1.208-1.92-2.787-1.92-4.74c0-1.951,0.668-3.539,2.004-4.764
		c1.336-1.224,2.964-1.836,4.884-1.836s3.543,0.664,4.872,1.992l-1.584,1.943c-1.104-0.961-2.216-1.439-3.336-1.439
		c-1.12,0-2.092,0.372-2.916,1.116c-0.824,0.743-1.236,1.704-1.236,2.88s0.408,2.172,1.224,2.986
		c0.816,0.815,1.82,1.226,3.012,1.226c1.192,0,2.316-0.544,3.372-1.632l1.584,1.729
		C237.833,290.579,236.041,291.363,234.009,291.363z"/>
	<path d="M252.417,291.17h-2.448v-1.704c-1.056,1.265-2.472,1.896-4.248,1.896c-1.328,0-2.428-0.375-3.3-1.127
		s-1.308-1.756-1.308-3.014c0-1.256,0.464-2.195,1.392-2.818c0.928-0.625,2.184-0.938,3.768-0.938h3.48v-0.479
		c0-1.696-0.944-2.545-2.832-2.545c-1.184,0-2.416,0.433-3.696,1.297l-1.2-1.682c1.552-1.23,3.312-1.849,5.28-1.849
		c1.504,0,2.732,0.38,3.684,1.142c0.952,0.76,1.428,1.954,1.428,3.588V291.17z M249.729,286.418v-1.08h-3.024
		c-1.937,0-2.904,0.607-2.904,1.824c0,0.624,0.24,1.1,0.72,1.428s1.148,0.492,2.004,0.492s1.604-0.24,2.244-0.721
		C249.408,287.882,249.729,287.234,249.729,286.418z"/>
	<path d="M265.088,285.314v-6.912h2.688v12.769h-2.688v-2.328c-0.432,0.784-1.028,1.4-1.788,1.849
		c-0.76,0.447-1.58,0.673-2.46,0.673c-1.44,0-2.604-0.439-3.492-1.319c-0.888-0.88-1.332-2.15-1.332-3.814v-7.824h2.688v7.009
		c0,2.353,0.976,3.526,2.928,3.526c0.928,0,1.736-0.309,2.424-0.924C264.744,287.398,265.088,286.499,265.088,285.314z"/>
	<path d="M280.76,287.354c0,1.217-0.44,2.188-1.32,2.916c-0.88,0.729-2.008,1.094-3.384,1.094c-0.928,0-1.892-0.168-2.892-0.504
		c-1-0.338-1.884-0.81-2.652-1.416l1.296-2.09c1.488,1.121,2.928,1.683,4.32,1.683c0.608,0,1.088-0.142,1.44-0.42
		c0.352-0.28,0.528-0.638,0.528-1.068c0-0.64-0.848-1.216-2.544-1.729c-0.128-0.049-0.224-0.078-0.288-0.096
		c-2.656-0.721-3.984-1.921-3.984-3.601c0-1.185,0.459-2.132,1.38-2.845c0.92-0.711,2.116-1.067,3.588-1.067
		s2.864,0.433,4.176,1.296l-1.008,1.992c-1.04-0.688-2.168-1.032-3.384-1.032c-0.64,0-1.16,0.116-1.56,0.349
		c-0.4,0.231-0.6,0.58-0.6,1.045c0,0.416,0.208,0.721,0.624,0.91c0.288,0.146,0.692,0.28,1.212,0.408
		c0.52,0.129,0.98,0.256,1.38,0.385c0.399,0.129,0.788,0.271,1.164,0.434c0.375,0.16,0.78,0.384,1.212,0.672
		C280.328,285.243,280.76,286.139,280.76,287.354z"/>
	<path d="M295.688,285.962H285.68c0.064,0.929,0.488,1.677,1.272,2.244c0.784,0.567,1.68,0.853,2.688,0.853
		c1.6,0,2.816-0.504,3.648-1.513l1.536,1.681c-1.376,1.424-3.168,2.137-5.376,2.137c-1.792,0-3.316-0.598-4.572-1.787
		c-1.256-1.192-1.884-2.792-1.884-4.803c0-2.006,0.64-3.604,1.92-4.787c1.28-1.185,2.788-1.774,4.524-1.774s3.212,0.522,4.428,1.572
		c1.216,1.048,1.824,2.491,1.824,4.332V285.962L295.688,285.962z M285.68,283.85H293c0-1.07-0.336-1.896-1.008-2.472
		c-0.672-0.575-1.5-0.864-2.484-0.864c-0.984,0-1.868,0.301-2.652,0.9C286.072,282.014,285.68,282.827,285.68,283.85z"/>
	<path d="M48.983,303.195h2.832v16.775h-2.832V303.195z"/>
	<path d="M68.639,319.971h-3.072l-4.416-12.768h2.784l3.168,9.646l3.168-9.646h2.784l3.168,9.646l3.168-9.646h2.784l-4.416,12.768
		h-3.072l-3.024-8.736L68.639,319.971z"/>
	<path d="M94.775,319.971h-2.448v-1.703c-1.056,1.266-2.472,1.896-4.248,1.896c-1.328,0-2.428-0.376-3.3-1.128
		c-0.872-0.752-1.308-1.757-1.308-3.015c0-1.256,0.464-2.193,1.392-2.817c0.928-0.624,2.184-0.938,3.768-0.938h3.48v-0.479
		c0-1.696-0.944-2.544-2.832-2.544c-1.184,0-2.416,0.432-3.696,1.296l-1.2-1.682c1.552-1.23,3.312-1.849,5.28-1.849
		c1.504,0,2.732,0.382,3.684,1.142c0.952,0.761,1.428,1.955,1.428,3.588V319.971z M92.087,315.219v-1.08h-3.024
		c-1.937,0-2.904,0.608-2.904,1.824c0,0.624,0.24,1.1,0.72,1.428s1.148,0.492,2.004,0.492s1.604-0.24,2.244-0.72
		S92.087,316.036,92.087,315.219z"/>
	<path d="M107.615,316.154c0,1.218-0.44,2.188-1.32,2.916s-2.008,1.094-3.384,1.094c-0.928,0-1.892-0.168-2.892-0.504
		c-1-0.338-1.884-0.809-2.652-1.416l1.296-2.09c1.488,1.121,2.928,1.682,4.32,1.682c0.608,0,1.088-0.141,1.44-0.42
		c0.352-0.28,0.528-0.637,0.528-1.068c0-0.64-0.848-1.216-2.544-1.728c-0.128-0.05-0.224-0.08-0.288-0.097
		c-2.656-0.722-3.984-1.92-3.984-3.602c0-1.184,0.459-2.132,1.38-2.844c0.92-0.712,2.116-1.066,3.588-1.066s2.864,0.432,4.176,1.295
		l-1.008,1.991c-1.04-0.688-2.168-1.03-3.384-1.03c-0.64,0-1.16,0.114-1.56,0.348c-0.4,0.232-0.6,0.58-0.6,1.045
		c0,0.416,0.208,0.72,0.624,0.91c0.288,0.146,0.692,0.281,1.212,0.408c0.52,0.129,0.98,0.256,1.38,0.385
		c0.399,0.129,0.788,0.271,1.164,0.433c0.375,0.16,0.78,0.384,1.212,0.673C107.183,314.043,107.615,314.939,107.615,316.154z"/>
	<path d="M113.35,313.059v6.912h-2.688v-12.768h2.688v2.326c0.432-0.782,1.028-1.398,1.788-1.848c0.76-0.447,1.58-0.673,2.46-0.673
		c1.44,0,2.604,0.44,3.492,1.32c0.888,0.88,1.332,2.149,1.332,3.813v7.824h-2.688v-7.008c0-2.354-0.976-3.527-2.928-3.527
		c-0.928,0-1.736,0.31-2.424,0.924C113.694,310.975,113.35,311.875,113.35,313.059z"/>
	<path d="M125.566,305.907c-0.432-0.255-0.648-0.636-0.648-1.14s0.144-0.896,0.432-1.178s0.648-0.42,1.08-0.42
		c0.432,0,0.795,0.137,1.092,0.408c0.296,0.271,0.444,0.628,0.444,1.066c0,0.439-0.144,0.867-0.432,1.283l-1.416,2.04h-1.464
		L125.566,305.907z"/>
	<path d="M134.278,309.363v6.479c0,0.608,0.16,1.094,0.48,1.452c0.32,0.358,0.768,0.54,1.344,0.54s1.128-0.279,1.656-0.84
		l1.104,1.896c-0.944,0.85-1.988,1.271-3.132,1.271s-2.12-0.396-2.928-1.188c-0.808-0.791-1.212-1.859-1.212-3.203v-6.408h-1.608
		v-2.159h1.608v-4.009h2.688v4.009h3.36v2.159H134.278L134.278,309.363z"/>
	<path d="M156.67,316.154c0,1.218-0.44,2.188-1.32,2.916s-2.008,1.094-3.384,1.094c-0.928,0-1.892-0.168-2.892-0.504
		c-1-0.338-1.884-0.809-2.652-1.416l1.296-2.09c1.488,1.121,2.928,1.682,4.32,1.682c0.608,0,1.088-0.141,1.44-0.42
		c0.352-0.28,0.528-0.637,0.528-1.068c0-0.64-0.848-1.216-2.544-1.728c-0.128-0.05-0.224-0.08-0.288-0.097
		c-2.656-0.722-3.984-1.92-3.984-3.602c0-1.184,0.459-2.132,1.38-2.844c0.92-0.712,2.116-1.066,3.588-1.066
		c1.472,0,2.864,0.432,4.176,1.295l-1.008,1.991c-1.04-0.688-2.168-1.03-3.384-1.03c-0.64,0-1.16,0.114-1.56,0.348
		c-0.4,0.232-0.6,0.58-0.6,1.045c0,0.416,0.208,0.72,0.624,0.91c0.288,0.146,0.692,0.281,1.212,0.408
		c0.52,0.129,0.98,0.256,1.38,0.385c0.399,0.129,0.788,0.271,1.164,0.433c0.375,0.16,0.78,0.384,1.212,0.673
		C156.238,314.043,156.67,314.939,156.67,316.154z"/>
	<path d="M162.406,313.059v6.912h-2.688v-12.768h2.688v2.326c0.384-0.782,0.964-1.398,1.74-1.848
		c0.776-0.447,1.612-0.673,2.508-0.673c2.016,0,3.384,0.832,4.104,2.496c1.264-1.664,2.84-2.496,4.728-2.496
		c1.44,0,2.604,0.44,3.492,1.32s1.332,2.149,1.332,3.813v7.824h-2.688v-7.008c0-2.354-0.976-3.527-2.928-3.527
		c-0.912,0-1.708,0.291-2.388,0.875c-0.681,0.584-1.036,1.438-1.068,2.559v7.104h-2.688v-7.009c0-1.216-0.216-2.108-0.648-2.676
		c-0.432-0.568-1.112-0.853-2.04-0.853c-0.928,0-1.736,0.309-2.424,0.924C162.75,310.975,162.406,311.875,162.406,313.059z"/>
	<path d="M194.398,319.971h-2.448v-1.703c-1.056,1.266-2.472,1.896-4.248,1.896c-1.328,0-2.428-0.376-3.3-1.128
		s-1.308-1.757-1.308-3.015c0-1.256,0.464-2.193,1.392-2.817c0.928-0.624,2.184-0.938,3.768-0.938h3.48v-0.479
		c0-1.696-0.944-2.544-2.832-2.544c-1.184,0-2.416,0.432-3.696,1.296l-1.2-1.682c1.552-1.23,3.312-1.849,5.28-1.849
		c1.504,0,2.732,0.382,3.684,1.142c0.952,0.761,1.428,1.955,1.428,3.588V319.971z M191.71,315.219v-1.08h-3.024
		c-1.937,0-2.904,0.608-2.904,1.824c0,0.624,0.24,1.1,0.72,1.428s1.148,0.492,2.004,0.492s1.604-0.24,2.244-0.72
		S191.71,316.036,191.71,315.219z"/>
	<path d="M204.838,309.723c-1.329,0-2.328,0.432-3,1.297c-0.672,0.863-1.008,2.023-1.008,3.479v5.472h-2.688v-12.768h2.688v2.566
		c0.432-0.799,1.02-1.455,1.764-1.969c0.744-0.512,1.532-0.775,2.364-0.792l0.024,2.714
		C204.934,309.723,204.886,309.723,204.838,309.723z"/>
	<path d="M210.981,309.363v6.479c0,0.608,0.16,1.094,0.48,1.452c0.32,0.358,0.768,0.54,1.344,0.54c0.576,0,1.128-0.279,1.656-0.84
		l1.104,1.896c-0.944,0.85-1.988,1.271-3.132,1.271s-2.12-0.396-2.928-1.188s-1.212-1.859-1.212-3.203v-6.408h-1.608v-2.159h1.608
		v-4.009h2.688v4.009h3.36v2.159H210.981L210.981,309.363z"/>
	<path d="M236.157,314.764h-10.008c0.064,0.928,0.488,1.676,1.272,2.243c0.784,0.568,1.68,0.853,2.688,0.853
		c1.6,0,2.816-0.504,3.648-1.512l1.536,1.68c-1.376,1.426-3.168,2.138-5.376,2.138c-1.792,0-3.316-0.599-4.572-1.788
		c-1.256-1.191-1.884-2.792-1.884-4.801c0-2.008,0.64-3.604,1.92-4.787c1.28-1.186,2.788-1.775,4.524-1.775
		c1.736,0,3.212,0.523,4.428,1.571s1.824,2.492,1.824,4.332V314.764L236.157,314.764z M226.149,312.65h7.32
		c0-1.07-0.336-1.896-1.008-2.471c-0.672-0.576-1.5-0.865-2.484-0.865s-1.868,0.301-2.652,0.899
		C226.541,310.814,226.149,311.627,226.149,312.65z"/>
	<path d="M241.796,313.059v6.912h-2.688v-12.768h2.688v2.326c0.432-0.782,1.028-1.398,1.788-1.848c0.76-0.447,1.58-0.673,2.46-0.673
		c1.44,0,2.604,0.44,3.492,1.32c0.888,0.88,1.332,2.149,1.332,3.813v7.824h-2.688v-7.008c0-2.354-0.976-3.527-2.928-3.527
		c-0.928,0-1.736,0.31-2.424,0.924C242.141,310.975,241.796,311.875,241.796,313.059z"/>
	<path d="M265.292,318.255c-1.28,1.271-2.88,1.908-4.8,1.908c-1.92,0-3.521-0.638-4.8-1.908c-1.28-1.272-1.92-2.828-1.92-4.668
		s0.64-3.396,1.92-4.668c1.28-1.272,2.88-1.907,4.8-1.907c1.92,0,3.52,0.635,4.8,1.907c1.28,1.271,1.92,2.828,1.92,4.668
		S266.572,316.982,265.292,318.255z M257.601,316.6c0.76,0.775,1.724,1.164,2.892,1.164c1.167,0,2.132-0.389,2.892-1.164
		c0.76-0.774,1.14-1.779,1.14-3.013s-0.38-2.235-1.14-3.013c-0.76-0.775-1.724-1.163-2.892-1.163s-2.132,0.388-2.892,1.163
		c-0.76,0.775-1.14,1.779-1.14,3.013S256.84,315.824,257.601,316.6z"/>
	<path d="M279.188,314.115v-6.911h2.688v12.769h-2.688v-2.328c-0.432,0.783-1.028,1.399-1.788,1.849
		c-0.76,0.446-1.58,0.673-2.46,0.673c-1.44,0-2.604-0.439-3.492-1.32c-0.888-0.88-1.332-2.15-1.332-3.814v-7.823h2.688v7.008
		c0,2.353,0.976,3.527,2.928,3.527c0.928,0,1.736-0.308,2.424-0.925C278.844,316.2,279.188,315.299,279.188,314.115z"/>
	<path d="M297.572,307.204v11.136c0,2.256-0.612,3.948-1.836,5.076c-1.224,1.128-2.796,1.691-4.716,1.691s-3.656-0.602-5.208-1.801
		l1.272-2.039c1.248,0.942,2.508,1.416,3.78,1.416s2.28-0.328,3.024-0.984c0.744-0.656,1.116-1.703,1.116-3.145v-1.633
		c-0.4,0.752-0.972,1.354-1.716,1.801s-1.58,0.672-2.508,0.672c-1.696,0-3.088-0.593-4.176-1.774
		c-1.088-1.185-1.632-2.656-1.632-4.416c0-1.761,0.544-3.231,1.632-4.416s2.476-1.776,4.164-1.776s3.06,0.696,4.116,2.088v-1.896
		H297.572L297.572,307.204z M287.612,313.096c0,1.047,0.324,1.951,0.972,2.711s1.52,1.142,2.616,1.142
		c1.096,0,1.984-0.367,2.664-1.104c0.68-0.734,1.02-1.65,1.02-2.746c0-1.098-0.344-2.023-1.032-2.785
		c-0.688-0.761-1.576-1.141-2.664-1.141s-1.956,0.393-2.604,1.178C287.936,311.131,287.612,312.047,287.612,313.096z"/>
	<path d="M304.148,313.059v6.912h-2.688v-17.783h2.688v7.345c0.384-0.783,0.964-1.399,1.74-1.849
		c0.776-0.447,1.612-0.673,2.508-0.673c1.44,0,2.604,0.44,3.492,1.32c0.888,0.88,1.332,2.151,1.332,3.815v7.824h-2.688v-7.01
		c0-2.354-0.976-3.527-2.928-3.527c-0.928,0-1.736,0.31-2.424,0.924C304.492,310.975,304.148,311.875,304.148,313.059z"/>
	<path d="M317.12,319.635c-0.344-0.352-0.516-0.775-0.516-1.271s0.172-0.915,0.516-1.261c0.344-0.345,0.764-0.517,1.26-0.517
		s0.92,0.172,1.272,0.517c0.352,0.346,0.528,0.766,0.528,1.261s-0.176,0.921-0.528,1.271c-0.352,0.352-0.776,0.528-1.272,0.528
		S317.464,319.986,317.12,319.635z"/>
	<path d="M323.492,305.907c-0.432-0.255-0.648-0.636-0.648-1.14s0.144-0.896,0.432-1.178s0.648-0.42,1.08-0.42
		s0.795,0.137,1.092,0.408c0.296,0.271,0.444,0.628,0.444,1.066c0,0.439-0.144,0.867-0.432,1.283l-1.416,2.04h-1.464
		L323.492,305.907z M327.14,305.907c-0.432-0.255-0.648-0.636-0.648-1.14s0.144-0.896,0.432-1.178c0.288-0.279,0.648-0.42,1.08-0.42
		c0.432,0,0.795,0.137,1.092,0.408c0.296,0.271,0.444,0.628,0.444,1.066c0,0.439-0.144,0.867-0.432,1.283l-1.416,2.04h-1.464
		L327.14,305.907z"/>
</g>
<g enable-background="new    ">
	<path d="M578.917,225.027h3.768v5.951c-1.663,1.855-3.969,2.785-6.91,2.785c-2.466,0-4.532-0.816-6.204-2.449
		c-1.672-1.631-2.51-3.691-2.51-6.181s0.854-4.563,2.558-6.229c1.704-1.664,3.76-2.496,6.168-2.496s4.5,0.792,6.275,2.376
		l-1.943,2.809c-0.752-0.654-1.443-1.107-2.076-1.354c-0.632-0.248-1.315-0.372-2.051-0.372c-1.425,0-2.625,0.484-3.603,1.451
		c-0.976,0.969-1.464,2.244-1.464,3.828s0.469,2.854,1.404,3.805s2.051,1.428,3.348,1.428c1.296,0,2.376-0.247,3.24-0.743V225.027
		L578.917,225.027z"/>
	<path d="M592.452,223.827c-1.072,0-1.871,0.381-2.399,1.141c-0.526,0.761-0.792,1.765-0.792,3.013v5.593h-3.6V220.66h3.6v1.704
		c0.464-0.528,1.044-0.976,1.74-1.345c0.695-0.367,1.404-0.562,2.123-0.576l0.024,3.385L592.452,223.827L592.452,223.827z"/>
	<path d="M608.245,227.115c0,1.871-0.648,3.447-1.945,4.729c-1.295,1.28-2.924,1.92-4.883,1.92c-1.961,0-3.588-0.64-4.885-1.92
		c-1.296-1.279-1.943-2.854-1.943-4.729s0.647-3.452,1.943-4.74c1.297-1.287,2.924-1.932,4.885-1.932
		c1.959,0,3.588,0.645,4.883,1.932C607.596,223.663,608.245,225.243,608.245,227.115z M598.211,227.115
		c0,1.056,0.301,1.916,0.9,2.58c0.599,0.664,1.367,0.996,2.305,0.996c0.936,0,1.703-0.332,2.303-0.996
		c0.603-0.664,0.9-1.524,0.9-2.58c0-1.057-0.3-1.92-0.9-2.592c-0.6-0.672-1.367-1.008-2.303-1.008c-0.938,0-1.705,0.336-2.305,1.008
		C598.511,225.195,598.211,226.059,598.211,227.115z"/>
	<path d="M617.387,233.57h-3.719l-4.393-12.911h3.721l2.52,7.8l2.521-7.8h3.479l2.521,7.8l2.52-7.8h3.744l-4.392,12.911h-3.743
		l-2.377-7.031L617.387,233.57z"/>
	<path d="M636.612,223.25v5.784c0,0.496,0.128,0.885,0.384,1.164c0.256,0.28,0.56,0.42,0.912,0.42c0.672,0,1.237-0.304,1.704-0.912
		l1.344,2.521c-1.12,1.023-2.3,1.537-3.539,1.537c-1.24,0-2.289-0.408-3.146-1.226c-0.854-0.815-1.282-1.929-1.282-3.336v-5.952
		h-1.515v-2.592h1.515v-3.864h3.624v3.864h3.12v2.592H636.612z"/>
	<path d="M646.475,226.611v6.959h-3.6v-17.807h3.6v6.336c1.088-1.104,2.311-1.656,3.66-1.656c1.353,0,2.492,0.479,3.42,1.438
		c0.928,0.961,1.395,2.241,1.395,3.842v7.848h-3.603v-7.055c0-1.984-0.728-2.979-2.184-2.979c-0.72,0-1.351,0.261-1.884,0.779
		C646.743,224.839,646.475,225.604,646.475,226.611z"/>
	<path d="M679.93,223.011l-4.535,9.169h-2.23l-4.512-9.169v10.56h-3.744v-16.774h5.062l4.32,9.218l4.344-9.218h5.039v16.774h-3.744
		V223.011L679.93,223.011z"/>
	<path d="M687.743,219.016c-0.408-0.408-0.611-0.908-0.611-1.5c0-0.593,0.203-1.094,0.611-1.5c0.408-0.408,0.908-0.613,1.5-0.613
		s1.092,0.205,1.5,0.613c0.408,0.406,0.612,0.907,0.612,1.5c0,0.592-0.204,1.092-0.612,1.5c-0.408,0.406-0.908,0.61-1.5,0.61
		S688.151,219.422,687.743,219.016z M691.043,233.57h-3.601v-12.911h3.601V233.57z"/>
	<path d="M698.051,226.371v7.199h-3.601v-12.911h3.601v1.44c1.088-1.104,2.312-1.656,3.672-1.656s2.499,0.479,3.42,1.438
		c0.92,0.961,1.381,2.241,1.381,3.842v7.848h-3.602v-7.295c0-1.983-0.729-2.979-2.184-2.979c-0.723,0-1.35,0.262-1.886,0.78
		C698.319,224.6,698.051,225.363,698.051,226.371z"/>
	<path d="M714.958,233.764c-1.528,0-2.892-0.647-4.092-1.945c-1.2-1.295-1.8-2.902-1.8-4.822s0.584-3.492,1.752-4.716
		c1.168-1.226,2.535-1.837,4.104-1.837c1.569,0,2.85,0.553,3.84,1.656v-6.336h3.602v17.808h-3.602v-1.703
		C717.754,233.131,716.487,233.764,714.958,233.764z M712.69,227.139c0,1.041,0.312,1.894,0.937,2.558
		c0.625,0.663,1.354,0.995,2.186,0.995c0.83,0,1.538-0.332,2.122-0.995c0.584-0.664,0.878-1.521,0.878-2.568
		s-0.294-1.92-0.878-2.614c-0.584-0.695-1.3-1.045-2.146-1.045c-0.849,0-1.576,0.354-2.186,1.057
		C712.995,225.229,712.69,226.1,712.69,227.139z"/>
	<path d="M735.491,229.551c0,1.271-0.469,2.292-1.404,3.061c-0.935,0.769-2.124,1.152-3.562,1.152c-0.959,0-1.959-0.174-3-0.518
		c-1.04-0.344-1.978-0.852-2.81-1.523l1.584-2.256c1.345,1.04,2.776,1.561,4.296,1.561c0.464,0,0.832-0.092,1.104-0.275
		c0.271-0.186,0.408-0.428,0.408-0.73c0-0.304-0.188-0.584-0.563-0.84c-0.375-0.257-0.921-0.496-1.632-0.722
		c-0.713-0.226-1.256-0.416-1.633-0.576c-0.375-0.157-0.803-0.392-1.283-0.694c-0.977-0.607-1.465-1.508-1.465-2.699
		s0.479-2.164,1.438-2.916s2.2-1.129,3.722-1.129c1.521,0,3.039,0.513,4.561,1.537l-1.344,2.397
		c-1.121-0.769-2.236-1.149-3.35-1.149c-1.112,0-1.668,0.304-1.668,0.912c0,0.336,0.178,0.6,0.527,0.791
		c0.352,0.19,0.936,0.416,1.752,0.672s1.396,0.453,1.74,0.588c0.344,0.137,0.756,0.349,1.234,0.637
		C735.042,227.371,735.491,228.279,735.491,229.551z"/>
	<path d="M749.434,231.699c-1.457,1.376-3.164,2.064-5.124,2.064s-3.578-0.604-4.858-1.812s-1.92-2.828-1.92-4.86
		c0-2.03,0.65-3.647,1.956-4.848c1.304-1.201,2.845-1.8,4.62-1.8c1.773,0,3.281,0.535,4.521,1.606s1.86,2.544,1.86,4.416v1.92
		h-9.407c0.111,0.704,0.479,1.28,1.104,1.729c0.625,0.447,1.328,0.672,2.111,0.672c1.264,0,2.305-0.424,3.121-1.271L749.434,231.699
		z M745.979,224.042c-0.495-0.416-1.102-0.624-1.812-0.624c-0.713,0-1.365,0.217-1.957,0.648c-0.592,0.431-0.936,1.017-1.031,1.752
		h5.664C746.762,225.051,746.473,224.459,745.979,224.042z"/>
	<path d="M757.234,223.25v5.784c0,0.496,0.128,0.885,0.384,1.164c0.256,0.28,0.561,0.42,0.912,0.42c0.672,0,1.238-0.304,1.704-0.912
		l1.345,2.521c-1.121,1.023-2.301,1.537-3.541,1.537s-2.288-0.408-3.146-1.226c-0.854-0.815-1.283-1.929-1.283-3.336v-5.952h-1.513
		v-2.592h1.513v-3.864h3.625v3.864h3.118v2.592H757.234z"/>
	<path d="M511.201,276.314c0.448,0.287,0.673,0.677,0.673,1.164c0,0.486-0.146,0.873-0.433,1.15c-0.288,0.28-0.647,0.42-1.08,0.42
		c-0.435,0-0.797-0.136-1.094-0.406c-0.296-0.271-0.442-0.627-0.442-1.067s0.145-0.868,0.432-1.284l1.416-2.04h1.465
		L511.201,276.314z M514.874,276.314c0.447,0.287,0.672,0.677,0.672,1.164c0,0.486-0.145,0.873-0.433,1.15
		c-0.288,0.28-0.647,0.42-1.08,0.42c-0.434,0-0.796-0.136-1.092-0.406c-0.297-0.271-0.444-0.627-0.444-1.067
		s0.146-0.868,0.432-1.284l1.416-2.04h1.466L514.874,276.314z"/>
	<path d="M519.193,274.395h2.832v16.775h-2.832V274.395z"/>
	<path d="M538.848,291.17h-3.07l-4.416-12.768h2.783l3.169,9.646l3.168-9.646h2.782l3.168,9.646l3.169-9.646h2.783l-4.416,12.768
		h-3.07l-3.024-8.736L538.848,291.17z"/>
	<path d="M565.271,289.455c-1.278,1.271-2.88,1.908-4.8,1.908c-1.921,0-3.521-0.637-4.801-1.908s-1.92-2.828-1.92-4.668
		s0.64-3.396,1.92-4.668c1.279-1.271,2.88-1.908,4.801-1.908c1.92,0,3.521,0.637,4.8,1.908c1.279,1.271,1.921,2.828,1.921,4.668
		S566.552,288.182,565.271,289.455z M557.581,287.798c0.76,0.776,1.724,1.164,2.893,1.164c1.167,0,2.133-0.388,2.893-1.164
		c0.76-0.774,1.141-1.778,1.141-3.012s-0.381-2.236-1.141-3.013c-0.76-0.775-1.726-1.164-2.893-1.164
		c-1.169,0-2.133,0.389-2.893,1.164c-0.76,0.774-1.141,1.778-1.141,3.013C556.44,286.02,556.821,287.023,557.581,287.798z"/>
	<path d="M579.168,285.314v-6.912h2.688v12.769h-2.688v-2.328c-0.433,0.784-1.029,1.4-1.789,1.849
		c-0.76,0.447-1.58,0.673-2.459,0.673c-1.438,0-2.604-0.439-3.492-1.319c-0.888-0.88-1.332-2.15-1.332-3.814v-7.824h2.688v7.009
		c0,2.353,0.977,3.526,2.928,3.526c0.928,0,1.736-0.309,2.424-0.924C578.824,287.398,579.168,286.499,579.168,285.314z"/>
	<path d="M588.432,291.17h-2.688v-17.809h2.688V291.17z"/>
	<path d="M593.304,289.539c-1.2-1.216-1.8-2.816-1.8-4.8c0-1.984,0.615-3.568,1.848-4.753c1.233-1.186,2.699-1.775,4.404-1.775
		c1.703,0,3.075,0.721,4.115,2.16v-7.008h2.688v17.808h-2.688v-1.92c-0.992,1.408-2.439,2.112-4.344,2.112
		C595.912,291.363,594.504,290.754,593.304,289.539z M594.192,284.846c0,1.225,0.393,2.221,1.176,2.988
		c0.784,0.768,1.704,1.152,2.76,1.152c1.058,0,1.953-0.389,2.688-1.164c0.733-0.776,1.104-1.772,1.104-2.988
		s-0.369-2.232-1.104-3.048c-0.735-0.815-1.642-1.226-2.712-1.226c-1.072,0-1.992,0.407-2.762,1.226
		C594.577,282.602,594.192,283.623,594.192,284.846z"/>
	<path d="M617.711,284.258v6.912h-2.688v-17.784h2.688v7.345c0.384-0.782,0.963-1.398,1.74-1.849
		c0.773-0.446,1.611-0.672,2.508-0.672c1.439,0,2.604,0.44,3.492,1.32c0.887,0.88,1.332,2.151,1.332,3.815v7.822h-2.688v-7.008
		c0-2.354-0.976-3.528-2.929-3.528c-0.928,0-1.736,0.31-2.424,0.925C618.055,282.174,617.711,283.075,617.711,284.258z"/>
	<path d="M640.872,291.17h-2.449v-1.704c-1.055,1.265-2.471,1.896-4.248,1.896c-1.328,0-2.428-0.375-3.299-1.127
		c-0.873-0.752-1.309-1.756-1.309-3.014c0-1.256,0.464-2.195,1.393-2.818c0.928-0.625,2.185-0.938,3.769-0.938h3.479v-0.479
		c0-1.696-0.945-2.545-2.832-2.545c-1.185,0-2.416,0.433-3.696,1.297l-1.198-1.682c1.552-1.23,3.312-1.849,5.277-1.849
		c1.504,0,2.732,0.38,3.687,1.142c0.952,0.76,1.429,1.954,1.429,3.588L640.872,291.17L640.872,291.17z M638.183,286.418v-1.08
		h-3.022c-1.938,0-2.904,0.607-2.904,1.824c0,0.624,0.24,1.1,0.721,1.428c0.481,0.328,1.148,0.492,2.006,0.492
		c0.854,0,1.604-0.24,2.242-0.721C637.863,287.882,638.183,287.234,638.183,286.418z"/>
	<path d="M647.856,291.17l-5.139-12.768h2.784l3.888,9.646l3.891-9.646h2.782l-5.137,12.768H647.856z"/>
	<path d="M670.079,285.962h-10.008c0.062,0.929,0.486,1.677,1.271,2.244s1.683,0.853,2.688,0.853c1.601,0,2.813-0.504,3.646-1.513
		l1.537,1.681c-1.377,1.424-3.168,2.137-5.377,2.137c-1.791,0-3.315-0.598-4.571-1.787c-1.257-1.192-1.884-2.792-1.884-4.803
		c0-2.006,0.639-3.604,1.92-4.787c1.279-1.185,2.787-1.774,4.523-1.774c1.734,0,3.212,0.522,4.428,1.572
		c1.217,1.048,1.824,2.491,1.824,4.332v1.847L670.079,285.962L670.079,285.962z M660.071,283.85h7.318
		c0-1.07-0.336-1.896-1.008-2.472c-0.672-0.575-1.5-0.864-2.482-0.864c-0.984,0-1.868,0.301-2.652,0.9
		S660.071,282.827,660.071,283.85z"/>
	<path d="M691.415,278.402v11.137c0,2.256-0.611,3.947-1.836,5.076c-1.227,1.128-2.796,1.691-4.716,1.691
		c-1.921,0-3.656-0.602-5.208-1.802l1.271-2.04c1.248,0.944,2.508,1.416,3.78,1.416s2.28-0.326,3.024-0.982
		c0.742-0.656,1.113-1.703,1.113-3.146v-1.632c-0.398,0.752-0.972,1.354-1.716,1.8c-0.743,0.448-1.58,0.672-2.508,0.672
		c-1.696,0-3.088-0.592-4.176-1.774c-1.091-1.186-1.634-2.655-1.634-4.416c0-1.76,0.543-3.231,1.634-4.416
		c1.088-1.186,2.476-1.775,4.164-1.775c1.688,0,3.06,0.696,4.114,2.088v-1.896L691.415,278.402L691.415,278.402z M681.455,284.294
		c0,1.048,0.324,1.952,0.972,2.712c0.648,0.76,1.521,1.141,2.616,1.141s1.983-0.367,2.664-1.104c0.68-0.734,1.021-1.65,1.021-2.748
		c0-1.096-0.347-2.021-1.032-2.783c-0.688-0.761-1.576-1.141-2.664-1.141c-1.089,0-1.956,0.393-2.604,1.176
		C681.779,282.331,681.455,283.247,681.455,284.294z"/>
	<path d="M705.983,289.455c-1.281,1.271-2.883,1.908-4.803,1.908s-3.52-0.637-4.8-1.908s-1.92-2.828-1.92-4.668
		s0.64-3.396,1.92-4.668s2.88-1.908,4.8-1.908s3.521,0.637,4.803,1.908c1.277,1.271,1.92,2.828,1.92,4.668
		S707.262,288.182,705.983,289.455z M698.291,287.798c0.76,0.776,1.724,1.164,2.892,1.164c1.169,0,2.135-0.388,2.895-1.164
		c0.76-0.774,1.14-1.778,1.14-3.012s-0.38-2.236-1.14-3.013c-0.76-0.775-1.726-1.164-2.895-1.164c-1.168,0-2.132,0.389-2.892,1.164
		c-0.761,0.774-1.14,1.778-1.14,3.013C697.151,286.02,697.53,287.023,698.291,287.798z"/>
	<path d="M714.071,280.562v6.479c0,0.607,0.159,1.092,0.479,1.452c0.319,0.358,0.771,0.54,1.345,0.54
		c0.575,0,1.127-0.28,1.655-0.842l1.104,1.896c-0.945,0.85-1.988,1.271-3.133,1.271c-1.146,0-2.119-0.396-2.93-1.188
		c-0.809-0.792-1.212-1.858-1.212-3.203v-6.407h-1.606v-2.16h1.606v-4.008h2.688v4.008h3.357v2.16h-3.354V280.562z"/>
	<path d="M724.102,280.562v6.479c0,0.607,0.16,1.092,0.48,1.452c0.319,0.358,0.768,0.54,1.344,0.54s1.128-0.28,1.656-0.842
		l1.104,1.896c-0.942,0.85-1.986,1.271-3.132,1.271c-1.144,0-2.12-0.396-2.929-1.188c-0.808-0.792-1.211-1.858-1.211-3.203v-6.407
		h-1.608v-2.16h1.608v-4.008h2.688v4.008h3.36v2.16h-3.36V280.562z"/>
	<path d="M742.702,285.962h-10.008c0.062,0.929,0.486,1.677,1.271,2.244s1.683,0.853,2.688,0.853c1.601,0,2.813-0.504,3.646-1.513
		l1.537,1.681c-1.377,1.424-3.168,2.137-5.377,2.137c-1.791,0-3.315-0.598-4.571-1.787c-1.257-1.192-1.884-2.792-1.884-4.803
		c0-2.006,0.639-3.604,1.92-4.787c1.279-1.185,2.787-1.774,4.523-1.774c1.734,0,3.212,0.522,4.428,1.572
		c1.217,1.048,1.824,2.491,1.824,4.332v1.847L742.702,285.962L742.702,285.962z M732.694,283.85h7.318
		c0-1.07-0.336-1.896-1.008-2.472c-0.672-0.575-1.5-0.864-2.484-0.864c-0.982,0-1.866,0.301-2.65,0.9
		S732.694,282.827,732.694,283.85z"/>
	<path d="M748.342,284.258v6.912h-2.688v-12.768h2.688v2.326c0.434-0.783,1.027-1.398,1.787-1.849
		c0.76-0.446,1.58-0.672,2.461-0.672c1.439,0,2.604,0.438,3.492,1.319c0.887,0.881,1.332,2.15,1.332,3.814v7.824h-2.688v-7.008
		c0-2.354-0.976-3.528-2.929-3.528c-0.928,0-1.736,0.31-2.424,0.925C748.686,282.174,748.342,283.075,748.342,284.258z"/>
	<path d="M778.078,291.17h-2.448v-1.704c-1.056,1.265-2.472,1.896-4.248,1.896c-1.328,0-2.428-0.375-3.3-1.127
		s-1.308-1.756-1.308-3.014c0-1.256,0.463-2.195,1.392-2.818c0.928-0.625,2.186-0.938,3.771-0.938h3.479v-0.479
		c0-1.696-0.944-2.545-2.832-2.545c-1.185,0-2.416,0.433-3.696,1.297l-1.197-1.682c1.551-1.23,3.312-1.849,5.277-1.849
		c1.504,0,2.732,0.38,3.686,1.142c0.952,0.76,1.429,1.954,1.429,3.588L778.078,291.17L778.078,291.17z M775.389,286.418v-1.08
		h-3.021c-1.938,0-2.904,0.607-2.904,1.824c0,0.624,0.24,1.1,0.721,1.428c0.479,0.328,1.147,0.492,2.006,0.492
		c0.854,0,1.604-0.24,2.242-0.721C775.069,287.882,775.389,287.234,775.389,286.418z"/>
	<path d="M784.509,284.258v6.912h-2.688v-12.768h2.688v2.326c0.435-0.783,1.028-1.398,1.788-1.849c0.76-0.446,1.58-0.672,2.46-0.672
		c1.44,0,2.604,0.438,3.492,1.319s1.332,2.15,1.332,3.814v7.824h-2.688v-7.008c0-2.354-0.976-3.528-2.928-3.528
		c-0.928,0-1.736,0.31-2.424,0.925C784.854,282.174,784.509,283.075,784.509,284.258z"/>
	<path d="M806.661,287.354l-1.68,3.816h-3.023l7.392-16.775h3.024l7.392,16.775h-3.022l-1.68-3.816H806.661z M813.909,284.739
		l-3.048-6.912l-3.048,6.912H813.909z"/>
	<path d="M548.161,304.66c-0.336-0.337-0.504-0.736-0.504-1.2s0.168-0.864,0.504-1.2s0.736-0.504,1.2-0.504s0.862,0.168,1.198,0.504
		c0.337,0.336,0.506,0.736,0.506,1.2s-0.169,0.863-0.506,1.2c-0.336,0.336-0.734,0.504-1.198,0.504S548.497,304.996,548.161,304.66z
		 M550.68,319.971h-2.688v-12.768h2.688V319.971z"/>
	<path d="M557.88,306.146v1.058h3.36v2.159h-3.36v10.607h-2.688v-10.607h-1.607v-2.159h1.607v-0.983
		c0-1.345,0.402-2.412,1.213-3.205c0.808-0.791,1.783-1.188,2.928-1.188c1.144,0,2.188,0.424,3.132,1.271l-1.104,1.896
		c-0.527-0.562-1.08-0.841-1.655-0.841c-0.576,0-1.024,0.181-1.345,0.539C558.04,305.055,557.88,305.54,557.88,306.146z"/>
	<path d="M570.792,303.195h2.832v16.775h-2.832V303.195z"/>
	<path d="M577.704,305.907c-0.433-0.255-0.648-0.636-0.648-1.14s0.146-0.896,0.435-1.178s0.646-0.42,1.08-0.42
		c0.432,0,0.796,0.137,1.092,0.408s0.443,0.628,0.443,1.066c0,0.439-0.146,0.867-0.433,1.283l-1.416,2.04h-1.465L577.704,305.907z"
		/>
	<path d="M584.088,318.339c-1.201-1.216-1.801-2.815-1.801-4.8s0.615-3.568,1.848-4.752c1.232-1.186,2.7-1.776,4.404-1.776
		s3.076,0.72,4.116,2.16v-7.008h2.688v17.808h-2.688v-1.92c-0.992,1.408-2.44,2.112-4.345,2.112
		C586.696,320.164,585.288,319.555,584.088,318.339z M584.975,313.646c0,1.226,0.395,2.222,1.179,2.987
		c0.782,0.769,1.702,1.152,2.76,1.152c1.056,0,1.952-0.39,2.688-1.164c0.736-0.774,1.104-1.771,1.104-2.988
		c0-1.216-0.368-2.231-1.104-3.048c-0.734-0.814-1.641-1.227-2.713-1.227c-1.071,0-1.992,0.408-2.76,1.227
		C585.36,311.402,584.975,312.423,584.975,313.646z"/>
	<path d="M614.903,316.154c0,1.218-0.439,2.188-1.319,2.916s-2.009,1.094-3.384,1.094c-0.929,0-1.895-0.168-2.895-0.504
		c-1-0.338-1.884-0.809-2.65-1.416l1.297-2.09c1.488,1.121,2.928,1.682,4.32,1.682c0.605,0,1.088-0.141,1.438-0.42
		c0.353-0.28,0.527-0.637,0.527-1.068c0-0.64-0.85-1.216-2.543-1.728c-0.129-0.05-0.227-0.08-0.289-0.097
		c-2.656-0.722-3.983-1.92-3.983-3.602c0-1.184,0.46-2.132,1.38-2.844s2.115-1.066,3.588-1.066c1.475,0,2.864,0.432,4.178,1.295
		l-1.009,1.991c-1.039-0.688-2.169-1.03-3.385-1.03c-0.64,0-1.159,0.114-1.56,0.348c-0.401,0.232-0.603,0.58-0.603,1.045
		c0,0.416,0.209,0.72,0.625,0.91c0.287,0.146,0.69,0.281,1.212,0.408c0.521,0.129,0.979,0.256,1.381,0.385
		c0.398,0.129,0.788,0.271,1.163,0.433c0.377,0.162,0.779,0.384,1.214,0.673C614.471,314.043,614.903,314.939,614.903,316.154z"/>
	<path d="M621.263,309.363v6.479c0,0.608,0.159,1.094,0.479,1.452s0.769,0.54,1.345,0.54c0.575,0,1.128-0.279,1.655-0.84
		l1.104,1.896c-0.942,0.85-1.986,1.271-3.132,1.271c-1.145,0-2.12-0.396-2.928-1.188c-0.811-0.791-1.213-1.859-1.213-3.203v-6.408
		h-1.607v-2.159h1.607v-4.009h2.688v4.009h3.36v2.159H621.263L621.263,309.363z"/>
	<path d="M636.911,314.115v-6.911h2.688v12.769h-2.688v-2.328c-0.433,0.783-1.027,1.399-1.787,1.849
		c-0.761,0.446-1.58,0.673-2.461,0.673c-1.439,0-2.604-0.439-3.492-1.32c-0.887-0.88-1.332-2.15-1.332-3.814v-7.823h2.688v7.008
		c0,2.353,0.976,3.527,2.929,3.527c0.928,0,1.735-0.308,2.424-0.925C636.567,316.2,636.911,315.299,636.911,314.115z"/>
	<path d="M644.471,318.339c-1.198-1.216-1.801-2.815-1.801-4.8s0.616-3.568,1.849-4.752c1.231-1.186,2.7-1.776,4.403-1.776
		c1.705,0,3.076,0.72,4.117,2.16v-7.008h2.688v17.808h-2.688v-1.92c-0.992,1.408-2.441,2.112-4.345,2.112
		C647.079,320.164,645.67,319.555,644.471,318.339z M645.359,313.646c0,1.226,0.392,2.222,1.177,2.987
		c0.783,0.769,1.703,1.152,2.76,1.152c1.056,0,1.951-0.39,2.688-1.164c0.735-0.774,1.104-1.771,1.104-2.988
		c0-1.216-0.367-2.231-1.104-3.048c-0.737-0.816-1.643-1.227-2.712-1.227c-1.072,0-1.992,0.408-2.763,1.227
		C645.743,311.402,645.359,312.423,645.359,313.646z"/>
	<path d="M659.783,304.66c-0.336-0.337-0.504-0.736-0.504-1.2s0.168-0.864,0.504-1.2c0.337-0.336,0.733-0.504,1.2-0.504
		c0.464,0,0.861,0.168,1.198,0.504s0.506,0.736,0.506,1.2s-0.169,0.863-0.506,1.2c-0.337,0.336-0.734,0.504-1.198,0.504
		C660.518,305.164,660.12,304.996,659.783,304.66z M662.303,319.971h-2.688v-12.768h2.688V319.971z"/>
	<path d="M678.071,314.764h-10.009c0.062,0.928,0.486,1.676,1.271,2.243c0.783,0.568,1.68,0.853,2.688,0.853
		c1.602,0,2.815-0.504,3.647-1.512l1.536,1.68c-1.376,1.426-3.168,2.138-5.376,2.138c-1.792,0-3.316-0.599-4.572-1.788
		c-1.256-1.191-1.884-2.792-1.884-4.801c0-2.008,0.64-3.604,1.92-4.787c1.28-1.186,2.788-1.775,4.524-1.775
		c1.734,0,3.211,0.523,4.428,1.571c1.216,1.048,1.824,2.492,1.824,4.332L678.071,314.764L678.071,314.764z M668.062,312.65h7.319
		c0-1.07-0.337-1.896-1.009-2.471c-0.672-0.576-1.5-0.865-2.483-0.865c-0.982,0-1.867,0.301-2.65,0.899
		C668.455,310.814,668.062,311.627,668.062,312.65z"/>
	<path d="M682.006,318.339c-1.199-1.216-1.8-2.815-1.8-4.8s0.616-3.568,1.849-4.752c1.231-1.186,2.699-1.776,4.403-1.776
		s3.075,0.72,4.116,2.16v-7.008h2.688v17.808h-2.688v-1.92c-0.992,1.408-2.44,2.112-4.344,2.112
		C684.614,320.164,683.207,319.555,682.006,318.339z M682.895,313.646c0,1.226,0.394,2.222,1.178,2.987
		c0.783,0.769,1.703,1.152,2.76,1.152s1.952-0.39,2.688-1.164s1.104-1.771,1.104-2.988c0-1.216-0.368-2.231-1.104-3.048
		c-0.735-0.816-1.641-1.227-2.712-1.227c-1.07,0-1.99,0.408-2.761,1.227C683.279,311.402,682.895,312.423,682.895,313.646z"/>
	<path d="M706.415,313.059v6.912h-2.688v-12.768h2.688v2.326c0.384-0.782,0.963-1.398,1.74-1.848
		c0.773-0.447,1.609-0.673,2.508-0.673c2.016,0,3.384,0.832,4.104,2.496c1.266-1.664,2.842-2.496,4.729-2.496
		c1.438,0,2.604,0.44,3.492,1.32c0.887,0.88,1.332,2.149,1.332,3.813v7.824h-2.688v-7.008c0-2.354-0.976-3.527-2.929-3.527
		c-0.912,0-1.707,0.291-2.387,0.875c-0.684,0.584-1.037,1.438-1.068,2.559v7.104h-2.688v-7.009c0-1.216-0.216-2.108-0.646-2.676
		c-0.434-0.568-1.113-0.853-2.041-0.853s-1.736,0.309-2.424,0.924C706.758,310.975,706.415,311.875,706.415,313.059z"/>
	<path d="M738.743,318.255c-1.281,1.271-2.881,1.908-4.801,1.908c-1.922,0-3.521-0.638-4.802-1.908
		c-1.278-1.272-1.92-2.828-1.92-4.668s0.642-3.396,1.92-4.668c1.28-1.272,2.88-1.907,4.802-1.907c1.92,0,3.52,0.635,4.801,1.907
		c1.278,1.271,1.92,2.828,1.92,4.668S740.021,316.982,738.743,318.255z M731.05,316.6c0.76,0.775,1.726,1.164,2.894,1.164
		s2.133-0.389,2.893-1.164c0.76-0.774,1.14-1.779,1.14-3.013s-0.38-2.235-1.14-3.013c-0.76-0.775-1.725-1.163-2.893-1.163
		s-2.134,0.388-2.894,1.163c-0.761,0.775-1.14,1.779-1.14,3.013S730.29,315.824,731.05,316.6z"/>
	<path d="M750.406,309.723c-1.329,0-2.328,0.432-3,1.297c-0.673,0.863-1.009,2.023-1.009,3.479v5.472h-2.688v-12.768h2.688v2.566
		c0.433-0.799,1.021-1.455,1.765-1.969c0.744-0.512,1.532-0.775,2.364-0.792l0.021,2.714
		C750.501,309.723,750.454,309.723,750.406,309.723z"/>
	<path d="M765.118,314.764H755.11c0.062,0.928,0.485,1.676,1.271,2.243c0.783,0.568,1.68,0.853,2.688,0.853
		c1.601,0,2.814-0.504,3.646-1.512l1.536,1.68c-1.376,1.426-3.168,2.138-5.376,2.138c-1.792,0-3.316-0.599-4.572-1.788
		c-1.256-1.191-1.884-2.792-1.884-4.801c0-2.008,0.64-3.604,1.92-4.787c1.28-1.186,2.788-1.775,4.524-1.775
		c1.734,0,3.211,0.523,4.428,1.571c1.216,1.048,1.824,2.492,1.824,4.332L765.118,314.764L765.118,314.764z M755.11,312.65h7.318
		c0-1.07-0.337-1.896-1.009-2.471c-0.672-0.576-1.5-0.865-2.482-0.865c-0.983,0-1.868,0.301-2.651,0.899
		C755.501,310.814,755.11,311.627,755.11,312.65z"/>
	<path d="M768.225,319.635c-0.344-0.352-0.516-0.775-0.516-1.271s0.172-0.915,0.516-1.261c0.346-0.345,0.766-0.517,1.262-0.517
		s0.92,0.172,1.271,0.517c0.354,0.346,0.528,0.766,0.528,1.261s-0.176,0.921-0.528,1.271c-0.352,0.352-0.776,0.528-1.271,0.528
		C768.989,320.163,768.569,319.986,768.225,319.635z"/>
	<path d="M774.598,305.907c-0.433-0.255-0.646-0.636-0.646-1.14s0.145-0.896,0.432-1.178c0.289-0.279,0.648-0.42,1.08-0.42
		c0.434,0,0.796,0.137,1.092,0.408c0.297,0.271,0.444,0.628,0.444,1.066c0,0.439-0.146,0.867-0.432,1.283l-1.416,2.04h-1.466
		L774.598,305.907z M778.246,305.907c-0.435-0.255-0.647-0.636-0.647-1.14s0.146-0.896,0.434-1.178s0.646-0.42,1.08-0.42
		c0.432,0,0.795,0.137,1.092,0.408c0.296,0.271,0.442,0.628,0.442,1.066c0,0.439-0.145,0.867-0.433,1.283l-1.416,2.04h-1.464
		L778.246,305.907z"/>
</g>
<line fill="none" stroke="#D8D8DB" x1="440" y1="0" x2="440" y2="331.121"/>
</svg>
